<svg width="174" height="169" viewBox="0 0 174 169" fill="none" xmlns="http://www.w3.org/2000/svg">
<path d="M86.9999 130.136C90.8916 130.136 94.0464 127.008 94.0464 123.15C94.0464 119.292 90.8916 116.164 86.9999 116.164C83.1082 116.164 79.9533 119.292 79.9533 123.15C79.9533 127.008 83.1082 130.136 86.9999 130.136Z" fill="#F47676"/>
<path d="M7.04653 130.136C10.9382 130.136 14.0931 127.008 14.0931 123.15C14.0931 119.292 10.9382 116.164 7.04653 116.164C3.15484 116.164 0 119.292 0 123.15C0 127.008 3.15484 130.136 7.04653 130.136Z" fill="#F47676"/>
<path d="M47.0234 168.812C50.9151 168.812 54.07 165.684 54.07 161.826C54.07 157.968 50.9151 154.84 47.0234 154.84C43.1318 154.84 39.9769 157.968 39.9769 161.826C39.9769 165.684 43.1318 168.812 47.0234 168.812Z" fill="#F47676"/>
<path d="M47.0234 91.3921C50.9151 91.3921 54.07 88.2644 54.07 84.4061C54.07 80.5479 50.9151 77.4201 47.0234 77.4201C43.1318 77.4201 39.9769 80.5479 39.9769 84.4061C39.9769 88.2644 43.1318 91.3921 47.0234 91.3921Z" fill="#F47676"/>
<path d="M166.953 130.136C170.845 130.136 174 127.008 174 123.15C174 119.292 170.845 116.164 166.953 116.164C163.062 116.164 159.907 119.292 159.907 123.15C159.907 127.008 163.062 130.136 166.953 130.136Z" fill="#F47676"/>
<path d="M86.9999 130.136C90.8916 130.136 94.0464 127.008 94.0464 123.15C94.0464 119.292 90.8916 116.164 86.9999 116.164C83.1082 116.164 79.9533 119.292 79.9533 123.15C79.9533 127.008 83.1082 130.136 86.9999 130.136Z" fill="#F47676"/>
<path d="M126.977 168.812C130.868 168.812 134.023 165.684 134.023 161.826C134.023 157.968 130.868 154.84 126.977 154.84C123.085 154.84 119.93 157.968 119.93 161.826C119.93 165.684 123.085 168.812 126.977 168.812Z" fill="#F47676"/>
<path d="M126.977 91.3921C130.868 91.3921 134.023 88.2644 134.023 84.4061C134.023 80.5479 130.868 77.4201 126.977 77.4201C123.085 77.4201 119.93 80.5479 119.93 84.4061C119.93 88.2644 123.085 91.3921 126.977 91.3921Z" fill="#F47676"/>
<path d="M86.9999 52.7162C90.8916 52.7162 94.0464 49.5884 94.0464 45.7302C94.0464 41.8719 90.8916 38.7442 86.9999 38.7442C83.1082 38.7442 79.9533 41.8719 79.9533 45.7302C79.9533 49.5884 83.1082 52.7162 86.9999 52.7162Z" fill="#F47676"/>
<path d="M7.04653 52.7162C10.9382 52.7162 14.0931 49.5884 14.0931 45.7302C14.0931 41.8719 10.9382 38.7442 7.04653 38.7442C3.15484 38.7442 0 41.8719 0 45.7302C0 49.5884 3.15484 52.7162 7.04653 52.7162Z" fill="#F47676"/>
<path d="M47.0234 91.3921C50.9151 91.3921 54.07 88.2644 54.07 84.4061C54.07 80.5479 50.9151 77.4201 47.0234 77.4201C43.1318 77.4201 39.9769 80.5479 39.9769 84.4061C39.9769 88.2644 43.1318 91.3921 47.0234 91.3921Z" fill="#F47676"/>
<path d="M47.0234 13.972C50.9151 13.972 54.07 10.8443 54.07 6.986C54.07 3.12774 50.9151 0 47.0234 0C43.1318 0 39.9769 3.12774 39.9769 6.986C39.9769 10.8443 43.1318 13.972 47.0234 13.972Z" fill="#F47676"/>
<path d="M166.953 52.7162C170.845 52.7162 174 49.5884 174 45.7302C174 41.8719 170.845 38.7442 166.953 38.7442C163.062 38.7442 159.907 41.8719 159.907 45.7302C159.907 49.5884 163.062 52.7162 166.953 52.7162Z" fill="#F47676"/>
<path d="M86.9999 52.7162C90.8916 52.7162 94.0464 49.5884 94.0464 45.7302C94.0464 41.8719 90.8916 38.7442 86.9999 38.7442C83.1082 38.7442 79.9533 41.8719 79.9533 45.7302C79.9533 49.5884 83.1082 52.7162 86.9999 52.7162Z" fill="#F47676"/>
<path d="M126.977 91.3921C130.868 91.3921 134.023 88.2644 134.023 84.4061C134.023 80.5479 130.868 77.4201 126.977 77.4201C123.085 77.4201 119.93 80.5479 119.93 84.4061C119.93 88.2644 123.085 91.3921 126.977 91.3921Z" fill="#F47676"/>
<path d="M126.977 13.972C130.868 13.972 134.023 10.8443 134.023 6.986C134.023 3.12774 130.868 0 126.977 0C123.085 0 119.93 3.12774 119.93 6.986C119.93 10.8443 123.085 13.972 126.977 13.972Z" fill="#F47676"/>
</svg>
