<svg width="24" height="24" viewBox="0 0 24 24" fill="none" xmlns="http://www.w3.org/2000/svg">
<mask id="path-1-inside-1_28_26325" fill="white">
<path fill-rule="evenodd" clip-rule="evenodd" d="M5.37143 5.33337C4.61401 5.33337 4 5.94738 4 6.7048V17.2953C4 18.0527 4.61401 18.6667 5.37143 18.6667H18.6286C19.386 18.6667 20 18.0527 20 17.2953V6.7048C20 5.94738 19.386 5.33337 18.6286 5.33337H5.37143ZM9.05841 8.37317C8.86762 8.37317 8.71016 8.53018 8.71016 8.72142V15.2783C8.71016 15.4691 8.86717 15.6266 9.05841 15.6266C9.24919 15.6266 9.40665 15.4696 9.40665 15.2783L9.40621 8.72142C9.40621 8.53063 9.2492 8.37317 9.05841 8.37317ZM11.6517 8.37317H10.5737C10.3938 8.37317 10.2368 8.51922 10.2368 8.71001V15.2898C10.2368 15.4696 10.3829 15.6267 10.5737 15.6267H11.6517C11.8315 15.6267 11.9886 15.4806 11.9886 15.2898V8.71001C11.9886 8.51922 11.8429 8.37317 11.6517 8.37317ZM12.8193 8.72142C12.8193 8.53018 12.9767 8.37317 13.1675 8.37317C13.3697 8.37317 13.5157 8.53063 13.5157 8.72142V15.2783C13.5157 15.4696 13.3583 15.6266 13.1675 15.6266C12.9763 15.6266 12.8193 15.4691 12.8193 15.2783V8.72142ZM14.7062 8.37317C14.5154 8.37317 14.3579 8.53018 14.3579 8.72142V15.2783C14.3579 15.4691 14.515 15.6266 14.7062 15.6266C14.897 15.6266 15.0544 15.4696 15.0544 15.2783L15.054 8.72142C15.054 8.53063 14.897 8.37317 14.7062 8.37317ZM16.2219 8.37317H16.9965C17.1873 8.37317 17.3333 8.51922 17.3333 8.71001V15.2898C17.3333 15.4806 17.1763 15.6267 16.9965 15.6267H16.2219C16.0311 15.6267 15.8851 15.4696 15.8851 15.2898V8.71001C15.8851 8.51922 16.0421 8.37317 16.2219 8.37317ZM7.54268 8.37325H7.00365C6.82382 8.37325 6.66681 8.5193 6.66681 8.71009V15.2899C6.66681 15.4697 6.81286 15.6267 7.00365 15.6267H7.54268C7.72251 15.6267 7.87952 15.4807 7.87952 15.2899V8.71009C7.87952 8.5193 7.72207 8.37325 7.54268 8.37325Z"/>
</mask>
<path fill-rule="evenodd" clip-rule="evenodd" d="M5.37143 5.33337C4.61401 5.33337 4 5.94738 4 6.7048V17.2953C4 18.0527 4.61401 18.6667 5.37143 18.6667H18.6286C19.386 18.6667 20 18.0527 20 17.2953V6.7048C20 5.94738 19.386 5.33337 18.6286 5.33337H5.37143ZM9.05841 8.37317C8.86762 8.37317 8.71016 8.53018 8.71016 8.72142V15.2783C8.71016 15.4691 8.86717 15.6266 9.05841 15.6266C9.24919 15.6266 9.40665 15.4696 9.40665 15.2783L9.40621 8.72142C9.40621 8.53063 9.2492 8.37317 9.05841 8.37317ZM11.6517 8.37317H10.5737C10.3938 8.37317 10.2368 8.51922 10.2368 8.71001V15.2898C10.2368 15.4696 10.3829 15.6267 10.5737 15.6267H11.6517C11.8315 15.6267 11.9886 15.4806 11.9886 15.2898V8.71001C11.9886 8.51922 11.8429 8.37317 11.6517 8.37317ZM12.8193 8.72142C12.8193 8.53018 12.9767 8.37317 13.1675 8.37317C13.3697 8.37317 13.5157 8.53063 13.5157 8.72142V15.2783C13.5157 15.4696 13.3583 15.6266 13.1675 15.6266C12.9763 15.6266 12.8193 15.4691 12.8193 15.2783V8.72142ZM14.7062 8.37317C14.5154 8.37317 14.3579 8.53018 14.3579 8.72142V15.2783C14.3579 15.4691 14.515 15.6266 14.7062 15.6266C14.897 15.6266 15.0544 15.4696 15.0544 15.2783L15.054 8.72142C15.054 8.53063 14.897 8.37317 14.7062 8.37317ZM16.2219 8.37317H16.9965C17.1873 8.37317 17.3333 8.51922 17.3333 8.71001V15.2898C17.3333 15.4806 17.1763 15.6267 16.9965 15.6267H16.2219C16.0311 15.6267 15.8851 15.4696 15.8851 15.2898V8.71001C15.8851 8.51922 16.0421 8.37317 16.2219 8.37317ZM7.54268 8.37325H7.00365C6.82382 8.37325 6.66681 8.5193 6.66681 8.71009V15.2899C6.66681 15.4697 6.81286 15.6267 7.00365 15.6267H7.54268C7.72251 15.6267 7.87952 15.4807 7.87952 15.2899V8.71009C7.87952 8.5193 7.72207 8.37325 7.54268 8.37325Z" fill="#000072"/>
<path d="M9.40665 15.2783H10.0733V15.2783L9.40665 15.2783ZM9.40621 8.72142H8.73955V8.72146L9.40621 8.72142ZM15.0544 15.2783H15.7211V15.2783L15.0544 15.2783ZM15.054 8.72142H14.3873V8.72146L15.054 8.72142ZM4.66667 6.7048C4.66667 6.31557 4.9822 6.00004 5.37143 6.00004V4.66671C4.24582 4.66671 3.33333 5.57919 3.33333 6.7048H4.66667ZM4.66667 17.2953V6.7048H3.33333V17.2953H4.66667ZM5.37143 18C4.9822 18 4.66667 17.6845 4.66667 17.2953H3.33333C3.33333 18.4209 4.24582 19.3334 5.37143 19.3334V18ZM18.6286 18H5.37143V19.3334H18.6286V18ZM19.3333 17.2953C19.3333 17.6845 19.0178 18 18.6286 18V19.3334C19.7542 19.3334 20.6667 18.4209 20.6667 17.2953H19.3333ZM19.3333 6.7048V17.2953H20.6667V6.7048H19.3333ZM18.6286 6.00004C19.0178 6.00004 19.3333 6.31557 19.3333 6.7048H20.6667C20.6667 5.57919 19.7542 4.66671 18.6286 4.66671V6.00004ZM5.37143 6.00004H18.6286V4.66671H5.37143V6.00004ZM9.37683 8.72142C9.37683 8.89893 9.23525 9.03984 9.05841 9.03984V7.7065C8.49999 7.7065 8.04349 8.16143 8.04349 8.72142H9.37683ZM9.37683 15.2783V8.72142H8.04349V15.2783H9.37683ZM9.05841 14.9599C9.23592 14.9599 9.37683 15.1015 9.37683 15.2783H8.04349C8.04349 15.8367 8.49843 16.2932 9.05841 16.2932V14.9599ZM8.73999 15.2783C8.73999 15.1008 8.88156 14.9599 9.05841 14.9599V16.2932C9.61682 16.2932 10.0733 15.8383 10.0733 15.2783H8.73999ZM8.73955 8.72146L8.73999 15.2784L10.0733 15.2783L10.0729 8.72137L8.73955 8.72146ZM9.05841 9.03984C8.87991 9.03984 8.73955 8.89772 8.73955 8.72142H10.0729C10.0729 8.16354 9.61849 7.7065 9.05841 7.7065V9.03984ZM10.5737 9.03984H11.6517V7.7065H10.5737V9.03984ZM10.9035 8.71001C10.9035 8.90144 10.7478 9.03984 10.5737 9.03984V7.7065C10.0398 7.7065 9.57015 8.13701 9.57015 8.71001H10.9035ZM10.9035 15.2898V8.71001H9.57015V15.2898H10.9035ZM10.5737 14.96C10.7651 14.96 10.9035 15.1156 10.9035 15.2898H9.57015C9.57015 15.8237 10.0007 16.2933 10.5737 16.2933V14.96ZM11.6517 14.96H10.5737V16.2933H11.6517V14.96ZM11.3219 15.2898C11.3219 15.0984 11.4775 14.96 11.6517 14.96V16.2933C12.1855 16.2933 12.6552 15.8628 12.6552 15.2898H11.3219ZM11.3219 8.71001V15.2898H12.6552V8.71001H11.3219ZM11.6517 9.03984C11.5731 9.03984 11.4868 9.00789 11.4202 8.94123C11.3537 8.87466 11.3219 8.78858 11.3219 8.71001H12.6552C12.6552 8.1516 12.2117 7.7065 11.6517 7.7065V9.03984ZM13.1675 7.7065C12.6091 7.7065 12.1526 8.16143 12.1526 8.72142H13.4859C13.4859 8.89893 13.3443 9.03984 13.1675 9.03984V7.7065ZM14.1824 8.72142C14.1824 8.17686 13.7521 7.7065 13.1675 7.7065V9.03984C13.0889 9.03984 13.0042 9.0067 12.9407 8.94174C12.8794 8.87901 12.8491 8.79824 12.8491 8.72142H14.1824ZM14.1824 15.2783V8.72142H12.8491V15.2783H14.1824ZM13.1675 16.2932C13.7259 16.2932 14.1824 15.8383 14.1824 15.2783H12.8491C12.8491 15.1008 12.9907 14.9599 13.1675 14.9599V16.2932ZM12.1526 15.2783C12.1526 15.8367 12.6075 16.2932 13.1675 16.2932V14.9599C13.345 14.9599 13.4859 15.1015 13.4859 15.2783H12.1526ZM12.1526 8.72142V15.2783H13.4859V8.72142H12.1526ZM15.0246 8.72142C15.0246 8.89893 14.883 9.03984 14.7062 9.03984V7.7065C14.1478 7.7065 13.6913 8.16143 13.6913 8.72142H15.0246ZM15.0246 15.2783V8.72142H13.6913V15.2783H15.0246ZM14.7062 14.9599C14.8837 14.9599 15.0246 15.1015 15.0246 15.2783H13.6913C13.6913 15.8367 14.1462 16.2932 14.7062 16.2932V14.9599ZM14.3878 15.2783C14.3878 15.1008 14.5293 14.9599 14.7062 14.9599V16.2932C15.2646 16.2932 15.7211 15.8383 15.7211 15.2783H14.3878ZM14.3873 8.72146L14.3878 15.2784L15.7211 15.2783L15.7207 8.72137L14.3873 8.72146ZM14.7062 9.03984C14.5277 9.03984 14.3873 8.89771 14.3873 8.72142H15.7207C15.7207 8.16355 15.2663 7.7065 14.7062 7.7065V9.03984ZM16.9965 7.7065H16.2219V9.03984H16.9965V7.7065ZM18 8.71001C18 8.15103 17.5554 7.7065 16.9965 7.7065V9.03984C16.9173 9.03984 16.8313 9.0077 16.765 8.94145C16.6988 8.8752 16.6666 8.78917 16.6666 8.71001H18ZM18 15.2898V8.71001H16.6666V15.2898H18ZM16.9965 16.2933C17.5303 16.2933 18 15.8628 18 15.2898H16.6666C16.6666 15.0984 16.8223 14.96 16.9965 14.96V16.2933ZM16.2219 16.2933H16.9965V14.96H16.2219V16.2933ZM15.2184 15.2898C15.2184 15.8237 15.6489 16.2933 16.2219 16.2933V14.96C16.4134 14.96 16.5518 15.1156 16.5518 15.2898H15.2184ZM15.2184 8.71001V15.2898H16.5518V8.71001H15.2184ZM16.2219 7.7065C15.6881 7.7065 15.2184 8.13701 15.2184 8.71001H16.5518C16.5518 8.90144 16.3961 9.03984 16.2219 9.03984V7.7065ZM7.00365 9.03992H7.54268V7.70658H7.00365V9.03992ZM7.33348 8.71009C7.33348 8.90152 7.17783 9.03992 7.00365 9.03992V7.70658C6.46981 7.70658 6.00014 8.13709 6.00014 8.71009H7.33348ZM7.33348 15.2899V8.71009H6.00014V15.2899H7.33348ZM7.00365 14.9601C7.19508 14.9601 7.33348 15.1157 7.33348 15.2899H6.00014C6.00014 15.8237 6.43065 16.2934 7.00365 16.2934V14.9601ZM7.54268 14.9601H7.00365V16.2934H7.54268V14.9601ZM7.21285 15.2899C7.21285 15.0985 7.3685 14.9601 7.54268 14.9601V16.2934C8.07651 16.2934 8.54618 15.8629 8.54618 15.2899H7.21285ZM7.21285 8.71009V15.2899H8.54618V8.71009H7.21285ZM7.54268 9.03992C7.36862 9.03992 7.21285 8.90207 7.21285 8.71009H8.54618C8.54618 8.13654 8.07551 7.70658 7.54268 7.70658V9.03992Z" fill="#000072" mask="url(#path-1-inside-1_28_26325)"/>
</svg>
