<svg width="24" height="24" viewBox="0 0 24 24" fill="none" xmlns="http://www.w3.org/2000/svg">
<path d="M21.5438 12.2216C21.5438 11.4017 21.4772 10.8034 21.3333 10.183H11.9712V13.8835H17.4665C17.3558 14.8031 16.7575 16.188 15.4279 17.1186L15.4093 17.2425L18.3694 19.5357L18.5745 19.5561C20.4579 17.8167 21.5438 15.2573 21.5438 12.2216Z" fill="#4285F4"/>
<path d="M11.9713 21.9714C14.6636 21.9714 16.9237 21.085 18.5746 19.5561L15.428 17.1186C14.586 17.7058 13.4559 18.1158 11.9713 18.1158C9.33444 18.1158 7.09642 16.3764 6.29863 13.9721L6.1817 13.9821L3.10373 16.3641L3.06348 16.476C4.70321 19.7333 8.07134 21.9714 11.9713 21.9714Z" fill="#34A853"/>
<path d="M6.29875 13.9721C6.08825 13.3517 5.96642 12.6869 5.96642 12C5.96642 11.313 6.08825 10.6483 6.28768 10.0279L6.2821 9.89572L3.16556 7.47539L3.06359 7.52389C2.38778 8.87559 2 10.3935 2 12C2 13.6065 2.38778 15.1243 3.06359 16.476L6.29875 13.9721Z" fill="#FBBC05"/>
<path d="M11.9713 5.88416C13.8437 5.88416 15.1067 6.69295 15.8269 7.36884L18.6411 4.62114C16.9127 3.01464 14.6636 2.02857 11.9713 2.02857C8.07134 2.02857 4.70321 4.26658 3.06348 7.52389L6.28756 10.0279C7.09643 7.62364 9.33444 5.88416 11.9713 5.88416Z" fill="#EB4335"/>
</svg>
