<svg width="170" height="137" viewBox="0 0 170 137" fill="none" xmlns="http://www.w3.org/2000/svg">
<path d="M69.6141 105.032C72.7281 105.032 75.2525 102.508 75.2525 99.3937C75.2525 96.2797 72.7281 93.7553 69.6141 93.7553C66.5001 93.7553 63.9758 96.2797 63.9758 99.3937C63.9758 102.508 66.5001 105.032 69.6141 105.032Z" fill="#E4F254"/>
<path d="M5.63838 105.032C8.75237 105.032 11.2768 102.508 11.2768 99.3937C11.2768 96.2797 8.75237 93.7553 5.63838 93.7553C2.52439 93.7553 0 96.2797 0 99.3937C0 102.508 2.52439 105.032 5.63838 105.032Z" fill="#E4F254"/>
<path d="M37.6262 136.247C40.7402 136.247 43.2646 133.723 43.2646 130.609C43.2646 127.495 40.7402 124.971 37.6262 124.971C34.5122 124.971 31.9878 127.495 31.9878 130.609C31.9878 133.723 34.5122 136.247 37.6262 136.247Z" fill="#E4F254"/>
<path d="M37.6262 73.762C40.7402 73.762 43.2646 71.2376 43.2646 68.1237C43.2646 65.0097 40.7402 62.4853 37.6262 62.4853C34.5122 62.4853 31.9878 65.0097 31.9878 68.1237C31.9878 71.2376 34.5122 73.762 37.6262 73.762Z" fill="#E4F254"/>
<path d="M133.59 105.032C136.704 105.032 139.228 102.508 139.228 99.3937C139.228 96.2797 136.704 93.7553 133.59 93.7553C130.476 93.7553 127.951 96.2797 127.951 99.3937C127.951 102.508 130.476 105.032 133.59 105.032Z" fill="#E4F254"/>
<path d="M69.6141 105.032C72.7281 105.032 75.2525 102.508 75.2525 99.3937C75.2525 96.2797 72.7281 93.7553 69.6141 93.7553C66.5001 93.7553 63.9758 96.2797 63.9758 99.3937C63.9758 102.508 66.5001 105.032 69.6141 105.032Z" fill="#E4F254"/>
<path d="M101.602 136.247C104.716 136.247 107.24 133.723 107.24 130.609C107.24 127.495 104.716 124.971 101.602 124.971C98.4878 124.971 95.9634 127.495 95.9634 130.609C95.9634 133.723 98.4878 136.247 101.602 136.247Z" fill="#E4F254"/>
<path d="M101.602 73.762C104.716 73.762 107.24 71.2376 107.24 68.1237C107.24 65.0097 104.716 62.4853 101.602 62.4853C98.4878 62.4853 95.9634 65.0097 95.9634 68.1237C95.9634 71.2376 98.4878 73.762 101.602 73.762Z" fill="#E4F254"/>
<path d="M69.6141 42.5468C72.7281 42.5468 75.2525 40.0224 75.2525 36.9084C75.2525 33.7944 72.7281 31.27 69.6141 31.27C66.5001 31.27 63.9758 33.7944 63.9758 36.9084C63.9758 40.0224 66.5001 42.5468 69.6141 42.5468Z" fill="#E4F254"/>
<path d="M5.63838 42.5468C8.75237 42.5468 11.2768 40.0224 11.2768 36.9084C11.2768 33.7944 8.75237 31.27 5.63838 31.27C2.52439 31.27 0 33.7944 0 36.9084C0 40.0224 2.52439 42.5468 5.63838 42.5468Z" fill="#E4F254"/>
<path d="M37.6262 73.762C40.7402 73.762 43.2646 71.2376 43.2646 68.1237C43.2646 65.0097 40.7402 62.4853 37.6262 62.4853C34.5122 62.4853 31.9878 65.0097 31.9878 68.1237C31.9878 71.2376 34.5122 73.762 37.6262 73.762Z" fill="#E4F254"/>
<path d="M37.6262 11.2768C40.7402 11.2768 43.2646 8.75237 43.2646 5.63838C43.2646 2.52439 40.7402 0 37.6262 0C34.5122 0 31.9878 2.52439 31.9878 5.63838C31.9878 8.75237 34.5122 11.2768 37.6262 11.2768Z" fill="#E4F254"/>
<path d="M133.59 42.5468C136.704 42.5468 139.228 40.0224 139.228 36.9084C139.228 33.7944 136.704 31.27 133.59 31.27C130.476 31.27 127.951 33.7944 127.951 36.9084C127.951 40.0224 130.476 42.5468 133.59 42.5468Z" fill="#E4F254"/>
<path d="M69.6141 42.5468C72.7281 42.5468 75.2525 40.0224 75.2525 36.9084C75.2525 33.7944 72.7281 31.27 69.6141 31.27C66.5001 31.27 63.9758 33.7944 63.9758 36.9084C63.9758 40.0224 66.5001 42.5468 69.6141 42.5468Z" fill="#E4F254"/>
<path d="M101.602 73.762C104.716 73.762 107.24 71.2376 107.24 68.1237C107.24 65.0097 104.716 62.4853 101.602 62.4853C98.4878 62.4853 95.9634 65.0097 95.9634 68.1237C95.9634 71.2376 98.4878 73.762 101.602 73.762Z" fill="#E4F254"/>
<path d="M101.602 11.2768C104.716 11.2768 107.24 8.75237 107.24 5.63838C107.24 2.52439 104.716 0 101.602 0C98.4878 0 95.9634 2.52439 95.9634 5.63838C95.9634 8.75237 98.4878 11.2768 101.602 11.2768Z" fill="#E4F254"/>
<path d="M114.618 127.825C145.204 127.825 170 103.03 170 72.4428C170 41.8558 145.205 17.0608 114.618 17.0608C84.0306 17.0608 59.2353 41.856 59.2353 72.4428C59.2353 103.03 84.0308 127.825 114.618 127.825Z" fill="#F47676"/>
<path d="M147.92 47.2189C146.499 45.4656 144.969 43.8028 143.341 42.2399C138.304 37.5474 132.172 34.1905 125.505 32.4753C118.838 30.7601 111.848 30.7413 105.172 32.4204C98.4953 34.0994 92.3456 37.423 87.2833 42.0881C82.2209 46.7533 78.4069 52.6117 76.1891 59.1288L78.145 59.7913C80.2496 53.5988 83.8715 48.032 88.6802 43.5989C93.4889 39.1658 99.3313 36.0076 105.674 34.4125C112.017 32.8174 118.658 32.8362 124.992 34.4672C131.326 36.0982 137.15 39.2894 141.934 43.7497C143.44 45.1958 144.858 46.7317 146.179 48.3486C146.068 48.4513 145.945 48.5345 145.843 48.6496C144.798 49.767 144.235 51.2498 144.274 52.7786C144.313 54.3075 144.951 55.7598 146.051 56.8225C147.151 57.8852 148.624 58.4732 150.154 58.4597C151.683 58.4463 153.146 57.8325 154.226 56.7506C154.275 56.7023 154.324 56.6537 154.37 56.6041C155.424 55.473 155.986 53.9696 155.932 52.4244C155.879 50.8791 155.213 49.4186 154.083 48.3635C153.271 47.6069 152.26 47.0973 151.168 46.8946C150.077 46.6919 148.95 46.8043 147.92 47.2189ZM154.148 52.4867C154.168 53.0174 154.082 53.5468 153.896 54.0442C153.71 54.5417 153.427 54.9974 153.065 55.3855C152.328 56.1601 151.316 56.6147 150.247 56.6517C149.179 56.6887 148.138 56.305 147.349 55.5832C146.961 55.2213 146.647 54.7864 146.427 54.3033C146.206 53.8201 146.083 53.2982 146.064 52.7674C146.045 52.2366 146.131 51.7073 146.317 51.2098C146.503 50.7123 146.785 50.2564 147.148 49.868C147.181 49.8345 147.213 49.7989 147.247 49.7654C147.804 49.2093 148.512 48.8279 149.284 48.6682C150.055 48.5084 150.856 48.5772 151.589 48.8661C152.321 49.155 152.954 49.6515 153.409 50.2946C153.863 50.9377 154.12 51.6996 154.148 52.4867Z" fill="#000072"/>
<path d="M143.864 99.0878C138.478 104.859 131.473 108.868 123.769 110.589C116.065 112.311 108.02 111.664 100.69 108.734C93.3599 105.804 87.086 100.727 82.6909 94.1696C78.2959 87.612 75.9849 79.8795 76.0608 71.9857C77.3445 71.7848 78.5078 71.1139 79.3247 70.1033C80.1415 69.0928 80.5536 67.8148 80.4809 66.5175C80.4081 65.2201 79.8557 63.9961 78.9311 63.0832C78.0064 62.1703 76.7754 61.6336 75.4772 61.5776C74.179 61.5215 72.9063 61.9499 71.9063 62.7796C70.9064 63.6094 70.2505 64.7812 70.0661 66.0674C69.8818 67.3537 70.1821 68.6626 70.9087 69.7399C71.6353 70.8171 72.7364 71.5858 73.9981 71.8966C73.9038 80.0874 76.2515 88.1206 80.7415 94.9716C85.2316 101.823 91.6607 107.181 99.2086 110.363C106.757 113.546 115.081 114.407 123.121 112.839C131.161 111.27 138.551 107.343 144.35 101.557C144.696 101.211 145.037 100.858 145.375 100.497C150.066 95.48 153.426 89.3682 155.149 82.7191C156.871 76.07 156.901 69.0955 155.235 62.4319L153.23 62.9259C154.813 69.2561 154.786 75.8821 153.15 82.199C151.514 88.5158 148.321 94.3222 143.864 99.0878Z" fill="#000072"/>
<path d="M105.374 66.1112C105.013 64.9075 104.273 63.8524 103.264 63.1023C102.256 62.3523 101.032 61.9474 99.7756 61.9474C98.5187 61.9474 97.2954 62.3523 96.2868 63.1023C95.2783 63.8524 94.5384 64.9075 94.1767 66.1112" stroke="#000072" stroke-width="2.02623" stroke-miterlimit="10" stroke-linecap="round"/>
<path d="M135.059 66.1112C134.697 64.9075 133.957 63.8524 132.949 63.1023C131.94 62.3523 130.717 61.9474 129.46 61.9474C128.203 61.9474 126.98 62.3523 125.971 63.1023C124.963 63.8524 124.223 64.9075 123.861 66.1112" stroke="#000072" stroke-width="2.02623" stroke-miterlimit="10" stroke-linecap="round"/>
</svg>
