<svg width="24" height="24" viewBox="0 0 24 24" fill="none" xmlns="http://www.w3.org/2000/svg">
<rect y="2" width="24" height="20" rx="3" fill="#3498D8"/>
<path fill-rule="evenodd" clip-rule="evenodd" d="M4.91188 12.2571H6.13793L5.5249 10.5429L4.91188 12.2571ZM22 9H18.8582L18.092 9.94286L17.4023 9H10.7356L10.1226 10.5429L9.50958 9H6.82759V9.68571L6.52107 9H4.22222L2 15H4.68199L4.98851 14.0571H5.75479L6.0613 15H9.04981V14.3143L9.27969 15H10.8123L11.0421 14.2286V15H17.1724L17.9387 14.0571L18.6284 15H21.7701L19.7778 12L22 9ZM12.728 14.1429H11.8851V10.8L10.5824 14.1429H9.81609L8.51341 10.8V14.1429H6.75096L6.44444 13.2H4.60536L4.29885 14.1429H3.30268L4.91188 9.85714H6.21456L7.6705 13.8857V9.85714H9.12644L10.2759 12.7714L11.3487 9.85714H12.8046V14.1429H12.728ZM20.3142 14.1429H19.1648L18.1686 12.6857L17.0192 14.1429H13.5709V9.85714H17.0958L18.1686 11.2286L19.318 9.85714H20.3908L18.705 12L20.3142 14.1429ZM14.4138 10.7143V11.4857H16.3295V12.3429H14.4138V13.2H16.5594L17.5556 11.9143L16.636 10.7143H14.4138Z" fill="white"/>
</svg>
