<svg width="24" height="24" viewBox="0 0 24 24" fill="none" xmlns="http://www.w3.org/2000/svg">
<rect y="2" width="24" height="20" rx="3" fill="#0F0F12"/>
<path fill-rule="evenodd" clip-rule="evenodd" d="M11.0146 8L11.023 14.2391C11.0238 14.8314 11.1858 15.1114 11.6475 15.3047L12.865 15.8144L13.3333 14.6098L12.2939 14.2099C12.2167 14.1802 12.2094 14.1289 12.2094 14.0706V8H11.0146ZM8.76625 11.4478L5.43492 12.868C5.42975 12.8113 5.42689 12.7538 5.42689 12.6957C5.42689 11.6532 6.28112 10.8081 7.33488 10.8081C7.90499 10.8081 8.41665 11.0556 8.76625 11.4478ZM7.33488 9.39644C8.90685 9.39644 10.2245 10.4725 10.577 11.9207L9.23285 12.5022L9.23254 12.4994L7.85744 13.0971L4.55872 14.524C4.20582 14.0006 4 13.372 4 12.6957C4 10.8735 5.49305 9.39644 7.33488 9.39644ZM9.66516 15.0558C8.47111 16.177 6.89149 16.287 5.5035 15.4533L6.28771 14.2738C7.07752 14.7408 7.87094 14.6651 8.66804 14.0459L9.66516 15.0558Z" fill="#FFFFFE"/>
<path fill-rule="evenodd" clip-rule="evenodd" d="M15.3335 14.0833C14.9242 13.7393 14.6607 13.2025 14.6607 12.5987C14.6607 12.0619 14.8691 11.578 15.2029 11.2355L14.4977 10C13.7887 10.6071 13.3335 11.5451 13.3335 12.5987C13.3335 13.7342 13.862 14.736 14.6675 15.3333L15.3335 14.0833Z" fill="#2191C3"/>
<path fill-rule="evenodd" clip-rule="evenodd" d="M15.9707 10.8871C16.1783 10.8152 16.402 10.7759 16.6353 10.7759C17.4765 10.7759 18.1937 11.2848 18.4739 12L20.0002 11.8773C19.6317 10.4175 18.2655 9.33331 16.6353 9.33331C16.1747 9.33331 15.7355 9.42061 15.3335 9.5777L15.9707 10.8871Z" fill="#FAEC32"/>
<path fill-rule="evenodd" clip-rule="evenodd" d="M18.4596 12.6667C18.4085 13.6966 17.5245 14.5166 16.4414 14.5166C16.2716 14.5166 16.1069 14.4961 15.9493 14.4582L15.3335 15.8301C15.6823 15.9398 16.0545 16 16.4414 16C18.3598 16 19.9232 14.5409 20.0002 12.7134L18.4596 12.6667Z" fill="#D0362B"/>
</svg>
