<svg width="16" height="16" viewBox="0 0 16 16" fill="none" xmlns="http://www.w3.org/2000/svg">
<path d="M7.99998 1.33333C4.31998 1.33333 1.33331 4.31999 1.33331 8C1.33331 11.68 4.31998 14.6667 7.99998 14.6667C11.68 14.6667 14.6666 11.68 14.6666 8C14.6666 4.31999 11.68 1.33333 7.99998 1.33333ZM8.66665 11.3333H7.33331V7.33333H8.66665V11.3333ZM8.66665 6H7.33331V4.66666H8.66665V6Z" fill="#40405C"/>
<path d="M8.66665 11.8333H9.16665V11.3333V7.33333V6.83333H8.66665H7.33331H6.83331V7.33333V11.3333V11.8333H7.33331H8.66665ZM8.66665 6.5H9.16665V6V4.66666V4.16666H8.66665H7.33331H6.83331V4.66666V6V6.5H7.33331H8.66665ZM1.83331 8C1.83331 4.59614 4.59612 1.83333 7.99998 1.83333C11.4038 1.83333 14.1666 4.59614 14.1666 8C14.1666 11.4039 11.4038 14.1667 7.99998 14.1667C4.59612 14.1667 1.83331 11.4039 1.83331 8Z" stroke="#40405C"/>
</svg>
