<svg width="101" height="99" viewBox="0 0 101 99" fill="none" xmlns="http://www.w3.org/2000/svg">
<path d="M50.4999 76.1931C52.7589 76.1931 54.5901 74.3619 54.5901 72.1029C54.5901 69.8439 52.7589 68.0127 50.4999 68.0127C48.2409 68.0127 46.4097 69.8439 46.4097 72.1029C46.4097 74.3619 48.2409 76.1931 50.4999 76.1931Z" fill="#6ED28F"/>
<path d="M4.09022 76.1931C6.34919 76.1931 8.18045 74.3619 8.18045 72.1029C8.18045 69.8439 6.34919 68.0127 4.09022 68.0127C1.83126 68.0127 0 69.8439 0 72.1029C0 74.3619 1.83126 76.1931 4.09022 76.1931Z" fill="#6ED28F"/>
<path d="M27.2953 98.8374C29.5543 98.8374 31.3855 97.0061 31.3855 94.7472C31.3855 92.4882 29.5543 90.657 27.2953 90.657C25.0363 90.657 23.2051 92.4882 23.2051 94.7472C23.2051 97.0061 25.0363 98.8374 27.2953 98.8374Z" fill="#6ED28F"/>
<path d="M27.2953 53.5089C29.5543 53.5089 31.3855 51.6777 31.3855 49.4187C31.3855 47.1597 29.5543 45.3285 27.2953 45.3285C25.0363 45.3285 23.2051 47.1597 23.2051 49.4187C23.2051 51.6777 25.0363 53.5089 27.2953 53.5089Z" fill="#6ED28F"/>
<path d="M96.9098 76.1931C99.1688 76.1931 101 74.3619 101 72.1029C101 69.8439 99.1688 68.0127 96.9098 68.0127C94.6508 68.0127 92.8196 69.8439 92.8196 72.1029C92.8196 74.3619 94.6508 76.1931 96.9098 76.1931Z" fill="#6ED28F"/>
<path d="M50.4999 76.1931C52.7589 76.1931 54.5901 74.3619 54.5901 72.1029C54.5901 69.8439 52.7589 68.0127 50.4999 68.0127C48.2409 68.0127 46.4097 69.8439 46.4097 72.1029C46.4097 74.3619 48.2409 76.1931 50.4999 76.1931Z" fill="#6ED28F"/>
<path d="M73.7047 98.8374C75.9637 98.8374 77.7949 97.0061 77.7949 94.7472C77.7949 92.4882 75.9637 90.657 73.7047 90.657C71.4457 90.657 69.6145 92.4882 69.6145 94.7472C69.6145 97.0061 71.4457 98.8374 73.7047 98.8374Z" fill="#6ED28F"/>
<path d="M73.7047 53.5089C75.9637 53.5089 77.7949 51.6777 77.7949 49.4187C77.7949 47.1597 75.9637 45.3285 73.7047 45.3285C71.4457 45.3285 69.6145 47.1597 69.6145 49.4187C69.6145 51.6777 71.4457 53.5089 73.7047 53.5089Z" fill="#6ED28F"/>
<path d="M50.4999 30.8647C52.7589 30.8647 54.5901 29.0334 54.5901 26.7744C54.5901 24.5155 52.7589 22.6842 50.4999 22.6842C48.2409 22.6842 46.4097 24.5155 46.4097 26.7744C46.4097 29.0334 48.2409 30.8647 50.4999 30.8647Z" fill="#6ED28F"/>
<path d="M4.09022 30.8647C6.34919 30.8647 8.18045 29.0334 8.18045 26.7744C8.18045 24.5155 6.34919 22.6842 4.09022 22.6842C1.83126 22.6842 0 24.5155 0 26.7744C0 29.0334 1.83126 30.8647 4.09022 30.8647Z" fill="#6ED28F"/>
<path d="M27.2953 53.5089C29.5543 53.5089 31.3855 51.6777 31.3855 49.4187C31.3855 47.1597 29.5543 45.3285 27.2953 45.3285C25.0363 45.3285 23.2051 47.1597 23.2051 49.4187C23.2051 51.6777 25.0363 53.5089 27.2953 53.5089Z" fill="#6ED28F"/>
<path d="M27.2953 8.18045C29.5543 8.18045 31.3855 6.34919 31.3855 4.09022C31.3855 1.83126 29.5543 0 27.2953 0C25.0363 0 23.2051 1.83126 23.2051 4.09022C23.2051 6.34919 25.0363 8.18045 27.2953 8.18045Z" fill="#6ED28F"/>
<path d="M96.9098 30.8647C99.1688 30.8647 101 29.0334 101 26.7744C101 24.5155 99.1688 22.6842 96.9098 22.6842C94.6508 22.6842 92.8196 24.5155 92.8196 26.7744C92.8196 29.0334 94.6508 30.8647 96.9098 30.8647Z" fill="#6ED28F"/>
<path d="M50.4999 30.8647C52.7589 30.8647 54.5901 29.0334 54.5901 26.7744C54.5901 24.5155 52.7589 22.6842 50.4999 22.6842C48.2409 22.6842 46.4097 24.5155 46.4097 26.7744C46.4097 29.0334 48.2409 30.8647 50.4999 30.8647Z" fill="#6ED28F"/>
<path d="M73.7047 53.5089C75.9637 53.5089 77.7949 51.6777 77.7949 49.4187C77.7949 47.1597 75.9637 45.3285 73.7047 45.3285C71.4457 45.3285 69.6145 47.1597 69.6145 49.4187C69.6145 51.6777 71.4457 53.5089 73.7047 53.5089Z" fill="#6ED28F"/>
<path d="M73.7047 8.18045C75.9637 8.18045 77.7949 6.34919 77.7949 4.09022C77.7949 1.83126 75.9637 0 73.7047 0C71.4457 0 69.6145 1.83126 69.6145 4.09022C69.6145 6.34919 71.4457 8.18045 73.7047 8.18045Z" fill="#6ED28F"/>
</svg>
