<svg width="16" height="16" viewBox="0 0 16 16" fill="none" xmlns="http://www.w3.org/2000/svg">
<path fill-rule="evenodd" clip-rule="evenodd" d="M2.27525 11.2431C1.69431 10.2411 1.38874 9.1044 1.3891 7.93998H1.38916C1.39061 4.29714 4.36858 1.33333 8.02796 1.33333C9.80384 1.33406 11.4705 2.02222 12.724 3.2709C13.9773 4.51973 14.6673 6.17985 14.6667 7.94527C14.6651 11.5881 11.6867 14.5523 8.02796 14.5523H8.02509C6.91416 14.5519 5.82238 14.2744 4.8527 13.748L1.33337 14.6667L2.27525 11.2431ZM3.35353 10.8629L3.48493 11.0705L3.48494 11.0705L2.92733 13.0969L5.01577 12.5518L5.21733 12.6708C6.06431 13.1711 7.03551 13.4359 8.02577 13.4364H8.02796C11.0692 13.4364 13.5445 10.9727 13.5458 7.94486C13.5462 6.47737 12.9729 5.09761 11.9311 4.05966C10.8892 3.02181 9.504 2.44979 8.03004 2.44917C4.9864 2.44917 2.51119 4.91256 2.50999 7.9404C2.50957 8.97799 2.80113 9.98846 3.35353 10.8629ZM5.99546 4.89263C6.11364 4.89745 6.24442 4.903 6.36869 5.17797V5.17802C6.45343 5.36559 6.59587 5.71492 6.70963 5.99392C6.79389 6.20057 6.86241 6.36863 6.8801 6.40378C6.9215 6.48637 6.94921 6.58282 6.89385 6.69305C6.88551 6.70966 6.8778 6.72533 6.87043 6.7403C6.82896 6.82457 6.79846 6.88653 6.72822 6.96843C6.70042 7.00072 6.67167 7.03552 6.64293 7.07032C6.58586 7.1394 6.52883 7.20845 6.47927 7.25766C6.39609 7.33995 6.30968 7.42944 6.40645 7.59453C6.50322 7.75989 6.83614 8.30043 7.32927 8.73816C7.85904 9.20836 8.31924 9.40722 8.55297 9.50822C8.59887 9.52806 8.63603 9.54412 8.66327 9.55772C8.82911 9.64032 8.92593 9.62658 9.02265 9.51618C9.11947 9.40605 9.43713 9.03418 9.54775 8.86908C9.65838 8.70373 9.76895 8.73121 9.92104 8.78628C10.0731 8.8414 10.8886 9.24091 11.0545 9.32351C11.0868 9.33958 11.117 9.35408 11.145 9.36754C11.2609 9.42318 11.3391 9.46077 11.3725 9.51618C11.414 9.58525 11.414 9.91575 11.2757 10.3013C11.1375 10.6869 10.4602 11.0588 10.156 11.0863C10.1268 11.0889 10.0978 11.0923 10.0679 11.0958C9.7868 11.1288 9.43209 11.1704 8.16551 10.6732C6.6075 10.0615 5.58015 8.54584 5.36764 8.23232C5.35018 8.20656 5.33822 8.18891 5.33192 8.18055L5.33012 8.17816C5.24084 8.05937 4.65463 7.27945 4.65463 6.47258C4.65463 5.71217 5.03003 5.31354 5.20281 5.13006C5.21464 5.1175 5.22551 5.10596 5.23525 5.09537C5.38718 4.93022 5.56692 4.88879 5.67755 4.88879C5.68476 4.88879 5.69197 4.88879 5.69918 4.88879C5.80245 4.88877 5.90501 4.88875 5.99546 4.89263Z" fill="#C5FA69"/>
</svg>
