<svg width="20" height="20" viewBox="0 0 20 20" fill="none" xmlns="http://www.w3.org/2000/svg">
<path d="M4.01 18C4.01 16.9 4.9 16 6 16C7.1 16 8 16.9 8 18C8 19.1 7.1 20 6 20C4.9 20 4.01 19.1 4.01 18Z" fill="#000072"/>
<path d="M14.01 18C14.01 16.9 14.9 16 16 16C17.1 16 18 16.9 18 18C18 19.1 17.1 20 16 20C14.9 20 14.01 19.1 14.01 18Z" fill="#000072"/>
<path d="M14.55 11H7.1L6 13H18V15H6C4.48 15 3.52 13.37 4.25 12.03L5.6 9.59L2 2H0V0H3.27L7.53 9H14.55L18.25 2L20 2.96L16.3 9.97C15.96 10.59 15.3 11 14.55 11Z" fill="#000072"/>
</svg>
