<svg width="66" height="62" viewBox="0 0 66 62" fill="none" xmlns="http://www.w3.org/2000/svg">
<path d="M9.2373 44.5273C9.10059 44.5046 8.95247 44.4932 8.79297 44.4932C8.20052 44.4932 7.7985 44.7454 7.58691 45.25V49H6.68359V43.7168H7.5625L7.57715 44.3271C7.87337 43.8551 8.29329 43.6191 8.83691 43.6191C9.0127 43.6191 9.14616 43.6419 9.2373 43.6875V44.5273Z" fill="#555555"/>
<path d="M12.167 49.0977C11.4508 49.0977 10.8682 48.8633 10.4189 48.3945C9.96973 47.9225 9.74512 47.2926 9.74512 46.5049V46.3389C9.74512 45.8148 9.8444 45.3477 10.043 44.9375C10.2448 44.5241 10.5247 44.2018 10.8828 43.9707C11.2441 43.7363 11.6348 43.6191 12.0547 43.6191C12.7415 43.6191 13.2754 43.8454 13.6562 44.2979C14.0371 44.7503 14.2275 45.3981 14.2275 46.2412V46.6172H10.6484C10.6615 47.138 10.8128 47.5596 11.1025 47.8818C11.3955 48.2008 11.7666 48.3604 12.2158 48.3604C12.5348 48.3604 12.805 48.2952 13.0264 48.165C13.2477 48.0348 13.4414 47.8623 13.6074 47.6475L14.1592 48.0771C13.7165 48.7575 13.0524 49.0977 12.167 49.0977ZM12.0547 44.3613C11.6901 44.3613 11.3841 44.4948 11.1367 44.7617C10.8893 45.0254 10.7363 45.3965 10.6777 45.875H13.3242V45.8066C13.2982 45.3477 13.1745 44.9928 12.9531 44.7422C12.7318 44.4883 12.4323 44.3613 12.0547 44.3613Z" fill="#555555"/>
<path d="M20.6484 46.7441C20.5605 47.4961 20.2822 48.0771 19.8135 48.4873C19.348 48.8942 18.7279 49.0977 17.9531 49.0977C17.1133 49.0977 16.4395 48.7965 15.9316 48.1943C15.4271 47.5921 15.1748 46.7865 15.1748 45.7773V45.0938C15.1748 44.4329 15.292 43.8519 15.5264 43.3506C15.764 42.8493 16.0993 42.4652 16.5322 42.1982C16.9652 41.9281 17.4665 41.793 18.0361 41.793C18.7913 41.793 19.3968 42.0046 19.8525 42.4277C20.3083 42.8477 20.5736 43.4303 20.6484 44.1758H19.7061C19.6247 43.6094 19.4473 43.1992 19.1738 42.9453C18.9036 42.6914 18.5244 42.5645 18.0361 42.5645C17.4372 42.5645 16.9668 42.7858 16.625 43.2285C16.2865 43.6712 16.1172 44.3011 16.1172 45.1182V45.8066C16.1172 46.5781 16.2783 47.1917 16.6006 47.6475C16.9229 48.1032 17.3737 48.3311 17.9531 48.3311C18.474 48.3311 18.8727 48.2139 19.1494 47.9795C19.4294 47.7419 19.6149 47.3301 19.7061 46.7441H20.6484Z" fill="#555555"/>
<path d="M25.8584 47.1445H22.8799L22.2109 49H21.2441L23.959 41.8906H24.7793L27.499 49H26.5371L25.8584 47.1445ZM23.1631 46.373H25.5801L24.3691 43.0479L23.1631 46.373Z" fill="#555555"/>
<path d="M29.3936 46.2168V49H28.4561V41.8906H31.0781C31.8561 41.8906 32.4648 42.0892 32.9043 42.4863C33.347 42.8835 33.5684 43.4092 33.5684 44.0635C33.5684 44.7536 33.3519 45.2858 32.9189 45.6602C32.4893 46.0312 31.8724 46.2168 31.0684 46.2168H29.3936ZM29.3936 45.4502H31.0781C31.5794 45.4502 31.9635 45.333 32.2305 45.0986C32.4974 44.861 32.6309 44.5192 32.6309 44.0732C32.6309 43.6501 32.4974 43.3115 32.2305 43.0576C31.9635 42.8037 31.5973 42.6719 31.1318 42.6621H29.3936V45.4502Z" fill="#555555"/>
<path d="M39.6768 42.6621H37.3916V49H36.459V42.6621H34.1787V41.8906H39.6768V42.6621Z" fill="#555555"/>
<path d="M45.8242 46.7441C45.7363 47.4961 45.458 48.0771 44.9893 48.4873C44.5238 48.8942 43.9036 49.0977 43.1289 49.0977C42.2891 49.0977 41.6152 48.7965 41.1074 48.1943C40.6029 47.5921 40.3506 46.7865 40.3506 45.7773V45.0938C40.3506 44.4329 40.4678 43.8519 40.7021 43.3506C40.9398 42.8493 41.2751 42.4652 41.708 42.1982C42.1409 41.9281 42.6423 41.793 43.2119 41.793C43.9671 41.793 44.5726 42.0046 45.0283 42.4277C45.4841 42.8477 45.7493 43.4303 45.8242 44.1758H44.8818C44.8005 43.6094 44.623 43.1992 44.3496 42.9453C44.0794 42.6914 43.7002 42.5645 43.2119 42.5645C42.613 42.5645 42.1426 42.7858 41.8008 43.2285C41.4622 43.6712 41.293 44.3011 41.293 45.1182V45.8066C41.293 46.5781 41.4541 47.1917 41.7764 47.6475C42.0986 48.1032 42.5495 48.3311 43.1289 48.3311C43.6497 48.3311 44.0485 48.2139 44.3252 47.9795C44.6051 47.7419 44.7907 47.3301 44.8818 46.7441H45.8242Z" fill="#555555"/>
<path d="M52.5723 49H51.6299V45.7139H48.0459V49H47.1084V41.8906H48.0459V44.9473H51.6299V41.8906H52.5723V49Z" fill="#555555"/>
<path d="M58.251 47.1445H55.2725L54.6035 49H53.6367L56.3516 41.8906H57.1719L59.8916 49H58.9297L58.251 47.1445ZM55.5557 46.373H57.9727L56.7617 43.0479L55.5557 46.373Z" fill="#555555"/>
<path d="M5.75 57.5391V59.7656H5V54.0781H7.09766C7.72005 54.0781 8.20703 54.237 8.55859 54.5547C8.91276 54.8724 9.08984 55.293 9.08984 55.8164C9.08984 56.3685 8.91667 56.7943 8.57031 57.0938C8.22656 57.3906 7.73307 57.5391 7.08984 57.5391H5.75ZM5.75 56.9258H7.09766C7.4987 56.9258 7.80599 56.832 8.01953 56.6445C8.23307 56.4544 8.33984 56.181 8.33984 55.8242C8.33984 55.4857 8.23307 55.2148 8.01953 55.0117C7.80599 54.8086 7.51302 54.7031 7.14062 54.6953H5.75V56.9258Z" fill="#555555"/>
<path d="M11.9766 56.1875C11.8672 56.1693 11.7487 56.1602 11.6211 56.1602C11.1471 56.1602 10.8255 56.362 10.6562 56.7656V59.7656H9.93359V55.5391H10.6367L10.6484 56.0273C10.8854 55.6497 11.2214 55.4609 11.6562 55.4609C11.7969 55.4609 11.9036 55.4792 11.9766 55.5156V56.1875Z" fill="#555555"/>
<path d="M13.4297 59.7656H12.707V55.5391H13.4297V59.7656ZM12.6484 54.418C12.6484 54.3008 12.6836 54.2018 12.7539 54.1211C12.8268 54.0404 12.9336 54 13.0742 54C13.2148 54 13.3216 54.0404 13.3945 54.1211C13.4674 54.2018 13.5039 54.3008 13.5039 54.418C13.5039 54.5352 13.4674 54.6328 13.3945 54.7109C13.3216 54.7891 13.2148 54.8281 13.0742 54.8281C12.9336 54.8281 12.8268 54.7891 12.7539 54.7109C12.6836 54.6328 12.6484 54.5352 12.6484 54.418Z" fill="#555555"/>
<path d="M15.9844 58.7852L17.0312 55.5391H17.7695L16.2539 59.7656H15.7031L14.1719 55.5391H14.9102L15.9844 58.7852Z" fill="#555555"/>
<path d="M21.0117 59.7656C20.9701 59.6823 20.9362 59.5339 20.9102 59.3203C20.5742 59.6693 20.1732 59.8438 19.707 59.8438C19.2904 59.8438 18.9479 59.7266 18.6797 59.4922C18.4141 59.2552 18.2812 58.9557 18.2812 58.5938C18.2812 58.1536 18.4479 57.8125 18.7812 57.5703C19.1172 57.3255 19.5885 57.2031 20.1953 57.2031H20.8984V56.8711C20.8984 56.6185 20.8229 56.418 20.6719 56.2695C20.5208 56.1185 20.2982 56.043 20.0039 56.043C19.7461 56.043 19.5299 56.1081 19.3555 56.2383C19.181 56.3685 19.0938 56.526 19.0938 56.7109H18.3672C18.3672 56.5 18.4414 56.2969 18.5898 56.1016C18.7409 55.9036 18.944 55.7474 19.1992 55.6328C19.457 55.5182 19.7396 55.4609 20.0469 55.4609C20.5339 55.4609 20.9154 55.5833 21.1914 55.8281C21.4674 56.0703 21.6107 56.4049 21.6211 56.832V58.7773C21.6211 59.1654 21.6706 59.474 21.7695 59.7031V59.7656H21.0117ZM19.8125 59.2148C20.0391 59.2148 20.2539 59.1562 20.457 59.0391C20.6602 58.9219 20.8073 58.7695 20.8984 58.582V57.7148H20.332C19.4466 57.7148 19.0039 57.974 19.0039 58.4922C19.0039 58.7188 19.0794 58.8958 19.2305 59.0234C19.3815 59.151 19.5755 59.2148 19.8125 59.2148Z" fill="#555555"/>
<path d="M24.4492 59.2539C24.707 59.2539 24.9323 59.1758 25.125 59.0195C25.3177 58.8633 25.4245 58.668 25.4453 58.4336H26.1289C26.1159 58.6758 26.0326 58.9062 25.8789 59.125C25.7253 59.3438 25.5195 59.5182 25.2617 59.6484C25.0065 59.7786 24.7357 59.8438 24.4492 59.8438C23.8737 59.8438 23.4154 59.6523 23.0742 59.2695C22.7357 58.8841 22.5664 58.3581 22.5664 57.6914V57.5703C22.5664 57.1589 22.6419 56.793 22.793 56.4727C22.944 56.1523 23.1602 55.9036 23.4414 55.7266C23.7253 55.5495 24.0599 55.4609 24.4453 55.4609C24.9193 55.4609 25.3125 55.6029 25.625 55.8867C25.9401 56.1706 26.1081 56.5391 26.1289 56.9922H25.4453C25.4245 56.7188 25.3203 56.4948 25.1328 56.3203C24.9479 56.1432 24.7188 56.0547 24.4453 56.0547C24.0781 56.0547 23.793 56.1875 23.5898 56.4531C23.3893 56.7161 23.2891 57.0977 23.2891 57.5977V57.7344C23.2891 58.2214 23.3893 58.5964 23.5898 58.8594C23.7904 59.1224 24.0768 59.2539 24.4492 59.2539Z" fill="#555555"/>
<path d="M28.3242 58.707L29.3086 55.5391H30.082L28.3828 60.418C28.1198 61.1211 27.7018 61.4727 27.1289 61.4727L26.9922 61.4609L26.7227 61.4102V60.8242L26.918 60.8398C27.1628 60.8398 27.3529 60.7904 27.4883 60.6914C27.6263 60.5924 27.7396 60.4115 27.8281 60.1484L27.9883 59.7188L26.4805 55.5391H27.2695L28.3242 58.707Z" fill="#555555"/>
<path d="M42.9297 54.6953H41.1016V59.7656H40.3555V54.6953H38.5312V54.0781H42.9297V54.6953Z" fill="#555555"/>
<path d="M45.0234 59.8438C44.4505 59.8438 43.9844 59.6562 43.625 59.2812C43.2656 58.9036 43.0859 58.3997 43.0859 57.7695V57.6367C43.0859 57.2174 43.1654 56.8438 43.3242 56.5156C43.4857 56.1849 43.7096 55.9271 43.9961 55.7422C44.2852 55.5547 44.5977 55.4609 44.9336 55.4609C45.4831 55.4609 45.9102 55.6419 46.2148 56.0039C46.5195 56.3659 46.6719 56.8841 46.6719 57.5586V57.8594H43.8086C43.819 58.276 43.9401 58.6133 44.1719 58.8711C44.4062 59.1263 44.7031 59.2539 45.0625 59.2539C45.3177 59.2539 45.5339 59.2018 45.7109 59.0977C45.888 58.9935 46.043 58.8555 46.1758 58.6836L46.6172 59.0273C46.263 59.5716 45.7318 59.8438 45.0234 59.8438ZM44.9336 56.0547C44.6419 56.0547 44.3971 56.1615 44.1992 56.375C44.0013 56.5859 43.8789 56.8828 43.832 57.2656H45.9492V57.2109C45.9284 56.8438 45.8294 56.5599 45.6523 56.3594C45.4753 56.1562 45.2357 56.0547 44.9336 56.0547Z" fill="#555555"/>
<path d="M49.5547 56.1875C49.4453 56.1693 49.3268 56.1602 49.1992 56.1602C48.7253 56.1602 48.4036 56.362 48.2344 56.7656V59.7656H47.5117V55.5391H48.2148L48.2266 56.0273C48.4635 55.6497 48.7995 55.4609 49.2344 55.4609C49.375 55.4609 49.4818 55.4792 49.5547 55.5156V56.1875Z" fill="#555555"/>
<path d="M50.9023 55.5391L50.9219 56.0078C51.2318 55.6432 51.6497 55.4609 52.1758 55.4609C52.7669 55.4609 53.1693 55.6875 53.3828 56.1406C53.5234 55.9375 53.7057 55.7734 53.9297 55.6484C54.1562 55.5234 54.4232 55.4609 54.7305 55.4609C55.6576 55.4609 56.1289 55.9518 56.1445 56.9336V59.7656H55.4219V56.9766C55.4219 56.6745 55.3529 56.4492 55.2148 56.3008C55.0768 56.1497 54.8451 56.0742 54.5195 56.0742C54.2513 56.0742 54.0286 56.1549 53.8516 56.3164C53.6745 56.4753 53.5716 56.6901 53.543 56.9609V59.7656H52.8164V56.9961C52.8164 56.3815 52.5156 56.0742 51.9141 56.0742C51.4401 56.0742 51.1159 56.276 50.9414 56.6797V59.7656H50.2188V55.5391H50.9023Z" fill="#555555"/>
<path d="M59.6992 58.6445C59.6992 58.4492 59.625 58.2982 59.4766 58.1914C59.3307 58.082 59.0742 57.9883 58.707 57.9102C58.3424 57.832 58.0521 57.7383 57.8359 57.6289C57.6224 57.5195 57.4635 57.3893 57.3594 57.2383C57.2578 57.0872 57.207 56.9076 57.207 56.6992C57.207 56.3529 57.3529 56.0599 57.6445 55.8203C57.9388 55.5807 58.3138 55.4609 58.7695 55.4609C59.2487 55.4609 59.6367 55.5846 59.9336 55.832C60.2331 56.0794 60.3828 56.3958 60.3828 56.7812H59.6562C59.6562 56.5833 59.5716 56.4128 59.4023 56.2695C59.2357 56.1263 59.0247 56.0547 58.7695 56.0547C58.5065 56.0547 58.3008 56.112 58.1523 56.2266C58.0039 56.3411 57.9297 56.4909 57.9297 56.6758C57.9297 56.8503 57.9987 56.9818 58.1367 57.0703C58.2747 57.1589 58.5234 57.2435 58.8828 57.3242C59.2448 57.4049 59.5378 57.5013 59.7617 57.6133C59.9857 57.7253 60.151 57.8607 60.2578 58.0195C60.3672 58.1758 60.4219 58.3672 60.4219 58.5938C60.4219 58.9714 60.2708 59.2747 59.9688 59.5039C59.6667 59.7305 59.2747 59.8438 58.793 59.8438C58.4544 59.8438 58.1549 59.7839 57.8945 59.6641C57.6341 59.5443 57.4297 59.3776 57.2812 59.1641C57.1354 58.9479 57.0625 58.7148 57.0625 58.4648H57.7852C57.7982 58.707 57.8945 58.8997 58.0742 59.043C58.2565 59.1836 58.4961 59.2539 58.793 59.2539C59.0664 59.2539 59.2852 59.1992 59.4492 59.0898C59.6159 58.9779 59.6992 58.8294 59.6992 58.6445Z" fill="#555555"/>
<path d="M35.3281 57.9648H33.2773V57.1992H35.3281V57.9648Z" fill="black"/>
<g filter="url(#filter0_d_0_1069)">
<path d="M44.4012 11.3378C44.2658 11.1691 44.1262 11.0031 43.9826 10.84C41.6878 8.234 38.5217 6.55399 35.0772 6.1147C31.6327 5.67541 28.1462 6.50698 25.2708 8.45365L29.3872 14.5341C30.7832 13.589 32.4759 13.1853 34.1482 13.3985C35.8205 13.6118 37.3577 14.4275 38.4718 15.6927C38.7215 15.9763 38.9461 16.2781 39.1444 16.5947L35.5006 20.2385H47.6099V8.12915L44.4012 11.3378Z" fill="#1C3AA9"/>
</g>
<g filter="url(#filter1_d_0_1069)">
<path d="M33.2385 6.00061H21.1291L24.301 9.17243C21.9308 11.0879 20.227 13.72 19.4568 16.6903C18.5853 20.0516 18.9691 23.6152 20.5364 26.7138L27.0888 23.3996C26.3279 21.8953 26.1415 20.1651 26.5646 18.5333C26.9878 16.9014 27.9913 15.4797 29.3873 14.5346C29.4424 14.4974 29.4979 14.4609 29.5539 14.4253L33.2385 18.1099V6.00061Z" fill="#4285F4"/>
</g>
<g filter="url(#filter2_d_0_1069)">
<path d="M19 20.3716H31.1093L27.4507 24.0302C28.2265 25.2318 29.3592 26.1693 30.6981 26.705C32.2634 27.3311 34.0032 27.3652 35.5917 26.8007C37.1803 26.2362 38.5085 25.112 39.3277 23.6385L44.6238 28.9213C42.9537 31.1132 40.6744 32.7873 38.0504 33.7197C34.7784 34.8824 31.1948 34.8123 27.9708 33.5225C25.7029 32.6152 23.7224 31.1482 22.2016 29.2793L19 32.4809V20.3716Z" fill="#ABABAB"/>
</g>
<defs>
<filter id="filter0_d_0_1069" x="24.2708" y="5" width="24.3391" height="16.2385" filterUnits="userSpaceOnUse" color-interpolation-filters="sRGB">
<feFlood flood-opacity="0" result="BackgroundImageFix"/>
<feColorMatrix in="SourceAlpha" type="matrix" values="0 0 0 0 0 0 0 0 0 0 0 0 0 0 0 0 0 0 127 0" result="hardAlpha"/>
<feOffset/>
<feGaussianBlur stdDeviation="0.5"/>
<feColorMatrix type="matrix" values="0 0 0 0 0 0 0 0 0 0 0 0 0 0 0 0 0 0 0.38 0"/>
<feBlend mode="normal" in2="BackgroundImageFix" result="effect1_dropShadow_0_1069"/>
<feBlend mode="normal" in="SourceGraphic" in2="effect1_dropShadow_0_1069" result="shape"/>
</filter>
<filter id="filter1_d_0_1069" x="18" y="5.00061" width="16.2385" height="22.7132" filterUnits="userSpaceOnUse" color-interpolation-filters="sRGB">
<feFlood flood-opacity="0" result="BackgroundImageFix"/>
<feColorMatrix in="SourceAlpha" type="matrix" values="0 0 0 0 0 0 0 0 0 0 0 0 0 0 0 0 0 0 127 0" result="hardAlpha"/>
<feOffset/>
<feGaussianBlur stdDeviation="0.5"/>
<feColorMatrix type="matrix" values="0 0 0 0 0 0 0 0 0 0 0 0 0 0 0 0 0 0 0.38 0"/>
<feBlend mode="normal" in2="BackgroundImageFix" result="effect1_dropShadow_0_1069"/>
<feBlend mode="normal" in="SourceGraphic" in2="effect1_dropShadow_0_1069" result="shape"/>
</filter>
<filter id="filter2_d_0_1069" x="18" y="19.3716" width="27.6238" height="16.1719" filterUnits="userSpaceOnUse" color-interpolation-filters="sRGB">
<feFlood flood-opacity="0" result="BackgroundImageFix"/>
<feColorMatrix in="SourceAlpha" type="matrix" values="0 0 0 0 0 0 0 0 0 0 0 0 0 0 0 0 0 0 127 0" result="hardAlpha"/>
<feOffset/>
<feGaussianBlur stdDeviation="0.5"/>
<feColorMatrix type="matrix" values="0 0 0 0 0 0 0 0 0 0 0 0 0 0 0 0 0 0 0.38 0"/>
<feBlend mode="normal" in2="BackgroundImageFix" result="effect1_dropShadow_0_1069"/>
<feBlend mode="normal" in="SourceGraphic" in2="effect1_dropShadow_0_1069" result="shape"/>
</filter>
</defs>
</svg>
