<svg width="110" height="117" viewBox="0 0 110 117" fill="none" xmlns="http://www.w3.org/2000/svg">
<path d="M10.5998 96.7678C10.5485 96.8229 10.5131 96.8889 10.4651 96.9459C10.4119 96.9991 10.351 97.036 10.2997 97.0913C10.2862 97.1061 10.277 97.1252 10.2631 97.1401C10.2492 97.1549 10.2316 97.1646 10.2177 97.1805C10.0863 97.3344 9.96377 97.4956 9.85043 97.6632C9.69355 97.7865 9.5439 97.9187 9.40225 98.0592C9.34985 98.1144 9.3154 98.1803 9.26637 98.2373C9.21249 98.2894 9.15181 98.3274 9.10075 98.3826C9.05159 98.4358 9.01899 98.4984 8.97171 98.5527C8.92146 98.6036 8.86396 98.6386 8.81412 98.6915C8.72063 98.7923 8.65351 98.9091 8.56879 99.0148C8.47046 99.1071 8.36116 99.1793 8.26768 99.28C8.16127 99.3948 8.08341 99.5273 7.98697 99.6505C7.87355 99.7535 7.75031 99.8373 7.6439 99.9518C7.54247 100.061 7.46964 100.187 7.37805 100.303C7.27029 100.402 7.15246 100.481 7.05103 100.591C7.01856 100.625 6.99716 100.666 6.96631 100.702C6.93385 100.735 6.89539 100.758 6.86266 100.793C6.85888 100.798 6.85696 100.803 6.85305 100.807C6.84915 100.811 6.84408 100.813 6.8395 100.818C6.79141 100.87 6.7598 100.93 6.71454 100.982C6.66618 101.031 6.61004 101.066 6.56181 101.117C6.54834 101.131 6.53912 101.15 6.52524 101.165C6.51137 101.181 6.49387 101.19 6.47986 101.205C6.40914 101.281 6.36065 101.37 6.29465 101.449C6.22177 101.52 6.13911 101.572 6.06826 101.648C5.9974 101.725 5.95084 101.811 5.88686 101.888C5.81398 101.957 5.73311 102.01 5.66442 102.084C5.61215 102.14 5.57757 102.206 5.5284 102.263C5.47519 102.315 5.41397 102.353 5.36278 102.408C5.35093 102.421 5.34306 102.437 5.33135 102.45C5.31963 102.462 5.30374 102.472 5.29188 102.486C5.25457 102.525 5.22983 102.573 5.19441 102.613C5.15709 102.651 5.11279 102.678 5.07615 102.717C4.98186 102.818 4.91568 102.935 4.83082 103.04C4.73249 103.133 4.62427 103.205 4.52971 103.306C4.4233 103.42 4.34542 103.553 4.24992 103.675C4.13663 103.778 4.01355 103.863 3.90619 103.977C3.80476 104.087 3.73183 104.213 3.63916 104.329C3.53288 104.427 3.41462 104.507 3.31319 104.616C3.27776 104.655 3.25309 104.701 3.21887 104.742C3.18142 104.779 3.13909 104.805 3.10259 104.843C3.0545 104.894 3.02288 104.956 2.97749 105.008C2.9294 105.057 2.87325 105.091 2.8249 105.143C2.74111 105.234 2.68097 105.34 2.60311 105.436C2.51461 105.518 2.41594 105.583 2.33121 105.674C2.20721 105.822 2.09087 105.976 1.98262 106.135C1.83356 106.253 1.69086 106.378 1.5551 106.511C-0.518365 108.744 -0.518365 112.366 1.5551 114.598C3.62856 116.831 6.98824 116.832 9.06076 114.598C9.26117 114.27 9.52537 113.986 9.8378 113.762C9.92266 113.671 9.98267 113.565 10.0596 113.469C10.1483 113.385 10.2468 113.321 10.3315 113.229C10.3789 113.178 10.4115 113.118 10.4567 113.066C10.5049 113.017 10.5609 112.982 10.6094 112.931C10.6449 112.892 10.6695 112.845 10.7038 112.806C10.7411 112.768 10.7845 112.742 10.8198 112.703C10.9213 112.594 10.9949 112.467 11.0867 112.352C11.1944 112.253 11.3113 112.175 11.4128 112.065C11.5191 111.95 11.5969 111.817 11.6924 111.695C11.8068 111.592 11.9299 111.508 12.0362 111.393C12.1305 111.292 12.1968 111.175 12.2815 111.069C12.381 110.978 12.4893 110.905 12.5829 110.805C12.6192 110.765 12.6439 110.718 12.6794 110.677C12.7167 110.639 12.761 110.613 12.7977 110.572C12.8105 110.559 12.8183 110.543 12.8302 110.53C12.842 110.516 12.8578 110.509 12.8696 110.496C12.9208 110.44 12.9562 110.374 13.0043 110.318C13.0574 110.264 13.1185 110.226 13.1697 110.171C13.2397 110.097 13.2869 110.009 13.3521 109.931C13.4239 109.862 13.5058 109.81 13.5745 109.736C13.6431 109.662 13.6938 109.57 13.7597 109.492C13.8325 109.421 13.9152 109.369 13.9853 109.292C13.9999 109.278 14.009 109.258 14.0228 109.244C14.0365 109.229 14.0543 109.219 14.068 109.204C14.1154 109.152 14.1468 109.092 14.1921 109.04C14.2414 108.991 14.2976 108.956 14.346 108.905C14.3497 108.901 14.3518 108.896 14.3556 108.892C14.3593 108.888 14.3645 108.885 14.3691 108.881C14.4016 108.846 14.4223 108.805 14.4538 108.769C14.4863 108.736 14.5246 108.712 14.5572 108.678C14.6587 108.569 14.7324 108.442 14.8233 108.327C14.9311 108.227 15.0489 108.149 15.1504 108.039C15.2568 107.924 15.3345 107.791 15.4301 107.669C15.5434 107.566 15.6665 107.482 15.7739 107.368C15.8674 107.267 15.9345 107.149 16.0191 107.043C16.1175 106.952 16.2268 106.879 16.3203 106.779C16.3696 106.726 16.4021 106.663 16.4494 106.609C16.4996 106.558 16.5571 106.523 16.6069 106.47C16.6583 106.414 16.6937 106.349 16.7416 106.292C16.7949 106.238 16.8559 106.202 16.9071 106.145C17.0383 105.991 17.1606 105.829 17.2735 105.661C17.4307 105.538 17.5807 105.407 17.7227 105.266C17.7375 105.252 17.7465 105.234 17.7602 105.218C17.7739 105.202 17.7917 105.193 17.8055 105.178C17.8566 105.122 17.8911 105.057 17.9402 105C17.994 104.947 18.0543 104.91 18.1056 104.855C20.1791 102.621 20.1791 98.9997 18.1056 96.767C16.0322 94.5343 12.6732 94.5336 10.5998 96.7678Z" fill="#9B8FCC"/>
<path d="M70.8273 96.768C70.776 96.8231 70.7405 96.8891 70.6913 96.9461C70.639 96.9992 70.5778 97.0362 70.5266 97.0915C70.512 97.1063 70.504 97.1244 70.4903 97.1403C70.4766 97.1562 70.4587 97.1648 70.4437 97.1807C70.3125 97.3348 70.1902 97.4963 70.0774 97.6645C69.9201 97.7873 69.7701 97.9193 69.6281 98.0595C69.577 98.1147 69.5425 98.1807 69.4934 98.2366C69.4402 98.2898 69.3791 98.3267 69.328 98.383C69.2787 98.4362 69.2453 98.4988 69.1989 98.5531C69.1477 98.604 69.0894 98.6389 69.0401 98.6918C68.9467 98.7926 68.8806 98.9105 68.7951 99.0165C68.6966 99.1078 68.5881 99.18 68.4946 99.2808C68.3869 99.3955 68.3094 99.5281 68.2139 99.6512C68.1006 99.7542 67.9775 99.8381 67.8702 99.9526C67.7688 100.062 67.6958 100.188 67.6042 100.304C67.4964 100.403 67.3794 100.482 67.278 100.591C67.2456 100.625 67.2248 100.667 67.1933 100.703C67.1609 100.736 67.1226 100.759 67.0899 100.794C67.086 100.798 67.083 100.804 67.0791 100.808C67.0752 100.812 67.0702 100.814 67.0663 100.818C67.0189 100.87 66.9875 100.931 66.9421 100.983C66.893 101.032 66.8367 101.067 66.7893 101.118C66.7758 101.132 66.7667 101.15 66.7521 101.166C66.7374 101.182 66.7214 101.191 66.7068 101.206C66.6368 101.282 66.5874 101.371 66.5225 101.45C66.4487 101.521 66.3659 101.573 66.2959 101.649C66.2258 101.725 66.1787 101.811 66.1137 101.889C66.0417 101.958 65.9609 102.01 65.891 102.084C65.8398 102.141 65.8053 102.206 65.7563 102.264C65.7031 102.316 65.6421 102.353 65.5909 102.409C65.5781 102.422 65.5701 102.438 65.5584 102.451C65.5467 102.465 65.5315 102.472 65.519 102.486C65.4825 102.526 65.458 102.573 65.4224 102.614C65.3851 102.652 65.3407 102.678 65.3034 102.718C65.2107 102.819 65.1436 102.935 65.058 103.041C64.9596 103.133 64.8511 103.206 64.7576 103.306C64.6512 103.421 64.5724 103.554 64.4769 103.676C64.3636 103.779 64.2405 103.863 64.1341 103.978C64.0326 104.087 63.959 104.214 63.8673 104.329C63.7595 104.428 63.6427 104.508 63.5413 104.617C63.5048 104.655 63.4812 104.702 63.4457 104.742C63.4092 104.779 63.3658 104.806 63.3295 104.844C63.2821 104.895 63.2507 104.957 63.2054 105.009C63.1562 105.058 63.1 105.091 63.0528 105.143C62.9679 105.235 62.9088 105.341 62.831 105.436C62.7422 105.519 62.6438 105.584 62.5591 105.675C62.4345 105.822 62.3176 105.976 62.2088 106.136C62.0598 106.253 61.9172 106.379 61.7814 106.511C59.709 108.745 59.709 112.366 61.7814 114.599C63.8538 116.832 67.2156 116.833 69.2882 114.599C69.4125 114.452 69.5288 114.298 69.6368 114.138C69.7863 114.021 69.9293 113.896 70.0653 113.763C70.1491 113.671 70.2092 113.565 70.2871 113.47C70.3756 113.386 70.4742 113.322 70.559 113.23C70.6062 113.179 70.6377 113.119 70.683 113.065C70.7323 113.017 70.7883 112.983 70.8356 112.932C70.8721 112.892 70.8957 112.846 70.9312 112.806C70.9668 112.767 71.0111 112.743 71.0475 112.703C71.1489 112.596 71.2218 112.468 71.3134 112.353C71.4211 112.254 71.538 112.175 71.6396 112.065C71.7474 111.95 71.8248 111.817 71.9203 111.695C72.0336 111.592 72.1567 111.508 72.264 111.394C72.3575 111.292 72.4244 111.175 72.5091 111.069C72.6076 110.978 72.7161 110.906 72.8096 110.805C72.847 110.766 72.8716 110.718 72.907 110.678C72.9445 110.638 72.9878 110.613 73.0253 110.572C73.0373 110.56 73.045 110.544 73.0578 110.53C73.0706 110.517 73.0847 110.509 73.0972 110.496C73.1484 110.44 73.183 110.374 73.2319 110.318C73.2858 110.265 73.3465 110.227 73.3976 110.171C73.4665 110.097 73.5147 110.009 73.5797 109.932C73.6515 109.861 73.7324 109.81 73.8015 109.736C73.8706 109.662 73.9207 109.571 73.9867 109.492C74.0596 109.421 74.1421 109.369 74.2133 109.293C74.2267 109.278 74.2369 109.259 74.2506 109.244C74.2644 109.229 74.2812 109.219 74.296 109.205C74.3433 109.153 74.3748 109.092 74.4201 109.039C74.4694 108.992 74.5255 108.956 74.5728 108.905C74.5763 108.901 74.5797 108.897 74.5826 108.892C74.5875 108.888 74.5924 108.886 74.5961 108.881C74.6285 108.846 74.6499 108.805 74.6808 108.769C74.7132 108.736 74.7517 108.713 74.7844 108.679C74.8859 108.569 74.9587 108.442 75.0503 108.327C75.158 108.228 75.2748 108.149 75.3762 108.04C75.484 107.924 75.5615 107.792 75.657 107.669C75.7704 107.566 75.8935 107.483 76.0011 107.368C76.0944 107.267 76.1613 107.149 76.246 107.043C76.3446 106.952 76.453 106.88 76.5466 106.779C76.5958 106.726 76.6293 106.664 76.6756 106.609C76.7268 106.558 76.7849 106.523 76.8342 106.47C76.8853 106.414 76.9198 106.349 76.9689 106.292C77.0221 106.239 77.0833 106.202 77.1345 106.145C77.2653 105.991 77.3876 105.829 77.5008 105.661C77.658 105.539 77.808 105.407 77.95 105.267C77.9635 105.252 77.9727 105.234 77.9875 105.218C78.0024 105.202 78.018 105.194 78.0328 105.179C78.084 105.122 78.1185 105.057 78.1675 105C78.2196 104.947 78.2807 104.91 78.3328 104.855C80.4054 102.621 80.4054 99.0002 78.3328 96.7675C76.2603 94.5348 72.8994 94.5338 70.8273 96.768Z" fill="#9B8FCC"/>
<path d="M10.6002 33.391C10.5489 33.4462 10.5144 33.5121 10.4655 33.5691C10.4123 33.6212 10.3514 33.6595 10.3 33.7144C10.2866 33.7292 10.2773 33.7473 10.2635 33.7634C10.2496 33.7794 10.232 33.7877 10.2181 33.8026C10.087 33.9571 9.96438 34.1186 9.85082 34.2865C9.69424 34.4097 9.5446 34.5416 9.40265 34.6814C9.35025 34.7377 9.31579 34.8034 9.26676 34.8595C9.21288 34.9127 9.1522 34.951 9.10115 35.0059C9.05009 35.0609 9.01938 35.1217 8.9721 35.176C8.92186 35.2269 8.86435 35.2619 8.81451 35.3148C8.72103 35.4156 8.65391 35.5324 8.56918 35.6381C8.46991 35.7305 8.36142 35.8026 8.26808 35.9033C8.16166 36.0181 8.08378 36.1507 7.98828 36.2727C7.87392 36.3767 7.75071 36.4613 7.64429 36.5753C7.54286 36.6846 7.46925 36.8109 7.37752 36.9265C7.26976 37.0251 7.15298 37.1047 7.05155 37.214C7.01909 37.2491 6.99768 37.2895 6.96684 37.3256C6.93437 37.3585 6.89591 37.3817 6.86318 37.4168C6.85941 37.4211 6.85735 37.4263 6.85358 37.4302C6.84981 37.4341 6.84461 37.4365 6.84003 37.4406C6.79194 37.4927 6.76032 37.5531 6.71493 37.6053C6.66671 37.6539 6.61056 37.6878 6.56234 37.74C6.54887 37.7546 6.53964 37.7729 6.52577 37.7888C6.51189 37.8047 6.49439 37.8133 6.48039 37.828C6.40967 37.9043 6.36117 37.9936 6.29517 38.0722C6.2223 38.1434 6.13964 38.1953 6.06878 38.2715C5.99793 38.3478 5.95137 38.434 5.88738 38.5115C5.81451 38.5816 5.73364 38.6327 5.66481 38.7067C5.61268 38.763 5.57809 38.8278 5.52892 38.8849C5.47572 38.938 5.41544 38.9753 5.36331 39.0315C5.35146 39.0443 5.34359 39.0601 5.33187 39.0737C5.32015 39.0873 5.30426 39.095 5.29241 39.1076C5.25509 39.148 5.23036 39.1948 5.1948 39.2361C5.15762 39.2743 5.11331 39.3009 5.07667 39.3402C4.98238 39.441 4.91621 39.5577 4.83134 39.6634C4.73301 39.7557 4.62359 39.8278 4.53024 39.9286C4.42382 40.0432 4.34595 40.1759 4.25044 40.298C4.13716 40.4018 4.01407 40.4848 3.90672 40.6005C3.80529 40.7098 3.73236 40.836 3.63968 40.9516C3.53327 41.0504 3.41514 41.1299 3.31371 41.2392C3.27829 41.2774 3.25361 41.3241 3.2194 41.3645C3.18195 41.4016 3.13962 41.4272 3.10311 41.4664C3.05502 41.5183 3.02341 41.5789 2.97801 41.631C2.92992 41.6798 2.87378 41.7138 2.82542 41.7657C2.74164 41.856 2.68149 41.9621 2.60364 42.0576C2.515 42.1414 2.41646 42.2057 2.33173 42.2973C2.20716 42.4447 2.09032 42.5986 1.98156 42.758C1.83286 42.8756 1.6905 43.0009 1.5551 43.1335C-0.518365 45.3676 -0.518365 48.9885 1.5551 51.2213C3.62856 53.4541 6.98824 53.4553 9.06076 51.2213C9.18559 51.0741 9.30245 50.9204 9.41093 50.7608C9.56019 50.6429 9.70286 50.5171 9.83832 50.3836C9.92318 50.2935 9.98317 50.1862 10.061 50.0907C10.1487 50.008 10.2471 49.9431 10.3319 49.8519C10.3793 49.801 10.4107 49.7405 10.4561 49.6885C10.5052 49.6396 10.5613 49.6046 10.6098 49.5538C10.6453 49.5146 10.6699 49.4678 10.7041 49.4286C10.7415 49.3905 10.7849 49.3649 10.8202 49.3256C10.9217 49.2164 10.9953 49.09 11.0871 48.9745C11.1948 48.8758 11.3116 48.7973 11.4132 48.6877C11.5195 48.5723 11.5973 48.4395 11.6928 48.3176C11.8072 48.2145 11.9303 48.1306 12.0366 48.015C12.1309 47.9154 12.1972 47.7986 12.2819 47.6918C12.3802 47.5996 12.4896 47.5273 12.5833 47.4265C12.6196 47.3861 12.6443 47.3396 12.6798 47.2992C12.7154 47.2588 12.7614 47.2346 12.7981 47.1941C12.8109 47.1814 12.8187 47.1654 12.8306 47.1517C12.8424 47.138 12.8582 47.1306 12.87 47.1167C12.9212 47.0616 12.9566 46.9954 13.0047 46.9385C13.0579 46.8865 13.119 46.8482 13.1702 46.793C13.2403 46.7188 13.2875 46.6307 13.3527 46.5544C13.4245 46.4843 13.5061 46.4325 13.575 46.358C13.646 46.2817 13.6943 46.1924 13.7602 46.1129C13.8331 46.0427 13.9157 45.9898 13.9858 45.9144C14.0005 45.8997 14.0095 45.8804 14.0231 45.8657C14.0368 45.851 14.0547 45.8411 14.0685 45.8264C14.1159 45.7743 14.1473 45.714 14.1926 45.6618C14.2419 45.6131 14.2981 45.5779 14.3465 45.5271C14.3503 45.5231 14.3523 45.5178 14.3561 45.5137C14.3599 45.5097 14.3651 45.5062 14.3696 45.5019C14.4021 45.4679 14.4228 45.4266 14.4544 45.3906C14.4868 45.3577 14.525 45.3343 14.5577 45.3003C14.6592 45.191 14.7321 45.0647 14.8239 44.949C14.9316 44.8505 15.0484 44.7709 15.1509 44.6614C15.2573 44.546 15.335 44.4132 15.4316 44.2911C15.5449 44.1882 15.668 44.1043 15.7744 43.9886C15.8679 43.8889 15.9349 43.7722 16.0196 43.6659C16.1181 43.5735 16.2264 43.5013 16.3208 43.4006C16.3701 43.3475 16.4026 43.285 16.4499 43.2308C16.5001 43.1798 16.5576 43.1437 16.6075 43.0917C16.6588 43.0355 16.6942 42.9698 16.7422 42.9126C16.7954 42.8604 16.8565 42.8222 16.9077 42.7671C17.1183 42.4228 17.3955 42.1241 17.7232 41.8885C17.7379 41.8737 17.747 41.8545 17.7607 41.8397C17.7745 41.8249 17.7922 41.8152 17.806 41.8003C17.8572 41.744 17.8916 41.6791 17.9407 41.6221C17.9946 41.569 18.0548 41.532 18.1062 41.4756C20.1796 39.2429 20.1796 35.6219 18.1062 33.389C16.0327 31.156 12.6736 31.1575 10.6002 33.391Z" fill="#9B8FCC"/>
<path d="M40.713 65.0516C40.6618 65.1067 40.6264 65.1728 40.5783 65.2296C40.5251 65.2828 40.4641 65.3199 40.4129 65.3751C40.3995 65.3899 40.3903 65.4091 40.3754 65.4239C40.3606 65.4387 40.3449 65.4483 40.3302 65.4643C40.1996 65.619 40.0773 65.7805 39.9637 65.9481C39.8065 66.071 39.6566 66.2029 39.5146 66.3431C39.4634 66.3984 39.4289 66.4643 39.3799 66.5212C39.326 66.5734 39.2655 66.6115 39.2143 66.6666C39.1631 66.7217 39.1316 66.7824 39.0853 66.8366C39.035 66.8876 38.9759 66.9225 38.9277 66.9755C38.8342 67.0762 38.7672 67.194 38.6814 67.3001C38.5829 67.3916 38.4747 67.4636 38.3811 67.5644C38.2748 67.6801 38.196 67.8129 38.1004 67.9348C37.9871 68.0379 37.864 68.1217 37.7577 68.2362C37.6561 68.3457 37.5825 68.4718 37.4907 68.5886C37.3829 68.6863 37.2661 68.7657 37.1646 68.8751C37.1321 68.9101 37.1115 68.9514 37.08 68.9865C37.0485 69.0217 37.0091 69.0428 36.9766 69.0778C36.9727 69.082 36.9696 69.0873 36.9657 69.0912C36.9618 69.0951 36.9568 69.0988 36.9521 69.1031C36.9049 69.154 36.8733 69.2145 36.8281 69.2666C36.78 69.3153 36.7229 69.3505 36.6755 69.4013C36.662 69.416 36.6528 69.4351 36.6391 69.4498C36.6253 69.4645 36.6074 69.4743 36.5937 69.4902C36.5227 69.5655 36.4734 69.6547 36.4085 69.7344C36.3344 69.8045 36.2519 69.8573 36.1818 69.9327C36.1118 70.0082 36.0647 70.0951 36.0007 70.1725C35.9277 70.2415 35.8468 70.2938 35.777 70.3689C35.7257 70.4242 35.6912 70.4902 35.6423 70.5472C35.5885 70.5993 35.528 70.6374 35.4767 70.6927C35.465 70.7061 35.4572 70.7222 35.4445 70.7349C35.4318 70.7475 35.4176 70.7561 35.4052 70.77C35.3687 70.8092 35.3439 70.8571 35.3083 70.8972C35.2728 70.9374 35.2267 70.9621 35.1901 71.0013C35.0967 71.1022 35.0299 71.219 34.9441 71.326C34.8456 71.4174 34.7373 71.4896 34.6437 71.5903C34.5372 71.7049 34.4595 71.8376 34.3629 71.9607C34.2497 72.0637 34.1265 72.1474 34.0201 72.2619C33.9187 72.3714 33.845 72.4987 33.7532 72.6143C33.6455 72.7129 33.5286 72.7914 33.4271 72.9008C33.3908 72.94 33.3672 72.9856 33.3328 73.0261C33.2955 73.0641 33.2521 73.0898 33.2168 73.1281C33.1686 73.1801 33.1371 73.2405 33.0917 73.2925C33.0435 73.3414 32.9863 73.3763 32.9388 73.4272C32.8541 73.5184 32.7953 73.6245 32.7173 73.72C32.6287 73.8029 32.53 73.8683 32.4453 73.9589C32.3208 74.1063 32.2039 74.2601 32.0951 74.4194C31.9462 74.5373 31.8038 74.6632 31.6686 74.7966C29.5952 77.0294 29.5952 80.6505 31.6686 82.8833C33.7421 85.1161 37.1018 85.1172 39.1742 82.8833C39.2986 82.7358 39.4156 82.5821 39.5245 82.4227C39.6734 82.305 39.8161 82.1796 39.952 82.0471C40.0366 81.9557 40.0955 81.8496 40.1735 81.7541C40.2622 81.6703 40.3608 81.6059 40.4456 81.5154C40.4928 81.4632 40.5243 81.4028 40.5696 81.3508C40.6189 81.302 40.675 81.2681 40.7223 81.2161C40.7587 81.1768 40.7824 81.1311 40.8178 81.0906C40.8543 81.0536 40.8976 81.0269 40.9341 80.9888C41.0355 80.8794 41.1092 80.7522 41.2 80.6377C41.3077 80.5379 41.4256 80.4592 41.527 80.3499C41.6334 80.2343 41.7113 80.1015 41.8068 79.9794C41.9211 79.8765 42.0433 79.7928 42.1506 79.6783C42.2449 79.5774 42.3111 79.4597 42.3958 79.3535C42.4943 79.2624 42.6026 79.1902 42.6972 79.0893C42.7337 79.0501 42.7583 79.0022 42.7938 78.9619C42.8312 78.9237 42.8755 78.8972 42.9119 78.8568C42.9247 78.844 42.9327 78.8282 42.9445 78.8146C42.9564 78.801 42.9714 78.7933 42.9838 78.7807C43.035 78.7254 43.0695 78.6594 43.1185 78.6023C43.1717 78.5492 43.2327 78.5121 43.2839 78.4559C43.353 78.3815 43.4013 78.2942 43.4663 78.216C43.5383 78.147 43.6191 78.0947 43.6891 78.0207C43.759 77.9444 43.8082 77.8553 43.8729 77.7767C43.947 77.7056 44.0297 77.6536 44.0997 77.577C44.1144 77.5624 44.1234 77.5443 44.137 77.5285C44.1506 77.5127 44.1686 77.504 44.1825 77.4893C44.2298 77.4372 44.2613 77.3766 44.3067 77.3245C44.3557 77.2758 44.4118 77.2419 44.4592 77.1898C44.4631 77.1856 44.4661 77.1804 44.4702 77.1764C44.4742 77.1723 44.4787 77.17 44.4829 77.1658C44.5154 77.1308 44.5361 77.0893 44.5675 77.0543C44.5989 77.0193 44.6386 76.9981 44.6712 76.9631C44.7726 76.8537 44.8455 76.7275 44.9371 76.6118C45.0449 76.5132 45.1617 76.4336 45.2631 76.3242C45.3709 76.2096 45.4483 76.0769 45.5438 75.9538C45.6571 75.8509 45.7802 75.767 45.8876 75.6524C45.9818 75.5515 46.0482 75.4339 46.1329 75.3278C46.2314 75.2366 46.3397 75.1642 46.4333 75.0634C46.4825 75.0103 46.5159 74.9479 46.5624 74.8937C46.6136 74.8427 46.6717 74.8077 46.7209 74.7546C46.7722 74.6995 46.8066 74.6335 46.8556 74.5765C46.9088 74.5233 46.9698 74.4863 47.0211 74.4301C47.1524 74.2763 47.2749 74.115 47.3877 73.9471C47.5446 73.8236 47.6945 73.6915 47.8368 73.5514C47.8503 73.5364 47.8604 73.5183 47.874 73.5024C47.8876 73.4866 47.9047 73.4781 47.9194 73.4632C47.9707 73.408 48.0052 73.3421 48.0541 73.2851C48.108 73.2319 48.1687 73.1947 48.2197 73.1398C50.2921 70.9058 50.2921 67.2847 48.2197 65.052C46.1473 62.8193 42.7854 62.8188 40.713 65.0516Z" fill="#9B8FCC"/>
<path d="M40.7125 1.675C40.6613 1.73023 40.6257 1.79627 40.5778 1.85338C40.5246 1.90645 40.4636 1.94338 40.4124 1.99847C40.3989 2.01329 40.3896 2.03246 40.3749 2.04728C40.3602 2.06209 40.3444 2.07176 40.3295 2.08766C40.1991 2.24211 40.0768 2.40325 39.9632 2.57043C39.8063 2.69396 39.6563 2.82618 39.5141 2.96638C39.4629 3.02161 39.4284 3.08764 39.3794 3.14475C39.3255 3.19675 39.265 3.23475 39.2138 3.28998C39.1646 3.34305 39.1311 3.40565 39.0847 3.45993C39.0345 3.51085 38.9754 3.54698 38.9271 3.59897C38.8337 3.6996 38.7668 3.8163 38.6821 3.92218C38.5836 4.01458 38.4742 4.08675 38.3806 4.18737C38.2728 4.30214 38.1954 4.4359 38.0999 4.5578C37.9866 4.66085 37.8635 4.74467 37.7571 4.85917C37.6556 4.96868 37.5819 5.09482 37.4901 5.21053C37.3824 5.30913 37.2656 5.38884 37.164 5.49808C37.1316 5.53311 37.111 5.57354 37.0795 5.6095C37.0479 5.64547 37.0085 5.66577 36.9761 5.70079C36.9722 5.70497 36.9691 5.7103 36.9652 5.71421C36.9612 5.71812 36.9563 5.72187 36.9516 5.72605C36.9043 5.77697 36.8728 5.8373 36.8276 5.88943C36.7783 5.93819 36.7221 5.97335 36.6748 6.02413C36.6614 6.03881 36.6523 6.05799 36.6385 6.07267C36.6248 6.08735 36.6069 6.09732 36.5931 6.112C36.5222 6.18838 36.4727 6.27761 36.4079 6.35628C36.3338 6.4274 36.2523 6.47933 36.1813 6.5557C36.1123 6.63006 36.0642 6.71738 35.9991 6.79551C35.9272 6.86569 35.8463 6.91674 35.7765 6.99177C35.7252 7.047 35.6907 7.11303 35.6418 7.17015C35.5879 7.22214 35.5275 7.26027 35.4762 7.3155C35.4645 7.3283 35.4566 7.34412 35.444 7.35773C35.4313 7.37133 35.417 7.37911 35.4045 7.39298C35.368 7.43231 35.3434 7.47991 35.3078 7.52018C35.2705 7.55831 35.2262 7.5849 35.1896 7.62424C35.0962 7.72499 35.0292 7.8417 34.9446 7.94744C34.846 8.03971 34.7367 8.11201 34.6431 8.21277C34.5367 8.3274 34.4579 8.46116 34.3624 8.5832C34.2491 8.68611 34.126 8.7698 34.0196 8.88443C33.9182 8.99381 33.8444 9.12008 33.7527 9.23566C33.6449 9.33439 33.528 9.41397 33.4266 9.52321C33.3902 9.56255 33.3666 9.60803 33.3323 9.64858C33.295 9.68562 33.2516 9.7124 33.2163 9.75052C33.168 9.80252 33.1366 9.86296 33.0912 9.91495C33.0429 9.96385 32.9857 9.99779 32.9383 10.0497C32.8536 10.1408 32.7936 10.247 32.7168 10.3425C32.6282 10.4264 32.5295 10.4907 32.4448 10.5814C32.3205 10.7286 32.2041 10.8824 32.096 11.0419C31.9469 11.1593 31.8042 11.2847 31.6686 11.4176C29.5952 13.6515 29.5952 17.2725 31.6686 19.5053C33.7421 21.7382 37.1018 21.7392 39.1742 19.5053C39.2986 19.3579 39.4156 19.2042 39.5245 19.0448C39.6734 18.9271 39.8161 18.8017 39.952 18.6691C40.0366 18.5778 40.0955 18.4715 40.1735 18.376C40.2622 18.2922 40.3608 18.2279 40.4456 18.1374C40.4928 18.0854 40.5253 18.0249 40.5707 17.9718C40.6189 17.9229 40.675 17.8891 40.7223 17.8381C40.7587 17.7999 40.7824 17.7532 40.8178 17.7128C40.8543 17.6757 40.8976 17.6491 40.9341 17.6108C41.0355 17.5016 41.1092 17.3752 41.2 17.2586C41.3077 17.1609 41.4257 17.0814 41.5271 16.9721C41.6335 16.8573 41.7111 16.7237 41.8068 16.6018C41.9211 16.4986 42.0433 16.4149 42.1506 16.3004C42.2441 16.1996 42.3112 16.0817 42.3969 15.9756C42.4954 15.8844 42.6036 15.8122 42.6972 15.7115C42.7337 15.6721 42.7583 15.6243 42.7938 15.584C42.8312 15.5457 42.8755 15.5194 42.9119 15.4801C42.9247 15.4666 42.9327 15.4503 42.9445 15.4367C42.9564 15.4231 42.9714 15.4154 42.9838 15.4027C43.035 15.3464 43.0695 15.2815 43.1185 15.2244C43.1717 15.1713 43.2328 15.1342 43.284 15.0779C43.3541 15.0037 43.4011 14.9156 43.4663 14.8381C43.5383 14.769 43.6191 14.7169 43.6891 14.6429C43.759 14.5665 43.8083 14.4784 43.8731 14.3989C43.9472 14.3278 44.0297 14.2757 44.0997 14.1994C44.1144 14.1845 44.1234 14.1666 44.1371 14.1507C44.1508 14.1348 44.1686 14.1262 44.1825 14.1115C44.2298 14.0606 44.2613 13.9989 44.3067 13.9468C44.3557 13.898 44.4118 13.8641 44.4592 13.8121C44.4631 13.808 44.4661 13.8027 44.47 13.7987C44.4739 13.7946 44.4787 13.7922 44.4828 13.788C44.5154 13.753 44.5367 13.7118 44.5675 13.6766C44.5984 13.6414 44.6386 13.6193 44.6712 13.5853C44.7726 13.4761 44.8462 13.3486 44.9379 13.2329C45.0457 13.1344 45.1615 13.0559 45.263 12.9464C45.3707 12.8318 45.4482 12.6992 45.5437 12.5772C45.657 12.4732 45.7801 12.3892 45.8874 12.2746C45.9817 12.174 46.048 12.0561 46.1328 11.9499C46.2312 11.8586 46.3396 11.7866 46.4332 11.6858C46.4824 11.6326 46.5158 11.5701 46.5622 11.5159C46.6134 11.4649 46.6716 11.4299 46.7208 11.3769C46.7719 11.3217 46.8064 11.2558 46.8555 11.1987C46.9087 11.1455 46.9696 11.1086 47.0209 11.0533C47.1521 10.8984 47.2748 10.7365 47.3885 10.5683C47.5451 10.4452 47.6948 10.3134 47.8367 10.1736C47.8501 10.1586 47.8592 10.1406 47.8731 10.1258C47.887 10.111 47.9046 10.1004 47.9193 10.0854C47.9707 10.0303 48.0052 9.96417 48.054 9.90719C48.1078 9.85398 48.1684 9.81719 48.2196 9.76197C50.292 7.52808 50.292 3.90703 48.2196 1.67422C46.1472 -0.558598 42.7848 -0.557809 40.7125 1.675Z" fill="#9B8FCC"/>
<path d="M70.8268 33.3908C70.7756 33.446 70.74 33.5119 70.692 33.5689C70.6382 33.621 70.5775 33.6591 70.5264 33.7142C70.5118 33.729 70.5039 33.7472 70.4901 33.7621C70.4764 33.7771 70.4586 33.7874 70.4437 33.8025C70.2339 34.1474 69.9564 34.4464 69.628 34.6812C69.5768 34.7375 69.5423 34.8023 69.4933 34.8593C69.4402 34.9125 69.3791 34.9496 69.3279 35.0057C69.2786 35.0589 69.2452 35.1215 69.1989 35.1758C69.1477 35.2267 69.0894 35.2617 69.0401 35.3146C68.9466 35.4154 68.8798 35.5332 68.795 35.6394C68.6966 35.7307 68.5881 35.8028 68.4946 35.9035C68.3882 36.0183 68.3103 36.1509 68.2139 36.2729C68.1006 36.3769 67.9775 36.4599 67.8702 36.5753C67.7686 36.6848 67.6958 36.812 67.6042 36.9277C67.4964 37.0263 67.3795 37.1049 67.2781 37.2142C67.2457 37.2493 67.2247 37.2897 67.1932 37.3258C67.1609 37.3586 67.1226 37.3819 67.0898 37.4169C67.0859 37.4213 67.083 37.4265 67.079 37.4304C67.0751 37.4343 67.0702 37.4367 67.0663 37.4408C67.0189 37.4929 66.9875 37.5533 66.9421 37.6054C66.8929 37.6542 66.8367 37.6882 66.7893 37.7401C66.7758 37.7548 66.7667 37.7729 66.752 37.7887C66.7373 37.8044 66.7213 37.8133 66.7068 37.828C66.6367 37.9044 66.5874 37.9936 66.5225 38.0723C66.4487 38.1434 66.366 38.1953 66.2958 38.2716C66.2257 38.3478 66.1787 38.4341 66.1136 38.5115C66.0417 38.5817 65.9608 38.6328 65.8909 38.7067C65.8398 38.762 65.8053 38.828 65.7562 38.8851C65.703 38.9382 65.6421 38.9753 65.5909 39.0315C65.5781 39.0443 65.5701 39.0601 65.5583 39.0737C65.5464 39.0873 65.5313 39.095 65.5189 39.1077C65.4824 39.1481 65.4579 39.1947 65.4224 39.2351C65.3868 39.2756 65.3406 39.3009 65.3033 39.3403C65.209 39.441 65.1427 39.5577 65.058 39.6649C64.9595 39.7561 64.851 39.8284 64.7574 39.9292C64.6511 40.0438 64.5723 40.1764 64.4767 40.2984C64.3636 40.4023 64.2403 40.4853 64.134 40.6007C64.0326 40.7102 63.959 40.8364 63.8673 40.9521C63.7595 41.0508 63.6427 41.1304 63.5413 41.2396C63.5048 41.2779 63.4812 41.3246 63.4457 41.365C63.4092 41.402 63.3657 41.4277 63.3295 41.4669C63.2821 41.5189 63.2507 41.5794 63.2053 41.6314C63.1562 41.6803 63.1 41.7142 63.0527 41.7661C62.9679 41.8563 62.9088 41.9625 62.8309 42.058C62.7423 42.1417 62.6439 42.2062 62.5592 42.2978C62.4346 42.4452 62.3177 42.5989 62.2089 42.7583C62.0599 42.8759 61.9173 43.0014 61.7815 43.134C59.709 45.368 59.709 48.9889 61.7815 51.2218C63.854 53.4546 67.2157 53.4556 69.2883 51.2218C69.4126 51.0745 69.5289 50.9208 69.6369 50.7612C69.787 50.644 69.93 50.5179 70.0654 50.3839C70.1501 50.2937 70.2093 50.1865 70.2872 50.091C70.3757 50.0083 70.4743 49.9436 70.5589 49.8524C70.6062 49.8015 70.6377 49.7409 70.6831 49.6878C70.7323 49.6389 70.7884 49.6049 70.8357 49.554C70.8722 49.5148 70.8958 49.468 70.9313 49.4287C70.9669 49.3893 71.0112 49.3651 71.0475 49.3258C71.149 49.2166 71.222 49.0901 71.3136 48.9746C71.4214 48.876 71.5381 48.7975 71.6397 48.6879C71.7475 48.5725 71.8249 48.4397 71.9204 48.3178C72.0337 48.2146 72.1568 48.1308 72.2641 48.0152C72.3576 47.9155 72.4238 47.7988 72.5093 47.692C72.6078 47.5997 72.7162 47.5274 72.8097 47.4267C72.8471 47.3863 72.8717 47.3398 72.9071 47.2983C72.9446 47.2602 72.9881 47.2347 73.0255 47.1943C73.0374 47.1816 73.0451 47.1656 73.0579 47.1519C73.0707 47.1382 73.0848 47.1308 73.0973 47.1169C73.1485 47.0617 73.1831 46.9956 73.232 46.9387C73.2859 46.8867 73.3466 46.8485 73.3977 46.7933C73.4666 46.7191 73.5148 46.631 73.5788 46.5535C73.6517 46.4845 73.7325 46.4322 73.8015 46.3582C73.8705 46.2841 73.9217 46.1927 73.9867 46.1141C74.0605 46.043 74.1432 45.9899 74.2131 45.9146C74.2266 45.8999 74.2369 45.8806 74.2506 45.8658C74.2643 45.851 74.2812 45.8413 74.296 45.8266C74.3433 45.7745 74.3748 45.7142 74.42 45.662C74.4693 45.6133 74.5253 45.5781 74.5726 45.5273C74.5767 45.5233 74.5796 45.5179 74.5835 45.5139C74.5874 45.5099 74.5924 45.5065 74.5963 45.5022C74.6288 45.4682 74.6503 45.4267 74.6811 45.3908C74.7136 45.3579 74.7519 45.3345 74.7847 45.3005C74.8851 45.1912 74.9589 45.0649 75.0505 44.9492C75.1583 44.8507 75.275 44.7711 75.3765 44.6616C75.4842 44.5462 75.5617 44.4134 75.6572 44.2913C75.7706 44.1884 75.8937 44.1045 76.0012 43.9888C76.0947 43.8891 76.1607 43.7724 76.2463 43.6661C76.3447 43.5737 76.4532 43.5015 76.5468 43.4008C76.596 43.3477 76.6295 43.2852 76.6757 43.2309C76.7271 43.18 76.7851 43.1439 76.8344 43.0919C76.8856 43.0357 76.9201 42.97 76.9691 42.9127C77.0223 42.8606 77.0835 42.8223 77.1347 42.7673C77.2654 42.613 77.3877 42.4519 77.5011 42.2845C77.658 42.161 77.808 42.0289 77.9503 41.8887C77.9638 41.8738 77.9739 41.8547 77.9878 41.8397C78.0016 41.8248 78.0182 41.8153 78.033 41.8005C78.0842 41.7442 78.1187 41.6793 78.1677 41.6223C78.2199 41.5691 78.2809 41.5322 78.3331 41.4757C80.4055 39.2431 80.4055 35.6219 78.3331 33.3892C76.2607 31.1565 72.8989 31.1573 70.8268 33.3908Z" fill="#9B8FCC"/>
<path d="M100.939 65.0515C100.887 65.1065 100.852 65.1726 100.803 65.2295C100.751 65.2827 100.69 65.3197 100.637 65.375C100.624 65.3898 100.615 65.409 100.601 65.4238C100.587 65.4386 100.569 65.4481 100.556 65.4642C100.425 65.6188 100.302 65.7803 100.189 65.9481C100.032 66.071 99.8818 66.2029 99.7399 66.3431C99.6886 66.3984 99.6531 66.4643 99.6052 66.5211C99.552 66.5733 99.491 66.6115 99.4397 66.6666C99.3905 66.7198 99.357 66.7824 99.3108 66.8366C99.2595 66.8876 99.2014 66.9225 99.1521 66.9753C99.0587 67.0762 98.9915 67.194 98.9068 67.3001C98.8083 67.3916 98.7 67.4636 98.6064 67.5644C98.4986 67.6801 98.4211 67.8129 98.3256 67.9348C98.2124 68.0379 98.0893 68.1217 97.9819 68.2362C97.8805 68.3457 97.8077 68.4718 97.7161 68.5886C97.6083 68.6863 97.4915 68.7656 97.39 68.8751C97.3575 68.9101 97.3361 68.9514 97.3054 68.9865C97.2718 69.0205 97.2334 69.0428 97.2017 69.0778C97.1977 69.082 97.1948 69.0873 97.1908 69.0912C97.1868 69.0951 97.1821 69.0978 97.178 69.1032C97.1308 69.1541 97.0993 69.2144 97.054 69.2676C97.0047 69.3164 96.9486 69.3504 96.9013 69.4014C96.8866 69.4161 96.8775 69.4353 96.8639 69.45C96.8503 69.4646 96.8324 69.4746 96.8185 69.4905C96.7485 69.5659 96.6993 69.6551 96.6333 69.7329C96.5604 69.8038 96.4778 69.8569 96.4079 69.9322C96.3379 70.0075 96.2906 70.0946 96.2254 70.172C96.1535 70.2422 96.0718 70.2932 96.0031 70.3684C95.9516 70.4235 95.9162 70.4897 95.8684 70.5466C95.8145 70.5986 95.7538 70.6369 95.7028 70.6921C95.69 70.7048 95.6821 70.7206 95.6703 70.7344C95.6584 70.7481 95.6427 70.7555 95.6308 70.7695C95.5944 70.8087 95.5698 70.8565 95.5344 70.8967C95.496 70.9349 95.4528 70.9615 95.4152 71.0007C95.3209 71.1016 95.2546 71.2182 95.1699 71.3254C95.0716 71.4167 94.9632 71.4889 94.8697 71.5898C94.7619 71.7044 94.6845 71.8371 94.589 71.9602C94.4756 72.0631 94.3524 72.1468 94.245 72.2613C94.1436 72.3707 94.0707 72.497 93.9791 72.6127C93.8714 72.7113 93.7545 72.7909 93.653 72.9002C93.6165 72.9394 93.593 72.9851 93.5575 73.0256C93.521 73.0636 93.4778 73.0893 93.4413 73.1275C93.394 73.1795 93.3625 73.24 93.3172 73.292C93.2679 73.3407 93.2118 73.3758 93.1645 73.4267C93.0798 73.5179 93.0196 73.624 92.9427 73.7195C92.8542 73.8023 92.7557 73.8677 92.6709 73.9584C92.5463 74.1058 92.4295 74.2595 92.3208 74.4189C92.1714 74.5367 92.0285 74.6626 91.893 74.7961C89.8206 77.0289 89.8206 80.6499 91.893 82.8828C93.9654 85.1156 97.3262 85.1167 99.3998 82.8828C99.5241 82.7355 99.6405 82.5818 99.7486 82.4222C99.8977 82.3048 100.04 82.1794 100.176 82.0465C100.261 81.9552 100.321 81.849 100.399 81.7535C100.487 81.6697 100.586 81.6054 100.67 81.5147C100.718 81.4627 100.749 81.4023 100.794 81.3503C100.844 81.3015 100.9 81.2676 100.947 81.2156C100.984 81.1762 101.007 81.1305 101.043 81.0901C101.079 81.053 101.123 81.0264 101.159 80.9883C101.26 80.8789 101.333 80.7516 101.425 80.6358C101.533 80.5372 101.65 80.4587 101.751 80.3493C101.859 80.2347 101.935 80.102 102.032 79.9801C102.145 79.8761 102.268 79.7923 102.376 79.6778C102.469 79.5769 102.536 79.4592 102.621 79.353C102.719 79.2617 102.828 79.1896 102.921 79.0888C102.959 79.0496 102.982 79.0017 103.018 78.9614C103.056 78.9232 103.099 78.8967 103.137 78.8563C103.149 78.8435 103.157 78.8277 103.169 78.8141C103.182 78.8005 103.196 78.7928 103.208 78.7801C103.26 78.7238 103.295 78.6589 103.344 78.6018C103.397 78.5487 103.458 78.5115 103.509 78.4554C103.578 78.381 103.625 78.2937 103.691 78.2165C103.762 78.1464 103.844 78.0946 103.913 78.0202C103.984 77.9438 104.033 77.8547 104.098 77.7762C104.172 77.7051 104.254 77.653 104.325 77.5765C104.338 77.5618 104.348 77.5437 104.361 77.528C104.375 77.5122 104.393 77.5035 104.407 77.4886C104.455 77.4377 104.487 77.3772 104.532 77.324C104.58 77.2753 104.637 77.2414 104.685 77.1892C104.688 77.1851 104.692 77.1799 104.695 77.1758C104.699 77.1718 104.703 77.1695 104.709 77.1653C104.74 77.1303 104.762 77.0888 104.793 77.0538C104.826 77.0198 104.864 76.9976 104.897 76.9626C104.997 76.8532 105.071 76.727 105.163 76.6112C105.271 76.5126 105.388 76.4331 105.489 76.3237C105.597 76.2091 105.674 76.0764 105.77 75.9533C105.883 75.8503 106.006 75.7665 106.113 75.6519C106.206 75.551 106.273 75.4346 106.358 75.3287C106.457 75.2361 106.565 75.164 106.659 75.0631C106.708 75.01 106.741 74.9477 106.788 74.8934C106.838 74.8425 106.896 74.8074 106.946 74.7544C106.998 74.6993 107.032 74.6332 107.082 74.5762C107.136 74.523 107.196 74.486 107.247 74.4298C107.378 74.2756 107.5 74.1142 107.614 73.9467C107.771 73.8232 107.92 73.6912 108.063 73.551C108.076 73.5362 108.085 73.5181 108.1 73.5022C108.115 73.4863 108.131 73.4778 108.145 73.463C108.197 73.4078 108.231 73.3419 108.279 73.2849C108.332 73.2317 108.393 73.1945 108.445 73.1395C110.518 70.9055 110.518 67.2844 108.445 65.0518C106.371 62.8191 103.011 62.8186 100.939 65.0515Z" fill="#9B8FCC"/>
<path d="M100.938 1.67484C100.886 1.73007 100.852 1.7961 100.802 1.85321C100.75 1.90615 100.689 1.94321 100.637 1.99831C100.623 2.01312 100.614 2.03229 100.6 2.04711C100.587 2.06193 100.569 2.0716 100.555 2.08749C100.424 2.24174 100.302 2.40289 100.188 2.57026C100.032 2.69378 99.8816 2.82601 99.7393 2.96621C99.688 3.02144 99.6526 3.08747 99.6046 3.14458C99.5514 3.19658 99.4905 3.23458 99.4392 3.28981C99.39 3.34288 99.3565 3.40548 99.3101 3.45977C99.2589 3.51068 99.2008 3.54681 99.1516 3.59881C99.0573 3.69943 98.9919 3.81614 98.9063 3.92201C98.8078 4.01442 98.6994 4.08658 98.6058 4.18721C98.4981 4.30197 98.4206 4.43573 98.3251 4.55764C98.2118 4.66068 98.0887 4.74451 97.9814 4.859C97.88 4.96852 97.8071 5.09465 97.7155 5.21036C97.6078 5.30896 97.4909 5.38867 97.3894 5.49792C97.357 5.53294 97.3356 5.57323 97.3047 5.60933C97.2713 5.64328 97.2329 5.6656 97.2012 5.70063C97.1972 5.7048 97.1942 5.71014 97.1903 5.71404C97.1858 5.71769 97.1815 5.72173 97.1775 5.72588C97.1302 5.7768 97.0978 5.83711 97.0524 5.89031C97.0042 5.93921 96.948 5.97318 96.9007 6.02409C96.8861 6.03878 96.877 6.05795 96.8633 6.07263C96.8495 6.08732 96.8317 6.09715 96.818 6.11197C96.748 6.18834 96.6988 6.27758 96.6338 6.35624C96.5599 6.42737 96.4772 6.47929 96.4073 6.55567C96.3373 6.62989 96.289 6.71735 96.2249 6.79534C96.1529 6.86552 96.0713 6.91657 96.0024 6.99174C95.9511 7.04696 95.9157 7.113 95.8677 7.17011C95.8138 7.2221 95.7532 7.26024 95.7021 7.31547C95.6893 7.32813 95.6824 7.34409 95.6696 7.35769C95.6568 7.3713 95.6427 7.37907 95.6302 7.39295C95.5928 7.43228 95.5692 7.47988 95.5327 7.52002C95.4962 7.56016 95.4519 7.58487 95.4146 7.6242C95.322 7.72496 95.2548 7.84167 95.1692 7.94741C95.0709 8.03968 94.9625 8.11198 94.869 8.21273C94.7613 8.32736 94.6838 8.46112 94.5883 8.58316C94.4749 8.68607 94.3517 8.76977 94.2443 8.8844C94.1439 8.99378 94.0701 9.12005 93.9784 9.23562C93.8706 9.33436 93.7538 9.41394 93.6524 9.52318C93.6159 9.56251 93.5923 9.60799 93.5569 9.64854C93.5204 9.68545 93.477 9.71223 93.4406 9.75049C93.3933 9.80248 93.3618 9.86292 93.3166 9.91492C93.2673 9.96381 93.2111 9.99776 93.1638 10.0496C93.0791 10.1408 93.019 10.2469 92.9413 10.3424C92.8525 10.4264 92.7551 10.4907 92.6704 10.5813C92.546 10.7285 92.4296 10.8822 92.3217 11.0419C92.1721 11.1592 92.0289 11.2846 91.893 11.4176C89.8206 13.6514 89.8206 17.2725 91.893 19.5053C93.9654 21.7381 97.3262 21.7392 99.3998 19.5053C99.5241 19.3581 99.6405 19.2044 99.7484 19.0448C99.8977 18.9274 100.04 18.802 100.176 18.6691C100.261 18.5777 100.321 18.4715 100.399 18.376C100.487 18.2922 100.586 18.2279 100.67 18.1374C100.718 18.0854 100.749 18.0248 100.794 17.9718C100.844 17.9229 100.9 17.889 100.947 17.8381C100.984 17.7999 101.007 17.7532 101.042 17.7127C101.079 17.6757 101.122 17.6491 101.159 17.6108C101.26 17.5006 101.333 17.3741 101.425 17.2585C101.533 17.1599 101.649 17.0814 101.751 16.972C101.859 16.8573 101.935 16.7245 102.032 16.6026C102.145 16.4987 102.268 16.4148 102.375 16.3004C102.469 16.1996 102.536 16.0817 102.621 15.9756C102.719 15.8844 102.828 15.8122 102.921 15.7113C102.958 15.6721 102.982 15.6242 103.018 15.584C103.056 15.5457 103.099 15.5192 103.137 15.48C103.149 15.4666 103.157 15.4502 103.169 15.4366C103.182 15.423 103.196 15.4154 103.208 15.4027C103.26 15.3464 103.294 15.2806 103.344 15.2243C103.397 15.1712 103.458 15.1342 103.509 15.0779C103.578 15.0037 103.626 14.9156 103.69 14.838C103.763 14.769 103.844 14.7167 103.913 14.6429C103.984 14.5665 104.033 14.4774 104.098 14.3989C104.171 14.3278 104.254 14.2757 104.325 14.1993C104.338 14.1845 104.347 14.1665 104.361 14.1507C104.375 14.1348 104.393 14.1261 104.407 14.1115C104.455 14.0605 104.486 13.9989 104.532 13.9468C104.58 13.898 104.637 13.864 104.685 13.8121C104.688 13.8079 104.691 13.8027 104.695 13.7986C104.699 13.7948 104.704 13.7913 104.709 13.788C104.74 13.753 104.762 13.7117 104.792 13.6766C104.826 13.6425 104.864 13.6192 104.897 13.5853C104.998 13.4759 105.071 13.3486 105.163 13.2329C105.271 13.1344 105.387 13.0559 105.489 12.9464C105.597 12.8317 105.673 12.6981 105.77 12.577C105.883 12.4731 106.006 12.3892 106.112 12.2746C106.206 12.1739 106.273 12.0572 106.359 11.9514C106.457 11.859 106.565 11.7868 106.659 11.6859C106.708 11.6328 106.741 11.5704 106.788 11.5161C106.838 11.4652 106.896 11.4301 106.945 11.3772C106.998 11.3207 107.032 11.256 107.082 11.1989C107.135 11.1457 107.195 11.1088 107.247 11.0536C107.378 10.8988 107.5 10.7373 107.613 10.5696C107.77 10.4461 107.92 10.3139 108.063 10.1738C108.076 10.1588 108.085 10.1408 108.099 10.1249C108.113 10.109 108.131 10.1005 108.144 10.0857C108.197 10.0306 108.231 9.96453 108.279 9.90755C108.332 9.85434 108.393 9.81729 108.444 9.76219C110.518 7.5283 110.518 3.90726 108.444 1.67444C106.371 -0.55837 103.011 -0.557976 100.938 1.67484Z" fill="#9B8FCC"/>
</svg>
