<svg width="16" height="16" viewBox="0 0 16 16" fill="none" xmlns="http://www.w3.org/2000/svg">
<path d="M12.6668 4.66665C12.6668 3.93331 12.0668 3.33331 11.3335 3.33331H9.3335V4.66665H11.3335V6.43331L9.0135 9.33331H6.66683V5.99998H4.00016C2.52683 5.99998 1.3335 7.19331 1.3335 8.66665V10.6666H2.66683C2.66683 11.7733 3.56016 12.6666 4.66683 12.6666C5.7735 12.6666 6.66683 11.7733 6.66683 10.6666H9.6535L12.6668 6.89998V4.66665ZM2.66683 9.33331V8.66665C2.66683 7.93331 3.26683 7.33331 4.00016 7.33331H5.3335V9.33331H2.66683ZM4.66683 11.3333C4.30016 11.3333 4.00016 11.0333 4.00016 10.6666H5.3335C5.3335 11.0333 5.0335 11.3333 4.66683 11.3333Z" fill="#4F4910"/>
<path d="M6.66683 3.99998H3.3335V5.33331H6.66683V3.99998Z" fill="#4F4910"/>
<path d="M12.6668 8.66665C11.5602 8.66665 10.6668 9.55998 10.6668 10.6666C10.6668 11.7733 11.5602 12.6666 12.6668 12.6666C13.7735 12.6666 14.6668 11.7733 14.6668 10.6666C14.6668 9.55998 13.7735 8.66665 12.6668 8.66665ZM12.6668 11.3333C12.3002 11.3333 12.0002 11.0333 12.0002 10.6666C12.0002 10.3 12.3002 9.99998 12.6668 9.99998C13.0335 9.99998 13.3335 10.3 13.3335 10.6666C13.3335 11.0333 13.0335 11.3333 12.6668 11.3333Z" fill="#4F4910"/>
</svg>
