<svg width="16" height="17" viewBox="0 0 16 17" fill="none" xmlns="http://www.w3.org/2000/svg">
<path d="M9.1341 15.4853C9.1341 16.1377 8.62635 16.6667 8 16.6667C7.37365 16.6667 6.8659 16.1377 6.8659 15.4853V9.51468H1.1341C0.507754 9.51468 0 8.98577 0 8.33333C0 7.68088 0.507754 7.15197 1.1341 7.15197H6.8659V1.18135C6.8659 0.52891 7.37365 0 8 0C8.62635 0 9.1341 0.52891 9.1341 1.18135V7.15197H14.8659C15.4922 7.15197 16 7.68088 16 8.33333C16 8.98577 15.4922 9.51468 14.8659 9.51468H9.1341V15.4853Z" fill="#C5FA69"/>
</svg>
