<svg width="16" height="16" viewBox="0 0 16 16" fill="none" xmlns="http://www.w3.org/2000/svg">
<mask id="path-1-inside-1_0_1608" fill="white">
<path d="M2.33333 7.33333H7.66666V2H2.33333M3.66666 3.33333H6.33333V6H3.66666M9 14H14.3333V8.66667H9M10.3333 10H13V12.6667H10.3333M2.33333 14H7.66666V8.66667H2.33333M3.66666 10H6.33333V12.6667H3.66666M9 2V7.33333H14.3333V2M13 6H10.3333V3.33333H13V6Z"/>
</mask>
<path d="M2.33333 7.33333H7.66666V2H2.33333M3.66666 3.33333H6.33333V6H3.66666M9 14H14.3333V8.66667H9M10.3333 10H13V12.6667H10.3333M2.33333 14H7.66666V8.66667H2.33333M3.66666 10H6.33333V12.6667H3.66666M9 2V7.33333H14.3333V2M13 6H10.3333V3.33333H13V6Z" fill="#000072"/>
<path d="M7.66666 7.33333V8.33333H8.66666V7.33333H7.66666ZM7.66666 2H8.66666V1H7.66666V2ZM6.33333 3.33333H7.33333V2.33333H6.33333V3.33333ZM6.33333 6V7H7.33333V6H6.33333ZM14.3333 14V15H15.3333V14H14.3333ZM14.3333 8.66667H15.3333V7.66667H14.3333V8.66667ZM13 10H14V9H13V10ZM13 12.6667V13.6667H14V12.6667H13ZM7.66666 14V15H8.66666V14H7.66666ZM7.66666 8.66667H8.66666V7.66667H7.66666V8.66667ZM6.33333 10H7.33333V9H6.33333V10ZM6.33333 12.6667V13.6667H7.33333V12.6667H6.33333ZM9 7.33333H8V8.33333H9V7.33333ZM14.3333 7.33333V8.33333H15.3333V7.33333H14.3333ZM13 6V7H14V6H13ZM10.3333 6H9.33333V7H10.3333V6ZM10.3333 3.33333V2.33333H9.33333V3.33333H10.3333ZM13 3.33333H14V2.33333H13V3.33333ZM2.33333 8.33333H7.66666V6.33333H2.33333V8.33333ZM8.66666 7.33333V2H6.66666V7.33333H8.66666ZM7.66666 1H2.33333V3H7.66666V1ZM3.66666 4.33333H6.33333V2.33333H3.66666V4.33333ZM5.33333 3.33333V6H7.33333V3.33333H5.33333ZM6.33333 5H3.66666V7H6.33333V5ZM9 15H14.3333V13H9V15ZM15.3333 14V8.66667H13.3333V14H15.3333ZM14.3333 7.66667H9V9.66667H14.3333V7.66667ZM10.3333 11H13V9H10.3333V11ZM12 10V12.6667H14V10H12ZM13 11.6667H10.3333V13.6667H13V11.6667ZM2.33333 15H7.66666V13H2.33333V15ZM8.66666 14V8.66667H6.66666V14H8.66666ZM7.66666 7.66667H2.33333V9.66667H7.66666V7.66667ZM3.66666 11H6.33333V9H3.66666V11ZM5.33333 10V12.6667H7.33333V10H5.33333ZM6.33333 11.6667H3.66666V13.6667H6.33333V11.6667ZM8 2V7.33333H10V2H8ZM9 8.33333H14.3333V6.33333H9V8.33333ZM15.3333 7.33333V2H13.3333V7.33333H15.3333ZM13 5H10.3333V7H13V5ZM11.3333 6V3.33333H9.33333V6H11.3333ZM10.3333 4.33333H13V2.33333H10.3333V4.33333ZM12 3.33333V6H14V3.33333H12Z" fill="#000072" mask="url(#path-1-inside-1_0_1608)"/>
</svg>
