<svg width="24" height="24" viewBox="0 0 24 24" fill="none" xmlns="http://www.w3.org/2000/svg">
<path fill-rule="evenodd" clip-rule="evenodd" d="M7.18038 7.21999C7.52766 7.21907 7.87168 7.28698 8.19255 7.41981C8.51342 7.55264 8.80478 7.74776 9.04979 7.99387L11.7592 10.7039C11.8534 10.7978 11.981 10.8505 12.1139 10.8505C12.2469 10.8505 12.3745 10.7978 12.4687 10.7039L15.1684 8.00414C15.4132 7.75771 15.7045 7.56236 16.0254 7.42942C16.3463 7.29647 16.6905 7.22858 17.0378 7.22969H17.3629L13.9343 3.80112C13.6804 3.54714 13.379 3.34567 13.0472 3.20821C12.7155 3.07075 12.3599 3 12.0007 3C11.6416 3 11.286 3.07075 10.9543 3.20821C10.6225 3.34567 10.3211 3.54714 10.0672 3.80112L6.65115 7.21999H7.18038ZM17.0378 16.7689C16.6907 16.7701 16.3468 16.7026 16.0259 16.5702C15.705 16.4377 15.4136 16.243 15.1684 15.9973L12.4681 13.2953C12.3726 13.2039 12.2455 13.153 12.1134 13.153C11.9812 13.153 11.8542 13.2039 11.7587 13.2953L9.04922 16.0047C8.80419 16.2508 8.51282 16.4459 8.19196 16.5787C7.87109 16.7115 7.52708 16.7795 7.17981 16.7786H6.65115L10.0729 20.2003C10.5861 20.7124 11.2815 21 12.0064 21C12.7314 21 13.4268 20.7124 13.94 20.2003L17.3686 16.7712L17.0378 16.7689ZM18.127 7.99444L20.1989 10.0663V10.0657C20.4529 10.3196 20.6544 10.621 20.7918 10.9528C20.9293 11.2846 21 11.6402 21 11.9993C21 12.3584 20.9293 12.714 20.7918 13.0458C20.6544 13.3775 20.4529 13.679 20.1989 13.9328L18.127 16.0047C18.0804 15.9855 18.0304 15.9754 17.9799 15.975H17.0378C16.5475 15.9738 16.0776 15.7791 15.7301 15.4333L13.0304 12.7341C12.5411 12.2448 11.6874 12.2448 11.1975 12.7341L8.48804 15.4435C8.14062 15.7895 7.67069 15.9844 7.18037 15.9859H6.01926C5.97156 15.9866 5.9244 15.9961 5.88011 16.0138L3.7997 13.9334C3.2876 13.4202 3 12.7248 3 11.9999C3 11.2749 3.2876 10.5795 3.7997 10.0663L5.88467 7.98531C5.92906 8.00273 5.97616 8.01219 6.02383 8.01326H7.18037C7.6707 8.01464 8.14066 8.20955 8.48804 8.5556L11.198 11.2639C11.4412 11.5066 11.7707 11.6429 12.1142 11.6429C12.4577 11.6429 12.7872 11.5066 13.0304 11.2639L15.7301 8.56587C16.0776 8.22002 16.5475 8.02532 17.0378 8.02409H17.9799C18.0304 8.0236 18.0803 8.01354 18.127 7.99444Z" fill="#32BCAD"/>
</svg>
