<svg width="259" height="208" viewBox="0 0 259 208" fill="none" xmlns="http://www.w3.org/2000/svg">
<path d="M106.06 160.021C110.804 160.021 114.65 156.175 114.65 151.431C114.65 146.686 110.804 142.84 106.06 142.84C101.315 142.84 97.4695 146.686 97.4695 151.431C97.4695 156.175 101.315 160.021 106.06 160.021Z" fill="#9BD439"/>
<path d="M8.59027 160.021C13.3345 160.021 17.1805 156.175 17.1805 151.431C17.1805 146.686 13.3345 142.84 8.59027 142.84C3.84599 142.84 0 146.686 0 151.431C0 156.175 3.84599 160.021 8.59027 160.021Z" fill="#9BD439"/>
<path d="M57.3245 207.58C62.0688 207.58 65.9148 203.734 65.9148 198.989C65.9148 194.245 62.0688 190.399 57.3245 190.399C52.5803 190.399 48.7343 194.245 48.7343 198.989C48.7343 203.734 52.5803 207.58 57.3245 207.58Z" fill="#9BD439"/>
<path d="M57.3245 112.374C62.0688 112.374 65.9148 108.528 65.9148 103.784C65.9148 99.0395 62.0688 95.1935 57.3245 95.1935C52.5803 95.1935 48.7343 99.0395 48.7343 103.784C48.7343 108.528 52.5803 112.374 57.3245 112.374Z" fill="#9BD439"/>
<path d="M203.529 160.021C208.273 160.021 212.119 156.175 212.119 151.431C212.119 146.686 208.273 142.84 203.529 142.84C198.784 142.84 194.938 146.686 194.938 151.431C194.938 156.175 198.784 160.021 203.529 160.021Z" fill="#9BD439"/>
<path d="M106.06 160.021C110.804 160.021 114.65 156.175 114.65 151.431C114.65 146.686 110.804 142.84 106.06 142.84C101.315 142.84 97.4695 146.686 97.4695 151.431C97.4695 156.175 101.315 160.021 106.06 160.021Z" fill="#9BD439"/>
<path d="M154.794 207.58C159.538 207.58 163.384 203.734 163.384 198.989C163.384 194.245 159.538 190.399 154.794 190.399C150.05 190.399 146.204 194.245 146.204 198.989C146.204 203.734 150.05 207.58 154.794 207.58Z" fill="#9BD439"/>
<path d="M154.794 112.374C159.538 112.374 163.384 108.528 163.384 103.784C163.384 99.0395 159.538 95.1935 154.794 95.1935C150.05 95.1935 146.204 99.0395 146.204 103.784C146.204 108.528 150.05 112.374 154.794 112.374Z" fill="#9BD439"/>
<path d="M106.06 64.8153C110.804 64.8153 114.65 60.9693 114.65 56.225C114.65 51.4808 110.804 47.6348 106.06 47.6348C101.315 47.6348 97.4695 51.4808 97.4695 56.225C97.4695 60.9693 101.315 64.8153 106.06 64.8153Z" fill="#9BD439"/>
<path d="M8.59027 64.8153C13.3345 64.8153 17.1805 60.9693 17.1805 56.225C17.1805 51.4808 13.3345 47.6348 8.59027 47.6348C3.84599 47.6348 0 51.4808 0 56.225C0 60.9693 3.84599 64.8153 8.59027 64.8153Z" fill="#9BD439"/>
<path d="M57.3245 112.374C62.0688 112.374 65.9148 108.528 65.9148 103.784C65.9148 99.0395 62.0688 95.1935 57.3245 95.1935C52.5803 95.1935 48.7343 99.0395 48.7343 103.784C48.7343 108.528 52.5803 112.374 57.3245 112.374Z" fill="#9BD439"/>
<path d="M57.3245 17.1805C62.0688 17.1805 65.9148 13.3345 65.9148 8.59027C65.9148 3.84599 62.0688 0 57.3245 0C52.5803 0 48.7343 3.84599 48.7343 8.59027C48.7343 13.3345 52.5803 17.1805 57.3245 17.1805Z" fill="#9BD439"/>
<path d="M203.529 64.8153C208.273 64.8153 212.119 60.9693 212.119 56.225C212.119 51.4808 208.273 47.6348 203.529 47.6348C198.784 47.6348 194.938 51.4808 194.938 56.225C194.938 60.9693 198.784 64.8153 203.529 64.8153Z" fill="#9BD439"/>
<path d="M106.06 64.8153C110.804 64.8153 114.65 60.9693 114.65 56.225C114.65 51.4808 110.804 47.6348 106.06 47.6348C101.315 47.6348 97.4695 51.4808 97.4695 56.225C97.4695 60.9693 101.315 64.8153 106.06 64.8153Z" fill="#9BD439"/>
<path d="M154.794 112.374C159.538 112.374 163.384 108.528 163.384 103.784C163.384 99.0395 159.538 95.1935 154.794 95.1935C150.05 95.1935 146.204 99.0395 146.204 103.784C146.204 108.528 150.05 112.374 154.794 112.374Z" fill="#9BD439"/>
<path d="M154.794 17.1805C159.538 17.1805 163.384 13.3345 163.384 8.59027C163.384 3.84599 159.538 0 154.794 0C150.05 0 146.204 3.84599 146.204 8.59027C146.204 13.3345 150.05 17.1805 154.794 17.1805Z" fill="#9BD439"/>
<path d="M174.623 194.745C221.223 194.745 259 156.968 259 110.367C259 63.7668 221.224 25.9908 174.623 25.9908C128.023 25.9908 90.2461 63.7671 90.2461 110.367C90.2461 156.967 128.023 194.744 174.623 194.745Z" fill="#6ED28F"/>
<path d="M225.361 71.94C223.195 69.2689 220.865 66.7355 218.384 64.3544C210.71 57.2052 201.368 52.0909 191.211 49.4777C181.053 46.8645 170.403 46.8358 160.232 49.394C150.06 51.9521 140.691 57.0156 132.978 64.1232C125.266 71.2307 119.455 80.1562 116.076 90.0852L119.056 91.0946C122.262 81.6601 127.781 73.1789 135.107 66.4249C142.433 59.6709 151.334 54.8592 160.998 52.429C170.661 49.9988 180.78 50.0275 190.429 52.5124C200.079 54.9973 208.953 59.8592 216.241 66.6546C218.535 68.8578 220.695 71.1977 222.708 73.6612C222.539 73.8177 222.352 73.9444 222.196 74.1197C220.605 75.8221 219.747 78.0812 219.806 80.4105C219.866 82.7397 220.838 84.9524 222.513 86.5715C224.189 88.1905 226.434 89.0864 228.764 89.0659C231.093 89.0454 233.322 88.1102 234.969 86.4619C235.043 86.3883 235.117 86.3143 235.188 86.2387C236.794 84.5155 237.65 82.225 237.568 79.8708C237.486 77.5165 236.473 75.2914 234.751 73.684C233.513 72.5311 231.972 71.7549 230.309 71.446C228.646 71.1372 226.93 71.3084 225.361 71.94ZM234.85 79.9657C234.879 80.7743 234.748 81.5808 234.465 82.3387C234.182 83.0966 233.751 83.7909 233.199 84.3821C232.076 85.5622 230.535 86.2549 228.907 86.3113C227.279 86.3676 225.693 85.7831 224.491 84.6834C223.899 84.1321 223.421 83.4695 223.085 82.7334C222.749 81.9973 222.562 81.202 222.533 80.3934C222.505 79.5847 222.636 78.7783 222.919 78.0204C223.202 77.2624 223.632 76.5678 224.184 75.976C224.235 75.925 224.284 75.8708 224.335 75.8198C225.185 74.9725 226.263 74.3914 227.438 74.148C228.613 73.9047 229.834 74.0095 230.95 74.4497C232.066 74.8898 233.03 75.6461 233.723 76.6259C234.415 77.6057 234.807 78.7665 234.85 79.9657Z" fill="#000072"/>
<path d="M219.181 150.963C210.975 159.756 200.304 165.864 188.566 168.486C176.828 171.109 164.572 170.123 153.404 165.659C142.236 161.195 132.678 153.461 125.982 143.47C119.286 133.479 115.765 121.699 115.88 109.672C117.836 109.366 119.609 108.344 120.853 106.804C122.098 105.265 122.725 103.318 122.615 101.341C122.504 99.3645 121.662 97.4997 120.253 96.1089C118.845 94.7181 116.969 93.9004 114.991 93.8149C113.014 93.7295 111.075 94.3822 109.551 95.6464C108.028 96.9105 107.028 98.6957 106.747 100.655C106.467 102.615 106.924 104.609 108.031 106.25C109.138 107.892 110.816 109.063 112.738 109.536C112.594 122.015 116.171 134.254 123.012 144.692C129.853 155.13 139.647 163.294 151.147 168.142C162.647 172.99 175.33 174.303 187.579 171.913C199.827 169.524 211.087 163.54 219.921 154.724C220.448 154.197 220.969 153.659 221.483 153.11C228.63 145.467 233.749 136.155 236.373 126.025C238.998 115.895 239.043 105.269 236.505 95.1166L233.45 95.8692C235.863 105.513 235.821 115.608 233.328 125.232C230.836 134.856 225.972 143.702 219.181 150.963Z" fill="#000072"/>
<path d="M160.542 100.724C159.991 98.8904 158.864 97.2828 157.327 96.1401C155.791 94.9974 153.927 94.3806 152.012 94.3806C150.097 94.3806 148.233 94.9974 146.697 96.1401C145.16 97.2828 144.033 98.8904 143.482 100.724" stroke="#000072" stroke-width="1.8612" stroke-miterlimit="10" stroke-linecap="round"/>
<path d="M205.767 100.724C205.216 98.8904 204.089 97.2828 202.552 96.1401C201.016 94.9974 199.152 94.3806 197.237 94.3806C195.322 94.3806 193.459 94.9974 191.922 96.1401C190.386 97.2828 189.258 98.8904 188.707 100.724" stroke="#000072" stroke-width="1.8612" stroke-miterlimit="10" stroke-linecap="round"/>
</svg>
