<svg width="60" height="60" viewBox="0 0 60 60" fill="none" xmlns="http://www.w3.org/2000/svg">
<path fill-rule="evenodd" clip-rule="evenodd" d="M12.8391 39.5282C16.4821 47.4275 24.5188 52.6383 33.2971 52.6383C41.259 52.6383 48.4706 48.5631 52.5887 41.7373L53.7544 42.4403C49.3878 49.6786 41.7401 54 33.297 54C23.8776 54 15.2637 48.341 11.4672 39.7962C11.1564 39.8314 10.844 39.8498 10.5313 39.8514C8.61373 39.8514 7.07282 39.2223 5.90997 37.9335V46.0764H1.88574V24.6348H5.8783V26.8357C6.67145 25.5229 8.34478 24.6402 10.1115 24.432C11.5001 18.7798 14.9931 13.7331 19.8193 10.4228C19.5992 9.74358 19.5998 9.01209 19.8211 8.33322C20.0423 7.65434 20.4728 7.06295 21.0509 6.6438C21.6289 6.22466 22.3248 5.99928 23.0388 6C23.7528 6.00072 24.4483 6.22749 25.0255 6.64779C25.6027 7.0681 26.032 7.66036 26.2519 8.33967C26.4717 9.01899 26.4709 9.75048 26.2494 10.4293C26.028 11.1081 25.5973 11.6993 25.0191 12.1183C24.4409 12.5373 23.7449 12.7624 23.0309 12.7615C22.5514 12.7611 22.0776 12.6577 21.6416 12.4581C21.2056 12.2585 20.8176 11.9674 20.504 11.6046C16.094 14.6599 12.8721 19.254 11.5165 24.4112C13.1804 24.5435 14.648 25.2202 15.9387 26.4269C17.385 27.7786 18.1083 29.6651 18.1083 32.0859C18.1083 34.5066 17.3537 36.4244 15.8761 37.7764C14.9782 38.6169 13.9624 39.1983 12.8391 39.5282ZM21.4853 7.62858C21.0589 8.00306 20.7827 8.51949 20.7081 9.08208H20.708C20.6478 9.54111 20.7251 10.0077 20.9301 10.4228C21.135 10.8379 21.4585 11.1829 21.8595 11.4142C22.2606 11.6455 22.7212 11.7527 23.1831 11.7222C23.6451 11.6917 24.0876 11.5249 24.4548 11.2429C24.8219 10.9609 25.0972 10.5764 25.2459 10.1379C25.3945 9.69948 25.4098 9.22681 25.2898 8.77968C25.1698 8.33255 24.9199 7.93104 24.5717 7.62593C24.2235 7.32082 23.7926 7.12582 23.3336 7.06556C23.2319 7.05237 23.1295 7.04571 23.027 7.04563C22.4595 7.04698 21.9117 7.2541 21.4853 7.62858ZM5.94126 32.1487C5.94126 34.8837 7.63896 36.4873 10.0283 36.4873C12.4491 36.4873 14.1155 34.7895 14.1155 32.0542C14.1155 29.382 12.512 27.7472 10.1542 27.7472C7.85909 27.7472 5.94126 29.2249 5.94126 32.1487ZM57.1723 30.1244C57.1731 31.6125 57.0354 33.0974 56.7609 34.56H56.7608C57.3746 34.9566 57.8215 35.5648 58.0166 36.2691C58.2117 36.9733 58.1414 37.7247 57.8191 38.3807C57.4969 39.0366 56.945 39.5513 56.2683 39.8273C55.5916 40.1032 54.8371 40.1211 54.1481 39.8775C53.459 39.634 52.8834 39.146 52.5304 38.5061C52.1774 37.8662 52.0716 37.1189 52.2331 36.4062C52.3946 35.6934 52.8121 35.0648 53.4065 34.6395C54.0008 34.2143 54.7306 34.022 55.4573 34.0993C55.6917 32.7873 55.81 31.4572 55.8106 30.1244C55.8106 17.7104 45.7111 7.61059 33.297 7.61059C31.6544 7.61014 30.0165 7.78843 28.4124 8.14232L28.118 6.81277C29.8187 6.43739 31.5553 6.24831 33.297 6.24889C46.4618 6.24889 57.1723 16.9597 57.1723 30.1244ZM29.0026 18.85V34.6323C29.0026 38.122 31.2035 39.8514 34.0955 39.8514C35.196 39.8514 36.265 39.5996 37.334 39.0967L35.9508 36.1729C35.5732 36.3617 35.2277 36.4559 34.8818 36.4559C33.8444 36.4559 33.0269 35.8585 33.0269 34.5694V18.85H29.0026ZM39.1925 18.85V34.6323C39.1925 38.122 41.3931 39.8514 44.2856 39.8514C45.3859 39.8514 46.4546 39.5996 47.5236 39.0967L46.1404 36.1729C45.7633 36.3617 45.4174 36.4559 45.0714 36.4559C44.034 36.4559 43.2169 35.8585 43.2169 34.5694V18.85H39.1925ZM25.0405 24.6346H21.0164V39.5367H25.0405V24.6346Z" fill="#000072"/>
</svg>
