<svg width="56" height="56" viewBox="0 0 56 56" fill="none" xmlns="http://www.w3.org/2000/svg">
<path d="M7.21619 21.9433H48.8054" stroke="#6ED28F" stroke-width="2" stroke-linecap="round" stroke-linejoin="round"/>
<path opacity="0.4" fill-rule="evenodd" clip-rule="evenodd" d="M16.8851 31.056C16.8851 30.6418 17.2209 30.306 17.6351 30.306H17.6567C18.071 30.306 18.4067 30.6418 18.4067 31.056C18.4067 31.4702 18.071 31.806 17.6567 31.806H17.6351C17.2209 31.806 16.8851 31.4702 16.8851 31.056ZM28.0108 30.306C27.5966 30.306 27.2608 30.6418 27.2608 31.056C27.2608 31.4702 27.5966 31.806 28.0108 31.806H28.0324C28.4466 31.806 28.7824 31.4702 28.7824 31.056C28.7824 30.6418 28.4466 30.306 28.0324 30.306H28.0108ZM38.3649 30.306C37.9507 30.306 37.6149 30.6418 37.6149 31.056C37.6149 31.4702 37.9507 31.806 38.3649 31.806H38.3865C38.8007 31.806 39.1365 31.4702 39.1365 31.056C39.1365 30.6418 38.8007 30.306 38.3865 30.306H38.3649ZM38.3649 39.3745C37.9507 39.3745 37.6149 39.7103 37.6149 40.1245C37.6149 40.5387 37.9507 40.8745 38.3649 40.8745H38.3865C38.8007 40.8745 39.1365 40.5387 39.1365 40.1245C39.1365 39.7103 38.8007 39.3745 38.3865 39.3745H38.3649ZM27.2608 40.1245C27.2608 39.7103 27.5966 39.3745 28.0108 39.3745H28.0324C28.4466 39.3745 28.7824 39.7103 28.7824 40.1245C28.7824 40.5387 28.4466 40.8745 28.0324 40.8745H28.0108C27.5966 40.8745 27.2608 40.5387 27.2608 40.1245ZM17.6351 39.3745C17.2209 39.3745 16.8851 39.7103 16.8851 40.1245C16.8851 40.5387 17.2209 40.8745 17.6351 40.8745H17.6567C18.071 40.8745 18.4067 40.5387 18.4067 40.1245C18.4067 39.7103 18.071 39.3745 17.6567 39.3745H17.6351Z" fill="#000072"/>
<path d="M37.4353 4.66666V12.3451" stroke="#000072" stroke-width="2" stroke-linecap="round" stroke-linejoin="round"/>
<path d="M18.5862 4.66666V12.3451" stroke="#000072" stroke-width="2" stroke-linecap="round" stroke-linejoin="round"/>
<path fill-rule="evenodd" clip-rule="evenodd" d="M37.8893 8.35144H18.1322C11.28 8.35144 7 12.1686 7 19.1852V40.301C7 47.4279 11.28 51.3333 18.1322 51.3333H37.8677C44.7416 51.3333 48.9999 47.4941 48.9999 40.4775V19.1852C49.0215 12.1686 44.7632 8.35144 37.8893 8.35144Z" stroke="#000072" stroke-width="2" stroke-linecap="round" stroke-linejoin="round"/>
</svg>
