<svg width="16" height="16" viewBox="0 0 16 16" fill="none" xmlns="http://www.w3.org/2000/svg">
<path d="M7.99301 1.33333C4.31301 1.33333 1.33301 4.32 1.33301 8C1.33301 11.68 4.31301 14.6667 7.99301 14.6667C11.6797 14.6667 14.6663 11.68 14.6663 8C14.6663 4.32 11.6797 1.33333 7.99301 1.33333ZM7.99967 13.3333C5.05301 13.3333 2.66634 10.9467 2.66634 8C2.66634 5.05333 5.05301 2.66667 7.99967 2.66667C10.9463 2.66667 13.333 5.05333 13.333 8C13.333 10.9467 10.9463 13.3333 7.99967 13.3333ZM8.33301 4.66667H7.33301V8.66667L10.833 10.7667L11.333 9.94667L8.33301 8.16667V4.66667Z" fill="#000072"/>
</svg>
