<svg width="56" height="56" viewBox="0 0 56 56" fill="none" xmlns="http://www.w3.org/2000/svg">
<path d="M20.1037 48.0324C20.1037 46.4954 18.8556 45.2474 17.3187 45.2474C15.78 45.2474 14.536 46.4971 14.536 48.0324C14.536 49.5693 15.7817 50.815 17.3187 50.815C18.8539 50.815 20.1037 49.571 20.1037 48.0324Z" stroke="#6ED28F" stroke-width="2" stroke-linecap="round" stroke-linejoin="round"/>
<path d="M46.3593 48.0324C46.3593 46.4954 45.1113 45.2474 43.5743 45.2474C42.0374 45.2474 40.7893 46.4954 40.7893 48.0324C40.7893 49.571 42.0391 50.815 43.5743 50.815C45.1096 50.815 46.3593 49.571 46.3593 48.0324Z" stroke="#6ED28F" stroke-width="2" stroke-linecap="round" stroke-linejoin="round"/>
<path d="M6.41638 7.58334L11.2697 8.42334L13.5167 35.1937C13.6987 37.3753 15.521 39.0507 17.7097 39.0507H43.171C45.2617 39.0507 47.035 37.5153 47.336 35.4433L49.5504 20.1413C49.8234 18.2537 48.3604 16.5643 46.454 16.5643H12.049" stroke="#000072" stroke-width="2" stroke-linecap="round" stroke-linejoin="round"/>
<path d="M32.9592 25.1883H39.4296" stroke="#6ED28F" stroke-width="2" stroke-linecap="round" stroke-linejoin="round"/>
</svg>
