<svg width="16" height="16" viewBox="0 0 16 16" fill="none" xmlns="http://www.w3.org/2000/svg">
<path d="M12.6225 8.94563L9.33337 12.2202V13.3333H10.4496L13.7333 10.0534M14.5895 8.78352L13.8959 8.09186C13.8417 8.03242 13.7659 8 13.69 8C13.6087 8.0054 13.5328 8.03242 13.4787 8.09186L12.9368 8.63222L14.0476 9.71293L14.5895 9.17258C14.6924 9.06451 14.6924 8.89159 14.5895 8.78352Z" fill="#000072"/>
<path fill-rule="evenodd" clip-rule="evenodd" d="M1.72537 12.942C1.98626 13.2029 2.30004 13.3333 2.66671 13.3333H8.00004V12H2.66671V5.5V5.33333L7.65004 8.45C7.7056 8.48333 7.76404 8.50822 7.82537 8.52467C7.88626 8.54156 7.94449 8.55 8.00004 8.55C8.0556 8.55 8.11382 8.54156 8.17471 8.52467C8.23604 8.50822 8.29449 8.48333 8.35004 8.45L13.3334 5.33333L13.3334 6.66667H14.6667V4C14.6667 3.63333 14.5363 3.31956 14.2754 3.05867C14.014 2.79733 13.7 2.66667 13.3334 2.66667H2.66671C2.30004 2.66667 1.98626 2.79733 1.72537 3.05867C1.46404 3.31956 1.33337 3.63333 1.33337 4V12C1.33337 12.3667 1.46404 12.6807 1.72537 12.942ZM13.3334 4L8.00004 7.33333L2.66671 4H13.3334Z" fill="#000072"/>
</svg>
