<svg width="16" height="16" viewBox="0 0 16 16" fill="none" xmlns="http://www.w3.org/2000/svg">
<path d="M8.3031 3.04367H4.43766C4.14476 3.04367 3.86384 3.15537 3.65673 3.35421C3.44961 3.55304 3.33325 3.82271 3.33325 4.10391V11.5256C3.33325 11.8067 3.44961 12.0764 3.65673 12.2753C3.86384 12.4741 4.14476 12.5858 4.43766 12.5858H12.1685C12.4615 12.5858 12.7424 12.4741 12.9495 12.2753C13.1566 12.0764 13.273 11.8067 13.273 11.5256V7.81473" stroke="#C5FA69" stroke-width="1.2" stroke-linecap="round" stroke-linejoin="round"/>
<path d="M12.4446 2.2485C12.6643 2.03761 12.9623 1.91913 13.273 1.91913C13.5836 1.91913 13.8816 2.03761 14.1013 2.2485C14.3209 2.4594 14.4444 2.74543 14.4444 3.04368C14.4444 3.34193 14.3209 3.62796 14.1013 3.83885L8.85531 8.87497L6.64648 9.40509L7.19869 7.28462L12.4446 2.2485Z" stroke="#C5FA69" stroke-width="1.2" stroke-linecap="round" stroke-linejoin="round"/>
</svg>
