<svg width="16" height="16" viewBox="0 0 16 16" fill="none" xmlns="http://www.w3.org/2000/svg">
<path d="M2.66683 13.3333C2.30016 13.3333 1.98639 13.2029 1.7255 12.942C1.46416 12.6807 1.3335 12.3667 1.3335 12V4C1.3335 3.63333 1.46416 3.31955 1.7255 3.05866C1.98639 2.79733 2.30016 2.66666 2.66683 2.66666H13.3335C13.7002 2.66666 14.0142 2.79733 14.2755 3.05866C14.5364 3.31955 14.6668 3.63333 14.6668 4V12C14.6668 12.3667 14.5364 12.6807 14.2755 12.942C14.0142 13.2029 13.7002 13.3333 13.3335 13.3333H2.66683ZM13.3335 5.33333L8.35016 8.45C8.29461 8.48333 8.23616 8.50822 8.17483 8.52466C8.11394 8.54155 8.05572 8.55 8.00016 8.55C7.94461 8.55 7.88638 8.54155 7.8255 8.52466C7.76416 8.50822 7.70572 8.48333 7.65016 8.45L2.66683 5.33333V12H13.3335V5.33333ZM8.00016 7.33333L13.3335 4H2.66683L8.00016 7.33333ZM2.66683 5.33333V5.5V4.51666V4.53333V4V4.53333V4.52466V5.5V5.33333V12V5.33333Z" fill="white"/>
</svg>
