<svg width="24" height="20" viewBox="0 0 24 20" fill="none" xmlns="http://www.w3.org/2000/svg">
<g clip-path="url(#clip0_12_11867)">
<path d="M3.35 12.4C4.92401 12.4 6.2 11.124 6.2 9.54995C6.2 7.97594 4.92401 6.69995 3.35 6.69995C1.77599 6.69995 0.5 7.97594 0.5 9.54995C0.5 11.124 1.77599 12.4 3.35 12.4Z" fill="#000072"/>
<path d="M20.45 7.64998C21.4993 7.64998 22.35 6.79932 22.35 5.74998C22.35 4.70063 21.4993 3.84998 20.45 3.84998C19.4007 3.84998 18.55 4.70063 18.55 5.74998C18.55 6.79932 19.4007 7.64998 20.45 7.64998Z" stroke="#000072" stroke-width="2"/>
<path d="M19.682 5.05103C18.851 3.86425 17.7596 2.88326 16.4912 2.18309C15.2229 1.48292 13.8112 1.08211 12.3641 1.01134C10.917 0.940571 9.47297 1.2017 8.14234 1.77476C6.81171 2.34782 5.62978 3.21762 4.68695 4.31764" stroke="#000072" stroke-width="2"/>
<path d="M20.3916 10.8785C20.2974 12.9922 19.4182 14.9949 17.9259 16.4949C16.4337 17.9949 14.4356 18.8844 12.3224 18.9895C10.2091 19.0946 8.13264 18.4078 6.49886 17.0633C4.86509 15.7189 3.79149 13.8134 3.48795 11.7194" stroke="#000072" stroke-width="2"/>
</g>
<defs>
<clipPath id="clip0_12_11867">
<rect width="24" height="20" fill="white"/>
</clipPath>
</defs>
</svg>
