<svg width="16" height="16" viewBox="0 0 16 16" fill="none" xmlns="http://www.w3.org/2000/svg">
<mask id="path-1-inside-1_0_1656" fill="white">
<path d="M2.33337 7.33333H7.66671V2H2.33337M3.66671 3.33333H6.33337V6H3.66671M9.00004 14H14.3334V8.66667H9.00004M10.3334 10H13V12.6667H10.3334M2.33337 14H7.66671V8.66667H2.33337M3.66671 10H6.33337V12.6667H3.66671M9.00004 2V7.33333H14.3334V2M13 6H10.3334V3.33333H13V6Z"/>
</mask>
<path d="M2.33337 7.33333H7.66671V2H2.33337M3.66671 3.33333H6.33337V6H3.66671M9.00004 14H14.3334V8.66667H9.00004M10.3334 10H13V12.6667H10.3334M2.33337 14H7.66671V8.66667H2.33337M3.66671 10H6.33337V12.6667H3.66671M9.00004 2V7.33333H14.3334V2M13 6H10.3334V3.33333H13V6Z" fill="#C5FA69"/>
<path d="M7.66671 7.33333V8.33333H8.66671V7.33333H7.66671ZM7.66671 2H8.66671V1H7.66671V2ZM6.33337 3.33333H7.33337V2.33333H6.33337V3.33333ZM6.33337 6V7H7.33337V6H6.33337ZM14.3334 14V15H15.3334V14H14.3334ZM14.3334 8.66667H15.3334V7.66667H14.3334V8.66667ZM13 10H14V9H13V10ZM13 12.6667V13.6667H14V12.6667H13ZM7.66671 14V15H8.66671V14H7.66671ZM7.66671 8.66667H8.66671V7.66667H7.66671V8.66667ZM6.33337 10H7.33337V9H6.33337V10ZM6.33337 12.6667V13.6667H7.33337V12.6667H6.33337ZM9.00004 7.33333H8.00004V8.33333H9.00004V7.33333ZM14.3334 7.33333V8.33333H15.3334V7.33333H14.3334ZM13 6V7H14V6H13ZM10.3334 6H9.33337V7H10.3334V6ZM10.3334 3.33333V2.33333H9.33337V3.33333H10.3334ZM13 3.33333H14V2.33333H13V3.33333ZM2.33337 8.33333H7.66671V6.33333H2.33337V8.33333ZM8.66671 7.33333V2H6.66671V7.33333H8.66671ZM7.66671 1H2.33337V3H7.66671V1ZM3.66671 4.33333H6.33337V2.33333H3.66671V4.33333ZM5.33337 3.33333V6H7.33337V3.33333H5.33337ZM6.33337 5H3.66671V7H6.33337V5ZM9.00004 15H14.3334V13H9.00004V15ZM15.3334 14V8.66667H13.3334V14H15.3334ZM14.3334 7.66667H9.00004V9.66667H14.3334V7.66667ZM10.3334 11H13V9H10.3334V11ZM12 10V12.6667H14V10H12ZM13 11.6667H10.3334V13.6667H13V11.6667ZM2.33337 15H7.66671V13H2.33337V15ZM8.66671 14V8.66667H6.66671V14H8.66671ZM7.66671 7.66667H2.33337V9.66667H7.66671V7.66667ZM3.66671 11H6.33337V9H3.66671V11ZM5.33337 10V12.6667H7.33337V10H5.33337ZM6.33337 11.6667H3.66671V13.6667H6.33337V11.6667ZM8.00004 2V7.33333H10V2H8.00004ZM9.00004 8.33333H14.3334V6.33333H9.00004V8.33333ZM15.3334 7.33333V2H13.3334V7.33333H15.3334ZM13 5H10.3334V7H13V5ZM11.3334 6V3.33333H9.33337V6H11.3334ZM10.3334 4.33333H13V2.33333H10.3334V4.33333ZM12 3.33333V6H14V3.33333H12Z" fill="#C5FA69" mask="url(#path-1-inside-1_0_1656)"/>
</svg>
