<svg width="137" height="137" viewBox="0 0 137 137" fill="none" xmlns="http://www.w3.org/2000/svg">
<g clip-path="url(#clip0_6_4684)">
<path d="M55.9833 17.7604C58.779 20.7456 58.6266 25.4332 55.6429 28.2304C52.6591 31.0277 47.9739 30.8754 45.1782 27.8902L33.6069 15.5348C30.8112 12.5496 30.9636 7.86202 33.9473 5.06475C36.9311 2.26749 41.6163 2.41982 44.412 5.405L55.9833 17.7604Z" fill="#C5FA69"/>
<path d="M108.867 19.877C111.662 22.8621 111.51 27.5497 108.526 30.347C105.542 33.1443 100.857 32.9919 98.0615 30.0068L86.4902 17.6514C83.6945 14.6662 83.8469 9.97859 86.8307 7.18133C89.8144 4.38407 94.4996 4.5364 97.2953 7.52158L108.867 19.877Z" fill="#C5FA69"/>
<path d="M134.25 48.4487C137.046 51.4339 136.894 56.1215 133.91 58.9188C130.926 61.716 126.241 61.5637 123.445 58.5785L111.874 46.2231C109.078 43.238 109.231 38.5504 112.214 35.7531C115.198 32.9558 119.883 33.1082 122.679 36.0934L134.25 48.4487Z" fill="#C5FA69"/>
<path d="M131.077 98.1845C133.873 101.17 133.72 105.857 130.737 108.654C127.753 111.452 123.068 111.299 120.272 108.314L108.701 95.9589C105.905 92.9737 106.057 88.2861 109.041 85.4888C112.025 82.6916 116.71 82.8439 119.506 85.8291L131.077 98.1845Z" fill="#C5FA69"/>
<path d="M102.52 121.465C105.316 124.45 105.164 129.138 102.18 131.935C99.1962 134.732 94.5111 134.58 91.7153 131.595L80.144 119.24C77.3483 116.254 77.5007 111.567 80.4845 108.769C83.4682 105.972 88.1534 106.125 90.9491 109.11L102.52 121.465Z" fill="#C5FA69"/>
<path d="M51.7523 121.465C54.5481 124.45 54.3957 129.138 51.4119 131.935C48.4282 134.732 43.743 134.58 40.9473 131.595L29.376 119.239C26.5802 116.254 26.7327 111.567 29.7164 108.769C32.7001 105.972 37.3853 106.125 40.1811 109.11L51.7523 121.465Z" fill="#C5FA69"/>
<path d="M26.3681 92.8934C29.1638 95.8786 29.0114 100.566 26.0276 103.363C23.0439 106.161 18.3587 106.008 15.563 103.023L3.99169 90.6678C1.19596 87.6827 1.34837 82.9951 4.33211 80.1978C7.31586 77.4005 12.001 77.5529 14.7968 80.5381L26.3681 92.8934Z" fill="#C5FA69"/>
<path d="M29.5419 43.1574C32.3376 46.1425 32.1852 50.8301 29.2015 53.6274C26.2177 56.4247 21.5325 56.2723 18.7368 53.2871L7.16551 40.9318C4.36979 37.9466 4.5222 33.259 7.50594 30.4617C10.4897 27.6645 15.1749 27.8168 17.9706 30.802L29.5419 43.1574Z" fill="#C5FA69"/>
<path d="M53.8671 69.6128C56.6628 72.598 56.5104 77.2856 53.5267 80.0828C50.5429 82.8801 45.8577 82.7278 43.062 79.7426L31.4907 67.3872C28.695 64.402 28.8474 59.7144 31.8311 56.9172C34.8149 54.1199 39.5001 54.2722 42.2958 57.2574L53.8671 69.6128Z" fill="#C5FA69"/>
<path d="M78.1937 93.9516C80.9895 96.9367 80.8371 101.624 77.8533 104.422C74.8696 107.219 70.1844 107.067 67.3887 104.081L55.8174 91.7259C53.0216 88.7408 53.1741 84.0532 56.1578 81.2559C59.1415 78.4587 63.8267 78.611 66.6225 81.5962L78.1937 93.9516Z" fill="#C5FA69"/>
<path d="M105.693 71.7293C108.489 74.7144 108.337 79.402 105.353 82.1993C102.369 84.9966 97.6839 84.8442 94.8882 81.859L83.3169 69.5037C80.5212 66.5185 80.6736 61.8309 83.6573 59.0336C86.6411 56.2364 91.3262 56.3887 94.122 59.3739L105.693 71.7293Z" fill="#C5FA69"/>
<path d="M80.309 44.2157C83.1047 47.2009 82.9523 51.8885 79.9686 54.6857C76.9848 57.483 72.2996 57.3307 69.5039 54.3455L57.9326 41.9901C55.1369 39.0049 55.2893 34.3173 58.273 31.5201C61.2568 28.7228 65.942 28.8751 68.7377 31.8603L80.309 44.2157Z" fill="#C5FA69"/>
</g>
<defs>
<clipPath id="clip0_6_4684">
<rect width="137" height="137" fill="white" transform="matrix(1 0 0 -1 0 137)"/>
</clipPath>
</defs>
</svg>
