<svg width="80" height="80" viewBox="0 0 80 80" fill="none" xmlns="http://www.w3.org/2000/svg">
<g clip-path="url(#clip0_6_6284)">
<path d="M32.691 10.3711C34.3235 12.1142 34.2345 14.8515 32.4922 16.4849C30.7499 18.1184 28.014 18.0294 26.3815 16.2863L19.6245 9.07144C17.992 7.32827 18.081 4.59099 19.8233 2.95755C21.5656 1.32411 24.3015 1.41307 25.934 3.15624L32.691 10.3711Z" fill="#E4F254"/>
<path d="M63.5718 11.6069C65.2044 13.3501 65.1154 16.0873 63.3731 17.7208C61.6307 19.3542 58.8949 19.2653 57.2623 17.5221L50.5054 10.3073C48.8728 8.56411 48.9618 5.82683 50.7041 4.19339C52.4465 2.55995 55.1824 2.6489 56.8149 4.39207L63.5718 11.6069Z" fill="#E4F254"/>
<path d="M78.3946 28.2912C80.0271 30.0344 79.9381 32.7717 78.1958 34.4051C76.4535 36.0386 73.7176 35.9496 72.0851 34.2064L65.3281 26.9916C63.6956 25.2484 63.7846 22.5112 65.5269 20.8777C67.2692 19.2443 70.0051 19.3332 71.6377 21.0764L78.3946 28.2912Z" fill="#E4F254"/>
<path d="M76.5416 57.3339C78.1741 59.0771 78.0851 61.8144 76.3428 63.4478C74.6005 65.0813 71.8646 64.9923 70.232 63.2492L63.4751 56.0343C61.8425 54.2912 61.9315 51.5539 63.6739 49.9204C65.4162 48.287 68.1521 48.376 69.7846 50.1191L76.5416 57.3339Z" fill="#E4F254"/>
<path d="M59.8658 70.9285C61.4983 72.6717 61.4093 75.409 59.667 77.0424C57.9247 78.6759 55.1888 78.5869 53.5563 76.8438L46.7993 69.6289C45.1668 67.8858 45.2558 65.1485 46.9981 63.515C48.7404 61.8816 51.4763 61.9706 53.1088 63.7137L59.8658 70.9285Z" fill="#E4F254"/>
<path d="M30.2203 70.9285C31.8528 72.6717 31.7638 75.409 30.0215 77.0424C28.2792 78.6759 25.5433 78.5869 23.9108 76.8438L17.1538 69.6289C15.5213 67.8858 15.6103 65.1485 17.3526 63.515C19.0949 61.8816 21.8308 61.9706 23.4633 63.7137L30.2203 70.9285Z" fill="#E4F254"/>
<path d="M15.3975 54.2443C17.0301 55.9875 16.9411 58.7248 15.1987 60.3582C13.4564 61.9917 10.7205 61.9027 9.088 60.1596L2.33105 52.9447C0.698502 51.2016 0.787499 48.4643 2.52983 46.8308C4.27216 45.1974 7.00804 45.2864 8.64058 47.0295L15.3975 54.2443Z" fill="#E4F254"/>
<path d="M17.2506 25.2014C18.8831 26.9445 18.7941 29.6818 17.0518 31.3153C15.3094 32.9487 12.5736 32.8598 10.941 31.1166L4.18407 23.9018C2.55153 22.1586 2.64053 19.4213 4.38286 17.7879C6.12519 16.1544 8.86106 16.2434 10.4936 17.9866L17.2506 25.2014Z" fill="#E4F254"/>
<path d="M31.4551 40.6499C33.0877 42.393 32.9987 45.1303 31.2564 46.7638C29.514 48.3972 26.7782 48.3082 25.1456 46.5651L18.3887 39.3502C16.7561 37.6071 16.8451 34.8698 18.5874 33.2364C20.3298 31.6029 23.0657 31.6919 24.6982 33.435L31.4551 40.6499Z" fill="#E4F254"/>
<path d="M45.6607 54.8623C47.2933 56.6054 47.2043 59.3427 45.4619 60.9762C43.7196 62.6096 40.9837 62.5206 39.3512 60.7775L32.5942 53.5627C30.9617 51.8195 31.0507 49.0822 32.793 47.4488C34.5353 45.8153 37.2712 45.9043 38.9038 47.6474L45.6607 54.8623Z" fill="#E4F254"/>
<path d="M61.7188 41.8857C63.3514 43.6289 63.2624 46.3662 61.52 47.9996C59.7777 49.633 57.0418 49.5441 55.4093 47.8009L48.6523 40.5861C47.0198 38.8429 47.1088 36.1056 48.8511 34.4722C50.5934 32.8388 53.3293 32.9277 54.9619 34.6709L61.7188 41.8857Z" fill="#E4F254"/>
<path d="M46.8961 25.8194C48.5286 27.5626 48.4396 30.2999 46.6973 31.9333C44.955 33.5667 42.2191 33.4778 40.5865 31.7346L33.8296 24.5198C32.197 22.7766 32.286 20.0394 34.0284 18.4059C35.7707 16.7725 38.5066 16.8614 40.1391 18.6046L46.8961 25.8194Z" fill="#E4F254"/>
</g>
<defs>
<clipPath id="clip0_6_6284">
<rect width="80" height="80" fill="white" transform="matrix(1 0 0 -1 0 80)"/>
</clipPath>
</defs>
</svg>
