<svg width="16" height="16" viewBox="0 0 16 16" fill="none" xmlns="http://www.w3.org/2000/svg">
<path d="M7.99967 1.33334C4.31967 1.33334 1.33301 4.32001 1.33301 8.00001C1.33301 11.68 4.31967 14.6667 7.99967 14.6667C11.6797 14.6667 14.6663 11.68 14.6663 8.00001C14.6663 4.32001 11.6797 1.33334 7.99967 1.33334ZM6.66634 11.3333L3.33301 8.00001L4.27301 7.06001L6.66634 9.44668L11.7263 4.38668L12.6663 5.33334L6.66634 11.3333Z" fill="#D84646"/>
<path d="M6.31279 11.6869L6.66634 12.0405L7.01989 11.6869L13.0199 5.6869L13.3722 5.33459L13.0211 4.98104L12.0811 4.03437L11.7276 3.67832L11.3728 4.03312L6.66585 8.74006L4.62607 6.70596L4.27252 6.3534L3.91945 6.70646L2.97945 7.64646L2.6259 8.00001L2.97945 8.35356L6.31279 11.6869ZM1.83301 8.00001C1.83301 4.59615 4.59582 1.83334 7.99967 1.83334C11.4035 1.83334 14.1663 4.59615 14.1663 8.00001C14.1663 11.4039 11.4035 14.1667 7.99967 14.1667C4.59582 14.1667 1.83301 11.4039 1.83301 8.00001Z" stroke="#D84646"/>
</svg>
