<svg width="16" height="16" viewBox="0 0 16 16" fill="none" xmlns="http://www.w3.org/2000/svg">
<path fill-rule="evenodd" clip-rule="evenodd" d="M2.27537 11.2431C1.69443 10.2411 1.38886 9.1044 1.38923 7.93999H1.38928C1.39074 4.29714 4.3687 1.33334 8.02808 1.33334C9.80396 1.33406 11.4706 2.02223 12.7241 3.2709C13.9775 4.51974 14.6675 6.17985 14.6668 7.94527C14.6653 11.5881 11.6868 14.5523 8.02808 14.5523H8.02522C6.91428 14.5519 5.82251 14.2744 4.85282 13.748L1.3335 14.6667L2.27537 11.2431ZM3.35365 10.8629L3.48505 11.0705L3.48506 11.0705L2.92745 13.0969L5.01589 12.5518L5.21745 12.6708C6.06443 13.1711 7.03563 13.4359 8.02589 13.4364H8.02808C11.0693 13.4364 13.5446 10.9727 13.5459 7.94486C13.5463 6.47737 12.973 5.09762 11.9312 4.05966C10.8893 3.02181 9.50412 2.44979 8.03016 2.44917C4.98652 2.44917 2.51131 4.91256 2.51011 7.9404C2.50969 8.97799 2.80126 9.98846 3.35365 10.8629ZM5.99558 4.89263C6.11376 4.89746 6.24454 4.903 6.36881 5.17797V5.17802C6.45355 5.36559 6.59599 5.71493 6.70975 5.99392C6.79401 6.20057 6.86253 6.36863 6.88022 6.40378C6.92163 6.48638 6.94934 6.58282 6.89397 6.69306C6.88563 6.70966 6.87792 6.72533 6.87055 6.7403C6.82908 6.82457 6.79858 6.88654 6.72835 6.96844C6.70054 7.00072 6.67179 7.03553 6.64305 7.07032C6.58599 7.13941 6.52895 7.20845 6.47939 7.25766C6.39621 7.33995 6.3098 7.42944 6.40657 7.59454C6.50335 7.75989 6.83626 8.30044 7.32939 8.73816C7.85916 9.20836 8.31936 9.40723 8.55309 9.50823C8.59899 9.52806 8.63615 9.54412 8.6634 9.55772C8.82923 9.64032 8.92605 9.62658 9.02277 9.51619C9.1196 9.40606 9.43725 9.03418 9.54788 8.86909C9.6585 8.70373 9.76907 8.73122 9.92116 8.78628C10.0732 8.8414 10.8887 9.24091 11.0546 9.32351C11.0869 9.33958 11.1171 9.35409 11.1451 9.36754C11.261 9.42319 11.3392 9.46078 11.3726 9.51619C11.4141 9.58525 11.4141 9.91575 11.2758 10.3013C11.1376 10.6869 10.4603 11.0588 10.1562 11.0863C10.1269 11.0889 10.0979 11.0923 10.068 11.0959C9.78692 11.1288 9.4322 11.1704 8.16564 10.6732C6.60762 10.0615 5.58027 8.54584 5.36777 8.23232C5.3503 8.20656 5.33834 8.18892 5.33204 8.18056L5.33025 8.17817C5.24096 8.05938 4.65475 7.27946 4.65475 6.47259C4.65475 5.71217 5.03015 5.31354 5.20293 5.13007C5.21476 5.11751 5.22563 5.10596 5.23538 5.09537C5.3873 4.93023 5.56704 4.8888 5.67767 4.8888C5.68488 4.8888 5.69209 4.88879 5.6993 4.88879C5.80257 4.88877 5.90513 4.88876 5.99558 4.89263Z" fill="white"/>
</svg>
