<svg width="175" height="175" viewBox="0 0 175 175" fill="none" xmlns="http://www.w3.org/2000/svg">
<path d="M21.875 80.2083V21.875H80.2083V80.2083H21.875ZM36.4583 65.625H65.625V36.4583H36.4583V65.625ZM21.875 153.125V94.7917H80.2083V153.125H21.875ZM36.4583 138.542H65.625V109.375H36.4583V138.542ZM94.7917 80.2083V21.875H153.125V80.2083H94.7917ZM109.375 65.625H138.542V36.4583H109.375V65.625ZM138.542 153.125V138.542H153.125V153.125H138.542ZM94.7917 109.375V94.7917H109.375V109.375H94.7917ZM109.375 123.958V109.375H123.958V123.958H109.375ZM94.7917 138.542V123.958H109.375V138.542H94.7917ZM109.375 153.125V138.542H123.958V153.125H109.375ZM123.958 138.542V123.958H138.542V138.542H123.958ZM123.958 109.375V94.7917H138.542V109.375H123.958ZM138.542 123.958V109.375H153.125V123.958H138.542Z" fill="#000072"/>
</svg>
