<svg width="16" height="16" viewBox="0 0 16 16" fill="none" xmlns="http://www.w3.org/2000/svg">
<path fill-rule="evenodd" clip-rule="evenodd" d="M14.0001 6.00004H9.79341L10.4267 2.95337L10.4467 2.74004C10.4467 2.46671 10.3334 2.21337 10.1534 2.03337L9.44675 1.33337L5.06008 5.72671C4.81341 5.96671 4.66675 6.30004 4.66675 6.66671V13.3334C4.66675 14.0667 5.26675 14.6667 6.00008 14.6667H12.0001C12.5534 14.6667 13.0267 14.3334 13.2267 13.8534L15.2401 9.15337C15.3001 9.00004 15.3334 8.84004 15.3334 8.66671V7.33337C15.3334 6.60004 14.7334 6.00004 14.0001 6.00004ZM14.0001 8.66671L12.0001 13.3334H6.00008V6.66671L8.89342 3.77337L8.15341 7.33337H14.0001V8.66671ZM3.33341 6.66671H0.666748V14.6667H3.33341V6.66671Z" fill="#000072"/>
</svg>
