<svg width="24" height="24" viewBox="0 0 24 24" fill="none" xmlns="http://www.w3.org/2000/svg">
<path d="M19.5 21H8.5V7H19.5M19.5 5H8.5C7.96957 5 7.46086 5.21071 7.08579 5.58579C6.71071 5.96086 6.5 6.46957 6.5 7V21C6.5 21.5304 6.71071 22.0391 7.08579 22.4142C7.46086 22.7893 7.96957 23 8.5 23H19.5C20.0304 23 20.5391 22.7893 20.9142 22.4142C21.2893 22.0391 21.5 21.5304 21.5 21V7C21.5 6.46957 21.2893 5.96086 20.9142 5.58579C20.5391 5.21071 20.0304 5 19.5 5ZM16.5 1H4.5C3.96957 1 3.46086 1.21071 3.08579 1.58579C2.71071 1.96086 2.5 2.46957 2.5 3V17H4.5V3H16.5V1Z" fill="#C5FA69"/>
</svg>
