<svg width="44" height="44" viewBox="0 0 44 44" fill="none" xmlns="http://www.w3.org/2000/svg">
<path fill-rule="evenodd" clip-rule="evenodd" d="M9.41527 28.9873C12.0868 34.7801 17.9804 38.6014 24.4178 38.6014C30.2565 38.6014 35.545 35.6129 38.565 30.6073L39.4198 31.1229C36.2177 36.431 30.6093 39.6 24.4177 39.6C17.5102 39.6 11.1933 35.4501 8.40919 29.1839C8.1813 29.2097 7.95219 29.2232 7.72285 29.2243C6.31667 29.2243 5.18667 28.763 4.33391 27.8179V33.7893H1.38281V18.0655H4.31069V19.6795C4.89233 18.7168 6.11944 18.0695 7.41504 17.9168C8.43336 13.7719 10.9949 10.071 14.5341 7.64341C14.3727 7.14529 14.3732 6.60887 14.5354 6.11103C14.6976 5.61319 15.0133 5.1795 15.4372 4.87212C15.8611 4.56475 16.3715 4.39948 16.8951 4.4C17.4187 4.40053 17.9287 4.56683 18.352 4.87505C18.7752 5.18327 19.0901 5.6176 19.2513 6.11576C19.4125 6.61393 19.4119 7.15035 19.2495 7.64814C19.0871 8.14593 18.7713 8.57952 18.3473 8.88675C17.9233 9.19399 17.4129 9.35909 16.8893 9.3584C16.5376 9.35818 16.1902 9.2823 15.8704 9.13592C15.5507 8.98954 15.2662 8.77608 15.0362 8.51004C11.8022 10.7506 9.43947 14.1196 8.44537 17.9015C9.66553 17.9985 10.7418 18.4948 11.6883 19.3797C12.7489 20.371 13.2794 21.7544 13.2794 23.5296C13.2794 25.3048 12.726 26.7112 11.6424 27.7027C10.9839 28.3191 10.239 28.7454 9.41527 28.9873ZM15.7558 5.5943C15.4431 5.86892 15.2406 6.24763 15.1859 6.6602H15.1858C15.1417 6.99682 15.1984 7.33897 15.3487 7.64338C15.499 7.9478 15.7362 8.2008 16.0303 8.37041C16.3244 8.54002 16.6621 8.61861 17.0009 8.59625C17.3397 8.57389 17.6642 8.45159 17.9334 8.2448C18.2027 8.03801 18.4046 7.75601 18.5136 7.43448C18.6226 7.11296 18.6338 6.76633 18.5458 6.43843C18.4578 6.11054 18.2745 5.8161 18.0192 5.59235C17.7638 5.36861 17.4479 5.2256 17.1113 5.18142C17.0367 5.17174 16.9616 5.16686 16.8864 5.1668C16.4702 5.16779 16.0685 5.31967 15.7558 5.5943ZM4.35686 23.5757C4.35686 25.5813 5.60184 26.7573 7.35405 26.7573C9.12924 26.7573 10.3513 25.5123 10.3513 23.5064C10.3513 21.5468 9.17538 20.348 7.44637 20.348C5.76327 20.348 4.35686 21.4316 4.35686 23.5757ZM41.9263 22.0913C41.9269 23.1825 41.8259 24.2715 41.6246 25.344H41.6245C42.0747 25.6348 42.4024 26.0808 42.5454 26.5973C42.6885 27.1138 42.637 27.6648 42.4006 28.1458C42.1643 28.6268 41.7596 29.0043 41.2634 29.2067C40.7671 29.409 40.2138 29.4221 39.7085 29.2435C39.2032 29.0649 38.7811 28.707 38.5222 28.2378C38.2634 27.7685 38.1858 27.2206 38.3042 26.6979C38.4226 26.1752 38.7288 25.7142 39.1647 25.4023C39.6005 25.0905 40.1357 24.9495 40.6686 25.0061C40.8405 24.044 40.9272 23.0686 40.9277 22.0913C40.9277 12.9876 33.5214 5.5811 24.4178 5.5811C23.2131 5.58077 22.012 5.71152 20.8357 5.97104L20.6198 4.99603C21.867 4.72076 23.1405 4.5821 24.4178 4.58252C34.0719 4.58252 41.9263 12.4371 41.9263 22.0913ZM21.2685 13.8234V25.397C21.2685 27.9561 22.8825 29.2243 25.0033 29.2243C25.8104 29.2243 26.5943 29.0397 27.3782 28.6709L26.3638 26.5268C26.0869 26.6652 25.8336 26.7343 25.5799 26.7343C24.8191 26.7343 24.2196 26.2962 24.2196 25.3509V13.8234H21.2685ZM28.7411 13.8234V25.397C28.7411 27.9561 30.3549 29.2243 32.4761 29.2243C33.2829 29.2243 34.0667 29.0397 34.8506 28.6709L33.8362 26.5268C33.5597 26.6652 33.306 26.7343 33.0523 26.7343C32.2915 26.7343 31.6923 26.2962 31.6923 25.3509V13.8234H28.7411ZM18.363 18.0654H15.412V28.9936H18.363V18.0654Z" fill="white"/>
</svg>
