<svg width="174" height="170" viewBox="0 0 174 170" fill="none" xmlns="http://www.w3.org/2000/svg">
<path d="M86.9998 169.507C135.048 169.507 174 131.562 174 84.7541C174 37.946 135.049 0 87.0001 0C38.9514 0 0 37.9456 0 84.7538C0 131.562 38.9511 169.507 86.9998 169.507Z" fill="#9B8FCC"/>
<path d="M139.311 46.1522C137.078 43.469 134.676 40.9243 132.118 38.5328C124.205 31.3517 114.573 26.2144 104.1 23.5896C93.6265 20.9648 82.6454 20.9357 72.1578 23.5052C61.6702 26.0747 52.0097 31.1613 44.0572 38.3005C36.1047 45.4397 30.1133 54.4045 26.6293 64.3778L29.702 65.3917C33.0081 55.9152 38.6978 47.3962 46.2518 40.6122C53.8058 33.8281 62.9836 28.9951 72.9475 26.5541C82.9115 24.1131 93.3442 24.1419 103.294 26.6379C113.243 29.1339 122.393 34.0175 129.907 40.8432C132.274 43.0561 134.5 45.4061 136.576 47.8808C136.402 48.038 136.209 48.1656 136.047 48.3411C134.409 50.0514 133.525 52.3202 133.587 54.659C133.649 56.9977 134.652 59.2193 136.379 60.8449C138.106 62.4706 140.419 63.3703 142.821 63.3505C145.222 63.3306 147.52 62.3927 149.218 60.7386C149.294 60.6647 149.37 60.5901 149.443 60.5129C151.099 58.782 151.982 56.4816 151.897 54.1168C151.813 51.7521 150.768 49.5167 148.993 47.9021C147.716 46.7445 146.128 45.965 144.413 45.6551C142.698 45.3452 140.929 45.5177 139.311 46.1522ZM149.095 54.2131C149.125 55.0254 148.991 55.8357 148.698 56.5971C148.406 57.3584 147.963 58.0561 147.393 58.6499C146.235 59.8351 144.646 60.5308 142.967 60.5873C141.288 60.6439 139.654 60.0567 138.415 58.9522C137.804 58.3984 137.311 57.7329 136.965 56.9935C136.618 56.2541 136.425 55.4556 136.395 54.6433C136.366 53.8311 136.501 53.0211 136.793 52.2597C137.085 51.4984 137.529 50.8006 138.098 50.2063C138.151 50.1547 138.2 50.1003 138.253 50.0487C139.129 49.1977 140.241 48.6142 141.453 48.3698C142.664 48.1255 143.923 48.231 145.074 48.6731C146.225 49.1152 147.218 49.8747 147.933 50.8588C148.647 51.8429 149.051 53.0086 149.095 54.2131Z" fill="#000072"/>
<path d="M132.94 125.529C124.479 134.361 113.476 140.496 101.373 143.13C89.2705 145.764 76.6333 144.775 65.1183 140.291C53.6032 135.807 43.7476 128.038 36.8434 118.002C29.9393 107.967 26.309 96.1337 26.4282 84.0535C28.4444 83.7459 30.2713 82.7194 31.554 81.1731C32.8366 79.6268 33.4836 77.6711 33.3691 75.6862C33.2546 73.7012 32.3868 71.8285 30.9344 70.4319C29.482 69.0353 27.5485 68.2146 25.5096 68.129C23.4708 68.0433 21.472 68.6989 19.9016 69.9686C18.3312 71.2382 17.3012 73.0313 17.0118 74.9993C16.7224 76.9673 17.1942 78.9698 18.3356 80.6178C19.4769 82.2659 21.2063 83.442 23.1879 83.9175C23.04 96.4521 26.7279 108.746 33.7814 119.23C40.8349 129.714 50.9342 137.914 62.7912 142.784C74.6482 147.654 87.7254 148.973 100.355 146.573C112.985 144.172 124.594 138.162 133.703 129.308C134.246 128.778 134.783 128.237 135.313 127.685C142.682 120.008 147.961 110.655 150.666 100.479C153.372 90.3039 153.419 79.6304 150.802 69.433L147.652 70.1896C150.14 79.8769 150.097 90.0167 147.527 99.6835C144.957 109.35 139.942 118.236 132.94 125.529Z" fill="#000072"/>
<path d="M72.475 75.063C71.9069 73.2209 70.7445 71.6065 69.1602 70.4587C67.576 69.3109 65.6542 68.691 63.6799 68.691C61.7055 68.691 59.7837 69.3109 58.1994 70.4587C56.6152 71.6065 55.4528 73.2209 54.8846 75.063" stroke="#171784" stroke-width="2.45081" stroke-miterlimit="10" stroke-linecap="round"/>
<path d="M119.11 75.063C118.542 73.2209 117.38 71.6065 115.795 70.4587C114.211 69.3109 112.289 68.691 110.315 68.691C108.341 68.691 106.419 69.3109 104.834 70.4587C103.25 71.6065 102.088 73.2209 101.52 75.063" stroke="#171784" stroke-width="2.45081" stroke-miterlimit="10" stroke-linecap="round"/>
</svg>
