<svg width="132" height="119" viewBox="0 0 132 119" fill="none" xmlns="http://www.w3.org/2000/svg">
<path d="M40.9485 79.728C42.7803 79.728 44.2652 78.2573 44.2652 76.4432C44.2652 74.629 42.7803 73.1584 40.9485 73.1584C39.1168 73.1584 37.6318 74.629 37.6318 76.4432C37.6318 78.2573 39.1168 79.728 40.9485 79.728Z" fill="#E4F254"/>
<path d="M3.31668 79.728C5.14844 79.728 6.63336 78.2573 6.63336 76.4432C6.63336 74.629 5.14844 73.1584 3.31668 73.1584C1.48493 73.1584 0 74.629 0 76.4432C0 78.2573 1.48493 79.728 3.31668 79.728Z" fill="#E4F254"/>
<path d="M22.1331 97.9135C23.9648 97.9135 25.4498 96.4428 25.4498 94.6287C25.4498 92.8145 23.9648 91.3438 22.1331 91.3438C20.3013 91.3438 18.8164 92.8145 18.8164 94.6287C18.8164 96.4428 20.3013 97.9135 22.1331 97.9135Z" fill="#E4F254"/>
<path d="M22.1331 61.5107C23.9648 61.5107 25.4498 60.04 25.4498 58.2258C25.4498 56.4117 23.9648 54.941 22.1331 54.941C20.3013 54.941 18.8164 56.4117 18.8164 58.2258C18.8164 60.04 20.3013 61.5107 22.1331 61.5107Z" fill="#E4F254"/>
<path d="M78.5813 79.728C80.4131 79.728 81.898 78.2573 81.898 76.4432C81.898 74.629 80.4131 73.1584 78.5813 73.1584C76.7496 73.1584 75.2646 74.629 75.2646 76.4432C75.2646 78.2573 76.7496 79.728 78.5813 79.728Z" fill="#E4F254"/>
<path d="M40.9485 79.728C42.7803 79.728 44.2652 78.2573 44.2652 76.4432C44.2652 74.629 42.7803 73.1584 40.9485 73.1584C39.1168 73.1584 37.6318 74.629 37.6318 76.4432C37.6318 78.2573 39.1168 79.728 40.9485 79.728Z" fill="#E4F254"/>
<path d="M59.7659 97.9135C61.5977 97.9135 63.0826 96.4428 63.0826 94.6287C63.0826 92.8145 61.5977 91.3438 59.7659 91.3438C57.9341 91.3438 56.4492 92.8145 56.4492 94.6287C56.4492 96.4428 57.9341 97.9135 59.7659 97.9135Z" fill="#E4F254"/>
<path d="M59.7659 61.5107C61.5977 61.5107 63.0826 60.04 63.0826 58.2258C63.0826 56.4117 61.5977 54.941 59.7659 54.941C57.9341 54.941 56.4492 56.4117 56.4492 58.2258C56.4492 60.04 57.9341 61.5107 59.7659 61.5107Z" fill="#E4F254"/>
<path d="M40.9485 43.3253C42.7803 43.3253 44.2652 41.8547 44.2652 40.0405C44.2652 38.2264 42.7803 36.7557 40.9485 36.7557C39.1168 36.7557 37.6318 38.2264 37.6318 40.0405C37.6318 41.8547 39.1168 43.3253 40.9485 43.3253Z" fill="#E4F254"/>
<path d="M3.31668 43.3253C5.14844 43.3253 6.63336 41.8547 6.63336 40.0405C6.63336 38.2264 5.14844 36.7557 3.31668 36.7557C1.48493 36.7557 0 38.2264 0 40.0405C0 41.8547 1.48493 43.3253 3.31668 43.3253Z" fill="#E4F254"/>
<path d="M22.1331 61.5107C23.9648 61.5107 25.4498 60.04 25.4498 58.2258C25.4498 56.4117 23.9648 54.941 22.1331 54.941C20.3013 54.941 18.8164 56.4117 18.8164 58.2258C18.8164 60.04 20.3013 61.5107 22.1331 61.5107Z" fill="#E4F254"/>
<path d="M22.1331 25.1081C23.9648 25.1081 25.4498 23.6374 25.4498 21.8233C25.4498 20.0091 23.9648 18.5385 22.1331 18.5385C20.3013 18.5385 18.8164 20.0091 18.8164 21.8233C18.8164 23.6374 20.3013 25.1081 22.1331 25.1081Z" fill="#E4F254"/>
<path d="M78.5813 43.3253C80.4131 43.3253 81.898 41.8547 81.898 40.0405C81.898 38.2264 80.4131 36.7557 78.5813 36.7557C76.7496 36.7557 75.2646 38.2264 75.2646 40.0405C75.2646 41.8547 76.7496 43.3253 78.5813 43.3253Z" fill="#E4F254"/>
<path d="M40.9485 43.3253C42.7803 43.3253 44.2652 41.8547 44.2652 40.0405C44.2652 38.2264 42.7803 36.7557 40.9485 36.7557C39.1168 36.7557 37.6318 38.2264 37.6318 40.0405C37.6318 41.8547 39.1168 43.3253 40.9485 43.3253Z" fill="#E4F254"/>
<path d="M59.7659 61.5107C61.5977 61.5107 63.0826 60.04 63.0826 58.2258C63.0826 56.4117 61.5977 54.941 59.7659 54.941C57.9341 54.941 56.4492 56.4117 56.4492 58.2258C56.4492 60.04 57.9341 61.5107 59.7659 61.5107Z" fill="#E4F254"/>
<path d="M59.7659 25.1081C61.5977 25.1081 63.0826 23.6374 63.0826 21.8233C63.0826 20.0091 61.5977 18.5385 59.7659 18.5385C57.9341 18.5385 56.4492 20.0091 56.4492 21.8233C56.4492 23.6374 57.9341 25.1081 59.7659 25.1081Z" fill="#E4F254"/>
<path d="M67.4225 93.0068C85.4147 93.0068 100 78.5614 100 60.742C100 42.9226 85.4148 28.4775 67.4225 28.4775C49.4302 28.4775 34.8447 42.9227 34.8447 60.742C34.8447 78.5613 49.4303 93.0067 67.4225 93.0068Z" fill="#6ED28F"/>
<path d="M87.0118 46.0472C86.1758 45.0258 85.2761 44.057 84.3183 43.1465C81.3553 40.4128 77.7485 38.4571 73.8267 37.4579C69.905 36.4586 65.793 36.4476 61.8658 37.4258C57.9386 38.4041 54.3212 40.3403 51.3433 43.0581C48.3655 45.7759 46.122 49.1889 44.8174 52.9857L45.9679 53.3717C47.2059 49.764 49.3364 46.5209 52.165 43.9383C54.9937 41.3556 58.4304 39.5157 62.1615 38.5864C65.8926 37.6571 69.7992 37.6681 73.5249 38.6183C77.2507 39.5685 80.6768 41.4276 83.4906 44.0261C84.3766 44.8686 85.2105 45.7633 85.9876 46.7053C85.9224 46.7652 85.8502 46.8136 85.7898 46.8807C85.1756 47.5316 84.8443 48.3955 84.8672 49.2862C84.8902 50.1768 85.2656 51.0229 85.9125 51.6421C86.5595 52.2612 87.4261 52.6037 88.3257 52.5959C89.2253 52.588 90.0857 52.2304 90.7216 51.6002C90.7501 51.572 90.7787 51.5437 90.806 51.5148C91.4261 50.8559 91.7566 49.98 91.725 49.0798C91.6934 48.1796 91.3021 47.3287 90.6372 46.714C90.1594 46.2732 89.5646 45.9764 88.9225 45.8583C88.2804 45.7402 87.6176 45.8057 87.0118 46.0472ZM90.6756 49.1161C90.6869 49.4253 90.6364 49.7337 90.5271 50.0235C90.4177 50.3133 90.2515 50.5788 90.0382 50.8049C89.6046 51.2561 89.0096 51.521 88.381 51.5426C87.7524 51.5641 87.1403 51.3406 86.6762 50.9201C86.4476 50.7093 86.2631 50.4559 86.1334 50.1744C86.0036 49.8929 85.9312 49.5888 85.9202 49.2796C85.9092 48.9704 85.9598 48.6621 86.0691 48.3722C86.1785 48.0824 86.3445 47.8168 86.5576 47.5905C86.5774 47.571 86.596 47.5503 86.6158 47.5308C86.9439 47.2067 87.3603 46.9846 87.814 46.8915C88.2676 46.7984 88.7388 46.8385 89.1699 47.0068C89.6009 47.1751 89.9729 47.4643 90.2404 47.839C90.5079 48.2137 90.6591 48.6575 90.6756 49.1161Z" fill="#000072"/>
<path d="M84.6251 76.2651C81.4568 79.6273 77.3366 81.9629 72.8047 82.9657C68.2728 83.9685 63.5407 83.5916 59.2288 81.8846C54.9169 80.1776 51.2264 77.2201 48.6411 73.3998C46.0558 69.5795 44.6964 65.0747 44.741 60.4759C45.4962 60.3589 46.1805 59.968 46.661 59.3793C47.1415 58.7905 47.3839 58.046 47.3411 57.2902C47.2983 56.5344 46.9734 55.8213 46.4294 55.2895C45.8855 54.7577 45.1614 54.445 44.3978 54.4123C43.6341 54.3797 42.8855 54.6293 42.2972 55.1126C41.709 55.596 41.3232 56.2787 41.2148 57.028C41.1063 57.7774 41.283 58.54 41.7104 59.1675C42.1378 59.7951 42.7855 60.2429 43.5277 60.424C43.4722 65.1958 44.8532 69.8758 47.4944 73.8671C50.1356 77.8584 53.9174 80.9801 58.3574 82.834C62.7973 84.6879 67.6942 85.19 72.4235 84.2762C77.1527 83.3624 81.5 81.0741 84.9108 77.7033C85.1143 77.5018 85.3153 77.2961 85.5138 77.086C88.2733 74.1633 90.2499 70.6026 91.2631 66.729C92.2762 62.8554 92.2937 58.7921 91.314 54.9101L90.1344 55.1979C91.0658 58.8857 91.0496 62.7459 90.0873 66.426C89.1249 70.106 87.247 73.4887 84.6251 76.2651Z" fill="#000072"/>
<path d="M61.9853 57.0538C61.7726 56.3525 61.3373 55.7378 60.744 55.3008C60.1508 54.8639 59.4312 54.628 58.6919 54.628C57.9526 54.628 57.2329 54.8639 56.6397 55.3008C56.0465 55.7378 55.6112 56.3525 55.3984 57.0538" stroke="#000072" stroke-width="1.90388" stroke-miterlimit="10" stroke-linecap="round"/>
<path d="M79.4453 57.0533C79.2325 56.3521 78.7972 55.7373 78.204 55.3004C77.6108 54.8634 76.8912 54.6276 76.1518 54.6276C75.4125 54.6276 74.6929 54.8634 74.0997 55.3004C73.5064 55.7373 73.0711 56.3521 72.8584 57.0533" stroke="#000072" stroke-width="1.90388" stroke-miterlimit="10" stroke-linecap="round"/>
</svg>
