<svg width="15" height="15" viewBox="0 0 15 15" fill="none" xmlns="http://www.w3.org/2000/svg">
<path fill-rule="evenodd" clip-rule="evenodd" d="M7.50001 2.50002C6.11877 2.50002 5.00002 3.61877 5.00002 5.00002C5.00002 6.38126 6.11877 7.50001 7.50001 7.50001C8.88126 7.50001 10 6.38126 10 5.00002C10 3.61877 8.88126 2.50002 7.50001 2.50002ZM8.81251 5.00002C8.81251 4.27502 8.22501 3.68752 7.50001 3.68752C6.77501 3.68752 6.18751 4.27502 6.18751 5.00002C6.18751 5.72502 6.77501 6.31251 7.50001 6.31251C8.22501 6.31251 8.81251 5.72502 8.81251 5.00002ZM11.3125 10.625C11.3125 10.225 9.35626 9.31251 7.50001 9.31251C5.64377 9.31251 3.68752 10.225 3.68752 10.625V11.3125H11.3125V10.625ZM2.50002 10.625C2.50002 8.96251 5.83127 8.12501 7.50001 8.12501C9.16876 8.12501 12.5 8.96251 12.5 10.625V12.5H2.50002V10.625Z" fill="#A0A0A8"/>
</svg>
