<svg width="16" height="16" viewBox="0 0 16 16" fill="none" xmlns="http://www.w3.org/2000/svg">
<g clip-path="url(#clip0_0_6165)">
<path d="M7.99998 1.33331C4.31331 1.33331 1.33331 4.31331 1.33331 7.99998C1.33331 11.6866 4.31331 14.6666 7.99998 14.6666C11.6866 14.6666 14.6666 11.6866 14.6666 7.99998C14.6666 4.31331 11.6866 1.33331 7.99998 1.33331ZM7.99998 13.3333C5.05998 13.3333 2.66665 10.94 2.66665 7.99998C2.66665 5.05998 5.05998 2.66665 7.99998 2.66665C10.94 2.66665 13.3333 5.05998 13.3333 7.99998C13.3333 10.94 10.94 13.3333 7.99998 13.3333ZM10.3933 4.66665L7.99998 7.05998L5.60665 4.66665L4.66665 5.60665L7.05998 7.99998L4.66665 10.3933L5.60665 11.3333L7.99998 8.93998L10.3933 11.3333L11.3333 10.3933L8.93998 7.99998L11.3333 5.60665L10.3933 4.66665Z" fill="#C5FA69"/>
<path d="M7.99998 1.33331C4.31331 1.33331 1.33331 4.31331 1.33331 7.99998C1.33331 11.6866 4.31331 14.6666 7.99998 14.6666C11.6866 14.6666 14.6666 11.6866 14.6666 7.99998C14.6666 4.31331 11.6866 1.33331 7.99998 1.33331ZM11.3333 10.3933L10.3933 11.3333L7.99998 8.93998L5.60665 11.3333L4.66665 10.3933L7.05998 7.99998L4.66665 5.60665L5.60665 4.66665L7.99998 7.05998L10.3933 4.66665L11.3333 5.60665L8.93998 7.99998L11.3333 10.3933Z" fill="#C5FA69"/>
<path d="M10.6262 10.3933L10.3933 10.6262L8.35353 8.58643L7.99998 8.23287L7.64643 8.58643L5.60665 10.6262L5.37375 10.3933L7.41353 8.35353L7.76709 7.99998L7.41353 7.64643L5.37375 5.60665L5.60665 5.37375L7.64643 7.41353L7.99998 7.76709L8.35353 7.41353L10.3933 5.37375L10.6262 5.60665L8.58643 7.64643L8.23287 7.99998L8.58643 8.35353L10.6262 10.3933ZM7.99998 0.833313C4.03717 0.833313 0.833313 4.03717 0.833313 7.99998C0.833313 11.9628 4.03717 15.1666 7.99998 15.1666C11.9628 15.1666 15.1666 11.9628 15.1666 7.99998C15.1666 4.03717 11.9628 0.833313 7.99998 0.833313Z" stroke="#000072"/>
</g>
<defs>
<clipPath id="clip0_0_6165">
<rect width="16" height="16" fill="white"/>
</clipPath>
</defs>
</svg>
