<svg width="16" height="16" viewBox="0 0 16 16" fill="none" xmlns="http://www.w3.org/2000/svg">
<path d="M2.66659 13.3333C2.29992 13.3333 1.98614 13.2029 1.72525 12.942C1.46392 12.6807 1.33325 12.3667 1.33325 12V3.99999C1.33325 3.63332 1.46392 3.31955 1.72525 3.05866C1.98614 2.79732 2.29992 2.66666 2.66659 2.66666H13.3333C13.6999 2.66666 14.0139 2.79732 14.2753 3.05866C14.5361 3.31955 14.6666 3.63332 14.6666 3.99999V12C14.6666 12.3667 14.5361 12.6807 14.2753 12.942C14.0139 13.2029 13.6999 13.3333 13.3333 13.3333H2.66659ZM13.3333 5.33332L8.34992 8.44999C8.29436 8.48332 8.23592 8.50821 8.17459 8.52466C8.1137 8.54154 8.05547 8.54999 7.99992 8.54999C7.94436 8.54999 7.88614 8.54154 7.82525 8.52466C7.76392 8.50821 7.70547 8.48332 7.64992 8.44999L2.66659 5.33332V12H13.3333V5.33332ZM7.99992 7.33332L13.3333 3.99999H2.66659L7.99992 7.33332ZM2.66659 5.33332V5.49999V4.51666V4.53332V3.99999V4.53332V4.52466V5.49999V5.33332V12V5.33332Z" fill="#000072"/>
</svg>
